<?xml version="1.0" encoding="utf-8"?>
<!-- Generator: Adobe Illustrator 16.0.0, SVG Export Plug-In . SVG Version: 6.00 Build 0)  -->
<!DOCTYPE svg PUBLIC "-//W3C//DTD SVG 1.1//EN" "http://www.w3.org/Graphics/SVG/1.1/DTD/svg11.dtd">
<svg version="1.1" id="Layer_1" xmlns="http://www.w3.org/2000/svg" xmlns:xlink="http://www.w3.org/1999/xlink" x="0px" y="0px"
	 width="42px" height="135.35px" viewBox="0 0 42 135.35" enable-background="new 0 0 42 135.35" xml:space="preserve">
<polygon fill="#95BADA" points="11.085,105.531 11.085,107.308 11.636,107.164 11.636,105.386 "/>
<polygon fill="#95BADA" points="11.085,108.445 11.085,110.218 11.636,110.083 11.636,108.31 "/>
<polygon fill="#95BADA" points="11.085,114.343 11.085,116.111 11.636,115.986 11.636,114.216 "/>
<polygon fill="#95BADA" points="16.039,113.458 16.039,115.226 16.59,115.101 16.59,113.332 "/>
<polygon fill="#95BADA" points="13.837,113.901 12.736,114.09 12.736,115.86 13.837,115.669 "/>
<polygon fill="#95BADA" points="15.489,113.584 14.388,113.775 14.388,115.543 15.489,115.354 "/>
<polygon fill="#95BADA" points="11.085,93.734 11.085,95.521 11.636,95.358 11.636,93.571 "/>
<polygon fill="#95BADA" points="11.085,87.975 11.085,89.78 11.636,89.589 11.636,87.784 "/>
<polygon fill="#95BADA" points="11,85.06 11,86.871 12,86.67 12,84.86 "/>
<polygon fill="#95BADA" points="11.085,102.547 11.085,104.325 11.636,104.18 11.636,102.402 "/>
<polygon fill="#95BADA" points="11.085,90.889 11.085,92.688 11.636,92.507 11.636,90.708 "/>
<polygon fill="#95BADA" points="11.085,99.562 11.085,101.339 11.636,101.196 11.636,99.417 "/>
<polygon fill="#95BADA" points="17.69,113.206 17.69,114.974 18.24,114.785 18.24,113.015 "/>
<polygon fill="#95BADA" points="11.085,96.648 11.085,98.431 11.636,98.277 11.636,96.495 "/>
<polygon fill="#95BADA" points="25,87.176 25,88.975 29,87.979 29,86.18 "/>
<polygon fill="#95BADA" points="25,80.973 25,82.784 29,81.687 29,79.877 "/>
<polygon fill="#95BADA" points="17.69,110.209 17.69,111.983 18.24,111.78 18.24,110.006 "/>
<polygon fill="#95BADA" points="11,82.076 11,83.886 12,83.686 12,81.876 "/>
<polygon fill="#95BADA" points="25,90.395 25,92.183 29,91.287 29,89.499 "/>
<polygon fill="#95BADA" points="25,71.903 25,73.719 29,72.574 29,70.755 "/>
<polygon fill="#95BADA" points="25,77.989 25,79.8 29,78.703 29,76.893 "/>
<polygon fill="#95BADA" points="25,75.004 25,76.816 29,75.718 29,73.909 "/>
<polygon fill="#95BADA" points="25,84.075 25,85.879 29,84.833 29,83.029 "/>
<polygon fill="#95BADA" points="20.442,103.651 19.341,103.868 19.341,105.645 20.442,105.428 "/>
<polygon fill="#95BADA" points="25,68.918 25,70.736 29,69.589 29,67.771 "/>
<polygon fill="#95BADA" points="17.69,107.225 17.69,109 18.24,108.795 18.24,107.022 "/>
<polygon fill="#95BADA" points="25,96.597 25,98.375 29,97.581 29,95.801 "/>
<polygon fill="#95BADA" points="29,101.77 25,102.566 25,104.343 29,103.548 "/>
<polygon fill="#95BADA" points="25,93.497 25,95.279 29,94.433 29,92.65 "/>
<polygon fill="#95BADA" points="17.69,104.229 17.69,106.006 18.24,105.79 18.24,104.012 "/>
<polygon fill="#95BADA" points="16,27.013 16,28.898 17,28.608 17,26.722 "/>
<polygon fill="#95BADA" points="16,32.977 16,34.854 17,34.573 17,32.695 "/>
<polygon fill="#95BADA" points="14,24.754 14,26.642 15,26.206 15,24.318 "/>
<polygon fill="#95BADA" points="16,29.993 16,31.87 17,31.589 17,29.711 "/>
<polygon fill="#95BADA" points="16,24.028 16,25.914 17,25.624 17,23.738 "/>
<polygon fill="#95BADA" points="11,29.046 11,30.933 12,30.643 12,28.755 "/>
<polygon fill="#95BADA" points="11,31.962 11,33.84 12,33.56 12,31.682 "/>
<polygon fill="#95BADA" points="11,26.062 11,27.948 12,27.659 12,25.771 "/>
<polygon fill="#95BADA" points="19,43.793 19,45.638 20,45.271 20,43.426 "/>
<polygon fill="#95BADA" points="11,79.091 11,80.902 12,80.703 12,78.892 "/>
<polygon fill="#95BADA" points="19,46.813 19,48.651 20,48.297 20,46.459 "/>
<polygon fill="#95BADA" points="19,40.772 19,42.625 20,42.245 20,40.391 "/>
<polygon fill="#95BADA" points="19,31.71 19,33.587 20,33.166 20,31.289 "/>
<polygon fill="#95BADA" points="19,34.731 19,36.6 20,36.192 20,34.323 "/>
<polygon fill="#95BADA" points="19,37.751 19,39.612 20,39.218 20,37.357 "/>
<polygon fill="#95BADA" points="18,32.415 18,34.292 18,33.87 18,31.992 "/>
<polygon fill="#95BADA" points="11,34.947 11,36.824 12,36.543 12,34.666 "/>
<polygon fill="#95BADA" points="11,67.293 11,69.116 12,68.899 12,67.075 "/>
<polygon fill="#95BADA" points="11,61.394 11,63.225 12,62.998 12,61.167 "/>
<polygon fill="#95BADA" points="11,73.193 11,75.009 12,74.8 12,72.984 "/>
<polygon fill="#95BADA" points="11,76.177 11,77.993 12,77.785 12,75.968 "/>
<polygon fill="#95BADA" points="11,58.479 11,60.316 12,60.081 12,58.242 "/>
<polygon fill="#95BADA" points="11,70.208 11,72.025 12,71.816 12,70 "/>
<polygon fill="#95BADA" points="11,64.309 11,66.132 12,65.916 12,64.091 "/>
<polygon fill="#95BADA" points="11,40.779 11,42.64 12,42.377 12,40.515 "/>
<polygon fill="#95BADA" points="11,55.562 11,57.408 12,57.164 12,55.317 "/>
<polygon fill="#95BADA" points="19.341,106.886 19.341,108.661 20.442,108.457 20.442,106.683 "/>
<polygon fill="#95BADA" points="11,43.694 11,45.547 12,45.293 12,43.44 "/>
<polygon fill="#95BADA" points="11,52.579 11,54.424 12,54.179 12,52.333 "/>
<polygon fill="#95BADA" points="11,49.525 11,51.364 12,51.127 12,49.289 "/>
<polygon fill="#95BADA" points="11,46.61 11,48.455 12,48.21 12,46.365 "/>
<polygon fill="#95BADA" points="11,37.106 11,35.229 9,35.651 9,37.528 "/>
<polygon fill="#95BADA" points="11,98.584 11,96.802 9,97.033 9,98.816 "/>
<polygon fill="#95BADA" points="11,81.101 11,79.291 9,79.589 9,81.401 "/>
<polygon fill="#95BADA" points="11,78.202 11,76.385 9,76.698 9,78.515 "/>
<polygon fill="#95BADA" points="11,87.07 11,85.259 9,85.558 9,87.369 "/>
<polygon fill="#95BADA" points="25,65.934 25,67.751 29,66.605 29,64.787 "/>
<polygon fill="#95BADA" points="11,89.969 11,88.166 9,88.451 9,90.254 "/>
<polygon fill="#95BADA" points="11,84.085 11,82.275 9,82.574 9,84.384 "/>
<polygon fill="#95BADA" points="11,60.552 11,58.714 9,59.068 9,60.906 "/>
<polygon fill="#95BADA" points="11,54.669 11,52.824 9,53.191 9,55.036 "/>
<polygon fill="#95BADA" points="11,75.218 11,73.401 9,73.713 9,75.531 "/>
<polygon fill="#95BADA" points="11,63.451 11,61.62 9,61.96 9,63.791 "/>
<polygon fill="#95BADA" points="11,72.234 11,70.417 9,70.73 9,72.546 "/>
<polygon fill="#95BADA" points="11,69.334 11,67.51 9,67.837 9,69.661 "/>
<polygon fill="#95BADA" points="11,57.653 11,55.808 9,56.175 9,58.02 "/>
<polygon fill="#95BADA" points="16.039,116.428 16.039,118.191 16.59,118.082 16.59,116.321 "/>
<polygon fill="#95BADA" points="13.837,116.807 12.736,116.969 12.736,118.731 13.837,118.569 "/>
<polygon fill="#95BADA" points="15.489,116.537 14.388,116.699 14.388,118.46 15.489,118.299 "/>
<polygon fill="#95BADA" points="17.69,116.212 17.69,117.973 18.24,117.811 18.24,116.05 "/>
<polygon fill="#95BADA" points="19.341,109.871 19.341,111.644 20.442,111.44 20.442,109.667 "/>
<polygon fill="#95BADA" points="19.341,112.889 19.341,114.659 20.442,114.469 20.442,112.7 "/>
<polygon fill="#95BADA" points="20.442,115.78 19.341,115.942 19.341,117.704 20.442,117.542 "/>
<polygon fill="#95BADA" points="10.535,110.354 10.535,108.58 9.434,108.784 9.434,110.557 "/>
<polygon fill="#95BADA" points="11.085,117.185 11.085,118.948 11.636,118.839 11.636,117.078 "/>
<polygon fill="#95BADA" points="10.535,104.469 10.535,102.691 9.434,102.908 9.434,104.686 "/>
<polygon fill="#95BADA" points="10.535,101.485 10.535,99.707 9.434,99.923 9.434,101.702 "/>
<polygon fill="#95BADA" points="10.535,107.453 10.535,105.675 9.434,105.892 9.434,107.67 "/>
<polygon fill="#95BADA" points="10.535,119.056 10.535,117.293 9.434,117.456 9.434,119.217 "/>
<polygon fill="#95BADA" points="10.535,116.239 10.535,114.469 9.434,114.659 9.434,116.428 "/>
<polygon fill="#95BADA" points="10.535,113.338 10.535,111.564 9.434,111.768 9.434,113.541 "/>
<polygon fill="#95BADA" points="11,95.685 11,93.897 9,94.141 9,95.929 "/>
<polygon fill="#95BADA" points="25,41.588 25,43.434 29,42.086 29,40.241 "/>
<polygon fill="#95BADA" points="18,26.431 18,28.317 18,27.882 18,25.995 "/>
<polygon fill="#95BADA" points="25,38.485 25,40.338 29,38.941 29,37.088 "/>
<polygon fill="#95BADA" points="18,29.43 18,31.307 18,30.885 18,29.008 "/>
<polygon fill="#95BADA" points="19,28.726 19,30.603 20,30.181 20,28.304 "/>
<polygon fill="#95BADA" points="25,26.193 25,28.071 29,26.523 29,24.646 "/>
<polygon fill="#95BADA" points="25,32.28 25,34.149 29,32.651 29,30.783 "/>
<polygon fill="#95BADA" points="25,56.746 25,58.577 29,57.33 29,55.499 "/>
<polygon fill="#95BADA" points="31,60.287 42.001,61.161 42.001,59.415 31,58.541 "/>
<polygon fill="#95BADA" points="31,63.271 42.001,64.145 42.001,62.399 31,61.525 "/>
<polygon fill="#95BADA" points="25,47.557 25,49.402 29,48.055 29,46.21 "/>
<polygon fill="#95BADA" points="25,44.69 25,46.529 29,45.231 29,43.394 "/>
<polygon fill="#95BADA" points="25,50.542 25,52.386 29,51.039 29,49.194 "/>
<polygon fill="#95BADA" points="25,53.644 25,55.481 29,54.185 29,52.347 "/>
<polygon fill="#95BADA" points="11,42.903 11,41.042 9,41.437 9,43.298 "/>
<polygon fill="#95BADA" points="11,40.004 11,38.135 9,38.544 9,40.413 "/>
<polygon fill="#95BADA" points="19,49.762 19,51.607 20,51.24 20,49.394 "/>
<polygon fill="#95BADA" points="11,34.122 11,32.245 9,32.667 9,34.544 "/>
<polygon fill="#95BADA" points="11,31.224 11,29.337 9,29.773 9,31.66 "/>
<polygon fill="#95BADA" points="11,48.7 11,46.855 9,47.222 9,49.067 "/>
<polygon fill="#95BADA" points="11,45.802 11,43.949 9,44.33 9,46.183 "/>
<polygon fill="#95BADA" points="11,51.599 11,49.761 9,50.115 9,51.953 "/>
<polygon fill="#95BADA" points="18,20.449 18,22.344 18,21.894 18,20 "/>
<polygon fill="#95BADA" points="16,21.048 16,22.943 17,22.645 17,20.749 "/>
<polygon fill="#95BADA" points="14,21.798 14,23.693 15,23.243 15,21.348 "/>
<polygon fill="#95BADA" points="18,23.448 18,25.333 18,24.898 18,23.012 "/>
<polygon fill="#95BADA" points="11,28.24 11,26.353 9,26.789 9,28.676 "/>
<polygon fill="#95BADA" points="9,25.791 11,25.34 11,23.446 9,23.896 "/>
<polygon fill="#95BADA" points="13,22.547 13,24.442 14,23.992 14,22.098 "/>
<polygon fill="#95BADA" points="11,23.146 11,25.041 12,24.742 12,22.846 "/>
<polygon fill="#95BADA" points="11,37.863 11,39.732 12,39.46 12,37.59 "/>
<polygon fill="#95BADA" points="14,87.119 14,88.924 15,88.638 15,86.833 "/>
<polygon fill="#95BADA" points="14,81.178 14,82.989 15,82.69 15,80.879 "/>
<polygon fill="#95BADA" points="14,84.163 14,85.973 15,85.674 15,83.864 "/>
<polygon fill="#95BADA" points="14,78.195 14,80.004 15,79.706 15,77.895 "/>
<polygon fill="#95BADA" points="14,93 14,94.789 15,94.544 15,92.756 "/>
<polygon fill="#95BADA" points="14,51.477 14,53.321 15,52.955 15,51.109 "/>
<polygon fill="#95BADA" points="14,90.074 14,91.873 15,91.601 15,89.803 "/>
<polygon fill="#95BADA" points="14,75.238 14,77.055 15,76.744 15,74.926 "/>
<polygon fill="#95BADA" points="14,72.253 14,74.071 15,73.759 15,71.942 "/>
<polygon fill="#95BADA" points="14,57.417 14,59.255 15,58.901 15,57.062 "/>
<polygon fill="#95BADA" points="14,54.461 14,56.306 15,55.939 15,54.093 "/>
<polygon fill="#95BADA" points="16.039,98.55 16.039,100.327 16.59,100.183 16.59,98.405 "/>
<polygon fill="#95BADA" points="14,66.314 14,68.137 15,67.812 15,65.987 "/>
<polygon fill="#95BADA" points="14,63.33 14,65.152 15,64.828 15,63.002 "/>
<polygon fill="#95BADA" points="14,95.957 14,97.739 15,97.509 15,95.726 "/>
<polygon fill="#95BADA" points="18,65.334 18,67.158 18,66.833 18,65.008 "/>
<polygon fill="#95BADA" points="18,68.332 18,70.149 18,69.836 18,68.02 "/>
<polygon fill="#95BADA" points="18,71.316 18,73.133 18,72.821 18,71.004 "/>
<polygon fill="#95BADA" points="18,62.35 18,64.173 18,63.848 18,62.023 "/>
<polygon fill="#95BADA" points="18,74.3 18,76.118 18,75.804 18,73.988 "/>
<polygon fill="#95BADA" points="17.69,98.26 17.69,100.039 18.24,99.822 18.24,98.043 "/>
<polygon fill="#95BADA" points="18,59.353 18,61.184 18,60.843 18,59.013 "/>
<polygon fill="#95BADA" points="18,56.355 18,58.194 18,57.839 18,56.001 "/>
<polygon fill="#95BADA" points="18,92.268 18,94.056 18,93.812 18,92.024 "/>
<polygon fill="#95BADA" points="18,95.264 18,97.047 18,96.816 18,95.034 "/>
<polygon fill="#95BADA" points="18,89.259 18,91.058 18,90.787 18,88.987 "/>
<polygon fill="#95BADA" points="18,80.282 18,82.092 18,81.792 18,79.982 "/>
<polygon fill="#95BADA" points="18,86.262 18,88.067 18,87.782 18,85.977 "/>
<polygon fill="#95BADA" points="18,83.265 18,85.077 18,84.777 18,82.966 "/>
<polygon fill="#95BADA" points="14.388,101.896 14.388,103.673 15.489,103.457 15.489,101.678 "/>
<polygon fill="#95BADA" points="16.039,89.622 16.039,91.42 16.59,91.239 16.59,89.44 "/>
<polygon fill="#95BADA" points="16.039,86.643 16.039,88.448 16.59,88.258 16.59,86.453 "/>
<polygon fill="#95BADA" points="16.039,92.594 16.039,94.381 16.59,94.219 16.59,92.431 "/>
<polygon fill="#95BADA" points="16.039,95.572 16.039,97.355 16.59,97.201 16.59,95.417 "/>
<polygon fill="#95BADA" points="16,77.696 16,79.507 17,79.307 17,77.497 "/>
<polygon fill="#95BADA" points="16,83.664 16,85.475 17,85.276 17,83.465 "/>
<polygon fill="#95BADA" points="16,74.717 16,76.534 17,76.325 17,74.509 "/>
<polygon fill="#95BADA" points="16,80.68 16,82.491 17,82.292 17,80.481 "/>
<polygon fill="#95BADA" points="6,51.412 4,51.766 4,53.604 6,53.25 "/>
<polygon fill="#95BADA" points="6,51.177 6,53.015 7,52.661 7,50.823 "/>
<polygon fill="#95BADA" points="31,119.281 42.001,120.468 42.001,118.718 31,117.53 "/>
<polygon fill="#95BADA" points="15.489,109.405 15.489,107.631 14.388,107.835 14.388,109.608 "/>
<polygon fill="#95BADA" points="14.388,104.88 14.388,106.658 15.489,106.441 15.489,104.663 "/>
<polygon fill="#95BADA" points="18,53.358 18,55.203 18,54.836 18,52.991 "/>
<polygon fill="#95BADA" points="14.388,98.912 14.388,100.689 15.489,100.472 15.489,98.695 "/>
<polygon fill="#95BADA" points="16,38.936 16,40.797 17,40.534 17,38.673 "/>
<polygon fill="#95BADA" points="16,41.916 16,43.769 17,43.515 17,41.662 "/>
<polygon fill="#95BADA" points="16,44.896 16,46.741 17,46.496 17,44.65 "/>
<polygon fill="#95BADA" points="16,71.733 16,73.549 17,73.341 17,71.525 "/>
<polygon fill="#95BADA" points="14,45.508 14,47.354 15,46.986 15,45.141 "/>
<polygon fill="#95BADA" points="16,47.875 16,49.712 17,49.477 17,47.639 "/>
<polygon fill="#95BADA" points="14,42.551 14,44.404 15,44.023 15,42.169 "/>
<polygon fill="#95BADA" points="14,39.595 14,41.456 15,41.061 15,39.2 "/>
<polygon fill="#95BADA" points="14,48.464 14,50.302 15,49.948 15,48.11 "/>
<polygon fill="#95BADA" points="16,62.786 16,64.609 17,64.392 17,62.568 "/>
<polygon fill="#95BADA" points="16,65.77 16,67.593 17,67.376 17,65.552 "/>
<polygon fill="#95BADA" points="16,68.749 16,70.565 17,70.357 17,68.541 "/>
<polygon fill="#95BADA" points="16,59.807 16,61.638 17,61.411 17,59.58 "/>
<polygon fill="#95BADA" points="16,53.848 16,55.694 17,55.448 17,53.603 "/>
<polygon fill="#95BADA" points="16,50.863 16,52.709 17,52.464 17,50.619 "/>
<polygon fill="#95BADA" points="16,56.827 16,58.666 17,58.43 17,56.591 "/>
<polygon fill="#95BADA" points="19,79.783 19,81.594 20,81.294 20,79.484 "/>
<polygon fill="#95BADA" points="16.039,104.518 16.039,106.296 16.59,106.151 16.59,104.374 "/>
<polygon fill="#95BADA" points="16.039,101.535 16.039,103.311 16.59,103.167 16.59,101.389 "/>
<polygon fill="#95BADA" points="16.039,110.48 16.039,112.254 16.59,112.119 16.59,110.344 "/>
<polygon fill="#95BADA" points="20.442,100.667 19.341,100.883 19.341,102.662 20.442,102.444 "/>
<polygon fill="#95BADA" points="19.341,97.899 19.341,99.677 20.442,99.459 20.442,97.682 "/>
<polygon fill="#95BADA" points="15.489,110.616 14.388,110.819 14.388,112.593 15.489,112.39 "/>
<polygon fill="#95BADA" points="17.69,101.245 17.69,103.023 18.24,102.805 18.24,101.028 "/>
<polygon fill="#95BADA" points="13.837,109.744 13.837,107.97 12.736,108.174 12.736,109.947 "/>
<polygon fill="#95BADA" points="13.837,112.728 13.837,110.955 12.736,111.158 12.736,112.931 "/>
<polygon fill="#95BADA" points="13,93.409 13,95.197 14,94.953 14,93.164 "/>
<polygon fill="#95BADA" points="13.837,100.834 13.837,99.056 12.736,99.273 12.736,101.051 "/>
<polygon fill="#95BADA" points="13,90.528 13,92.326 14,92.053 14,90.255 "/>
<polygon fill="#95BADA" points="13.837,103.818 13.837,102.041 12.736,102.257 12.736,104.035 "/>
<polygon fill="#95BADA" points="19,94.879 19,96.663 20,96.433 20,94.65 "/>
<polygon fill="#95BADA" points="13.837,106.802 13.837,105.024 12.736,105.242 12.736,107.019 "/>
<polygon fill="#95BADA" points="13,96.34 13,98.124 14,97.892 14,96.111 "/>
<polyline fill="#95BADA" points="29,60.35 29,58.651 25,59.848 25,61.35 "/>
<polygon fill="#95BADA" points="29,61.635 25,62.832 25,64.656 29,63.459 "/>
<polygon fill="#95BADA" points="19,64.791 19,66.614 20,66.288 20,64.464 "/>
<polygon fill="#95BADA" points="19,58.786 19,60.617 20,60.276 20,58.446 "/>
<polygon fill="#95BADA" points="19,55.766 19,57.604 20,57.25 20,55.412 "/>
<polygon fill="#95BADA" points="19,67.811 19,69.627 20,69.314 20,67.498 "/>
<polygon fill="#95BADA" points="19,61.807 19,63.629 20,63.304 20,61.479 "/>
<polygon fill="#95BADA" points="19,76.798 19,78.61 20,78.311 20,76.5 "/>
<polygon fill="#95BADA" points="19,85.787 19,87.592 20,87.306 20,85.502 "/>
<polygon fill="#95BADA" points="19,88.806 19,90.605 20,90.333 20,88.535 "/>
<polygon fill="#95BADA" points="19,82.768 19,84.578 20,84.279 20,82.467 "/>
<polygon fill="#95BADA" points="19,70.794 19,72.612 20,72.299 20,70.482 "/>
<polygon fill="#95BADA" points="19,73.78 19,75.596 20,75.284 20,73.466 "/>
<polygon fill="#95BADA" points="19,91.861 19,93.648 20,93.405 20,91.616 "/>
<polygon fill="#95BADA" points="19,52.746 19,54.591 20,54.225 20,52.378 "/>
<polygon fill="#95BADA" points="18,38.41 18,40.271 18,39.876 18,38.015 "/>
<polygon fill="#95BADA" points="14,27.739 14,29.625 15,29.19 15,27.303 "/>
<polygon fill="#95BADA" points="14,33.681 14,35.558 15,35.136 15,33.259 "/>
<polygon fill="#95BADA" points="14,30.696 14,32.573 15,32.151 15,30.274 "/>
<polygon fill="#95BADA" points="13,28.465 13,30.351 14,29.916 14,28.029 "/>
<polygon fill="#95BADA" points="13,31.4 13,33.277 14,32.855 14,30.978 "/>
<polygon fill="#95BADA" points="13,34.384 13,36.262 14,35.839 14,33.962 "/>
<polygon fill="#95BADA" points="16,35.957 16,37.826 17,37.554 17,35.684 "/>
<polygon fill="#95BADA" points="18,44.405 18,46.251 18,45.883 18,44.038 "/>
<polygon fill="#95BADA" points="13,87.594 13,89.399 14,89.114 14,87.309 "/>
<polygon fill="#95BADA" points="18,50.374 18,52.219 18,51.852 18,50.007 "/>
<polygon fill="#95BADA" points="13,40.252 13,42.113 14,41.718 14,39.857 "/>
<polygon fill="#95BADA" points="14,36.637 14,38.506 15,38.098 15,36.229 "/>
<polygon fill="#95BADA" points="18,47.403 18,49.241 18,48.887 18,47.049 "/>
<polygon fill="#95BADA" points="13,72.776 13,74.592 14,74.28 14,72.462 "/>
<polygon fill="#95BADA" points="13,75.759 13,77.577 14,77.264 14,75.448 "/>
<polygon fill="#95BADA" points="13,69.792 13,71.608 14,71.295 14,69.478 "/>
<polygon fill="#95BADA" points="13,81.677 13,83.488 14,83.189 14,81.377 "/>
<polygon fill="#95BADA" points="13,84.662 13,86.472 14,86.172 14,84.362 "/>
<polygon fill="#95BADA" points="13,66.858 13,68.681 14,68.355 14,66.531 "/>
<polygon fill="#95BADA" points="13,63.873 13,65.697 14,65.371 14,63.547 "/>
<polygon fill="#95BADA" points="13,49.054 13,50.892 14,50.538 14,48.7 "/>
<polygon fill="#95BADA" points="13,46.121 13,47.965 14,47.599 14,45.752 "/>
<polygon fill="#95BADA" points="13,43.186 13,45.04 14,44.658 14,42.805 "/>
<polygon fill="#95BADA" points="13,52.088 13,53.935 14,53.566 14,51.721 "/>
<polygon fill="#95BADA" points="13,55.073 13,56.918 14,56.551 14,54.706 "/>
<polygon fill="#95BADA" points="13,60.94 13,62.771 14,62.43 14,60.6 "/>
<polygon fill="#95BADA" points="13,58.007 13,59.845 14,59.491 14,57.653 "/>
<polygon fill="#95BADA" points="25,29.178 25,31.056 29,29.508 29,27.629 "/>
<polygon fill="#95BADA" points="6,76.677 6,74.86 4,75.173 4,76.99 "/>
<polygon fill="#95BADA" points="6,79.662 6,77.844 4,78.158 4,79.974 "/>
<polygon fill="#95BADA" points="6,73.693 6,71.875 4,72.189 4,74.005 "/>
<polygon fill="#95BADA" points="6,82.497 6,80.686 4,80.985 4,82.796 "/>
<polygon fill="#95BADA" points="6,85.481 6,83.67 4,83.969 4,85.78 "/>
<polygon fill="#95BADA" points="6,91.301 6,89.498 4,89.782 4,91.586 "/>
<polygon fill="#95BADA" points="6,94.137 6,92.338 4,92.61 4,94.41 "/>
<polygon fill="#95BADA" points="6,70.858 6,69.034 4,69.361 4,71.184 "/>
<polygon fill="#95BADA" points="6,88.465 6,86.655 4,86.954 4,88.764 "/>
<polygon fill="#95BADA" points="6,56.384 6,54.538 4,54.906 4,56.75 "/>
<polygon fill="#95BADA" points="6,50.415 6,48.57 4,48.937 4,50.782 "/>
<polygon fill="#95BADA" points="6,47.58 6,45.727 4,46.108 4,47.961 "/>
<polygon fill="#95BADA" points="6,65.038 6,63.207 4,63.547 4,65.378 "/>
<polygon fill="#95BADA" points="6,67.873 6,66.049 4,66.376 4,68.199 "/>
<polygon fill="#95BADA" points="6,62.203 6,60.365 4,60.719 4,62.557 "/>
<polygon fill="#95BADA" points="29,104.921 25,105.667 25,107.44 29,106.695 "/>
<polygon fill="#95BADA" points="6,96.825 6,95.037 4,95.281 4,97.069 "/>
<polygon fill="#95BADA" points="5.582,126.86 4.48,127.009 4.48,128.767 5.582,128.618 "/>
<polygon fill="#95BADA" points="5.582,125.633 5.582,123.875 4.48,124.025 4.48,125.783 "/>
<polygon fill="#95BADA" points="5.582,122.65 5.582,120.891 4.48,121.041 4.48,122.798 "/>
<polygon fill="#95BADA" points="5.582,119.813 5.582,118.051 4.48,118.212 4.48,119.975 "/>
<polygon fill="#95BADA" points="7.232,126.613 6.132,126.761 6.132,128.519 7.232,128.371 "/>
<polygon fill="#95BADA" points="10.535,126.167 9.434,126.316 9.434,128.074 10.535,127.924 "/>
<polygon fill="#95BADA" points="8.333,126.513 8.333,128.272 8.884,128.173 8.884,126.414 "/>
<polygon fill="#95BADA" points="5.582,105.481 5.582,103.704 4.48,103.92 4.48,105.699 "/>
<polygon fill="#95BADA" points="5.582,102.498 5.582,100.719 4.48,100.936 4.48,102.714 "/>
<polygon fill="#95BADA" points="6,44.746 6,42.884 4,43.279 4,45.141 "/>
<polygon fill="#95BADA" points="5.582,117.124 5.582,115.354 4.48,115.543 4.48,117.313 "/>
<polygon fill="#95BADA" points="6,99.661 6,97.878 4,98.109 4,99.892 "/>
<polygon fill="#95BADA" points="5.582,114.287 5.582,112.513 4.48,112.716 4.48,114.49 "/>
<polygon fill="#95BADA" points="5.582,108.465 5.582,106.687 4.48,106.905 4.48,108.682 "/>
<polygon fill="#95BADA" points="5.582,111.302 5.582,109.529 4.48,109.733 4.48,111.505 "/>
<polygon fill="#95BADA" points="15.489,122.489 14.388,122.638 14.388,124.396 15.489,124.248 "/>
<polygon fill="#95BADA" points="17.69,122.192 17.69,123.951 18.24,123.802 18.24,122.044 "/>
<polygon fill="#95BADA" points="31,109.601 42.001,110.476 42.001,108.73 31,107.855 "/>
<polygon fill="#95BADA" points="20.442,121.795 19.341,121.945 19.341,123.703 20.442,123.554 "/>
<polygon fill="#95BADA" points="18,11.482 18,13.386 18,12.924 18,11.018 "/>
<polygon fill="#95BADA" points="31,20.128 42.001,21.316 42.001,19.566 31,18.377 "/>
<polygon fill="#95BADA" points="19,10.71 19,12.614 20,12.152 20,10.247 "/>
<polygon fill="#95BADA" points="25,9.835 29,8.138 29,6.232 25,7.931 "/>
<polygon fill="#95BADA" points="29,120.508 25,121.053 25,122.811 29,122.266 "/>
<polygon fill="#95BADA" points="10.535,123.182 9.434,123.332 9.434,125.089 10.535,124.941 "/>
<polygon fill="#95BADA" points="6,41.911 6,40.042 4,40.451 4,42.32 "/>
<polygon fill="#95BADA" points="16.039,122.39 16.039,124.149 16.59,124.05 16.59,122.292 "/>
<polygon fill="#95BADA" points="7.232,125.386 7.232,123.628 6.132,123.777 6.132,125.536 "/>
<polygon fill="#95BADA" points="11.085,126.068 11.085,127.827 11.636,127.727 11.636,125.968 "/>
<polygon fill="#95BADA" points="13.837,122.737 12.736,122.886 12.736,124.644 13.837,124.495 "/>
<polygon fill="#95BADA" points="11.085,123.083 11.085,124.842 11.636,124.743 11.636,122.984 "/>
<polygon fill="#95BADA" points="6,27.438 6,25.543 4,25.994 4,27.889 "/>
<polygon fill="#95BADA" points="6,24.604 6,22.701 4,23.164 4,25.068 "/>
<polygon fill="#95BADA" points="6,30.273 6,28.387 4,28.822 4,30.709 "/>
<polygon fill="#95BADA" points="6,33.258 6,31.371 4,31.807 4,33.694 "/>
<polygon fill="#95BADA" points="6,39.076 6,37.199 4,37.621 4,39.498 "/>
<polygon fill="#95BADA" points="6,36.092 6,34.215 4,34.637 4,36.514 "/>
<polygon fill="#95BADA" points="6,21.621 6,19.716 4,20.18 4,22.083 "/>
<polygon fill="#95BADA" points="13,13.644 13,15.548 14,15.085 14,13.18 "/>
<polygon fill="#95BADA" points="16,12.1 16,14.003 17,13.696 17,11.791 "/>
<polygon fill="#95BADA" points="11,14.261 11,16.166 12,15.857 12,13.953 "/>
<polygon fill="#95BADA" points="14,12.872 14,14.776 15,14.314 15,12.408 "/>
<polygon fill="#95BADA" points="6,16.423 6,18.327 7,17.864 7,15.96 "/>
<polygon fill="#95BADA" points="9,16.938 11,16.475 11,14.57 9,15.034 "/>
<polygon fill="#95BADA" points="4,19.1 6,18.637 6,16.732 4,17.195 "/>
<polygon fill="#95BADA" points="8,15.651 8,17.555 9,17.247 9,15.342 "/>
<polygon fill="#95BADA" points="13.837,125.721 12.736,125.87 12.736,127.628 13.837,127.479 "/>
<polygon fill="#95BADA" points="14,6.93 14,8.844 15,8.367 15,6.453 "/>
<polygon fill="#95BADA" points="16,6.135 16,8.049 17,7.731 17,5.817 "/>
<polygon fill="#95BADA" points="15.489,128.458 14.388,128.607 14.388,130.365 15.489,130.215 "/>
<polygon fill="#95BADA" points="18,5.5 18,7.413 18,6.936 18,5.023 "/>
<polygon fill="#95BADA" points="8,9.792 8,11.705 9,11.388 9,9.473 "/>
<polygon fill="#95BADA" points="19,4.704 19,6.618 20,6.141 20,4.229 "/>
<polygon fill="#95BADA" points="9,11.069 11,10.592 11,8.679 9,9.155 "/>
<polygon fill="#95BADA" points="11,8.361 11,10.274 12,9.957 12,8.043 "/>
<polygon fill="#95BADA" points="17.69,128.161 17.69,129.918 18.24,129.77 18.24,128.012 "/>
<polygon fill="#95BADA" points="20.442,127.764 19.341,127.914 19.341,129.671 20.442,129.523 "/>
<polygon fill="#95BADA" points="6,10.587 6,12.5 7,12.023 7,10.11 "/>
<polygon fill="#95BADA" points="16.039,128.359 16.039,130.117 16.59,130.018 16.59,128.26 "/>
<polygon fill="#95BADA" points="31,128.263 42.001,129.766 42.001,128.01 31,126.508 "/>
<polygon fill="#95BADA" points="31,0 31,1.762 42.001,3.579 42.001,1.817 "/>
<polygon fill="#95BADA" points="25,1.843 25,3.757 29,2.009 29,0.094 "/>
<polygon fill="#95BADA" points="29,126.477 25,127.022 25,128.78 29,128.236 "/>
<polygon fill="#95BADA" points="13,7.725 13,9.639 14,9.162 14,7.249 "/>
<polygon fill="#95BADA" points="20.442,130.749 19.341,130.898 19.341,132.656 20.442,132.506 "/>
<polygon fill="#95BADA" points="29,129.461 25,130.006 25,131.764 29,131.219 "/>
<polygon fill="#95BADA" points="17.69,131.145 17.69,132.903 18.24,132.754 18.24,130.997 "/>
<polygon fill="#95BADA" points="31,131.248 42.001,132.75 42.001,130.995 31,129.492 "/>
<polygon fill="#95BADA" points="16.039,131.343 16.039,133.101 16.59,133.002 16.59,131.245 "/>
<rect x="1" y="14.35" fill="#95BADA" width="1" height="121"/>
<polygon fill="#95BADA" points="4,13.295 6,12.818 6,10.904 4,11.381 "/>
<path fill="#95BADA" d="M0,135.35v-119V135.35z"/>
<polygon fill="#95BADA" points="8.333,132.482 8.333,134.241 8.884,134.142 8.884,132.382 "/>
<polygon fill="#95BADA" points="6.132,132.729 6.132,134.489 7.233,134.339 7.233,132.582 "/>
<polygon fill="#95BADA" points="4.48,132.978 4.48,134.736 5.582,134.586 5.582,132.829 "/>
<polygon fill="#95BADA" points="11.085,132.037 11.085,133.794 11.636,133.695 11.636,131.937 "/>
<polygon fill="#95BADA" points="13.837,131.69 12.736,131.838 12.736,133.596 13.837,133.448 "/>
<polygon fill="#95BADA" points="15.489,131.442 14.388,131.591 14.388,133.349 15.489,133.2 "/>
<polygon fill="#95BADA" points="10.535,132.135 9.434,132.285 9.434,134.042 10.535,133.893 "/>
<polygon fill="#95BADA" points="31,16.97 42.001,18.158 42.001,16.408 31,15.219 "/>
<polygon fill="#95BADA" points="31,13.843 42.001,15.345 42.001,13.589 31,12.087 "/>
<polygon fill="#95BADA" points="31,112.821 42.001,114.323 42.001,112.568 31,111.064 "/>
<polygon fill="#95BADA" points="31,10.858 42.001,12.36 42.001,10.605 31,9.103 "/>
<polygon fill="#95BADA" points="13.837,128.706 12.736,128.854 12.736,130.613 13.837,130.463 "/>
<polygon fill="#95BADA" points="31,116.122 42.001,117.311 42.001,115.561 31,114.372 "/>
<polygon fill="#95BADA" points="31,7.874 42.001,9.376 42.001,7.621 31,6.118 "/>
<polygon fill="#95BADA" points="15.489,125.473 14.388,125.623 14.388,127.38 15.489,127.231 "/>
<polygon fill="#95BADA" points="16.039,125.375 16.039,127.132 16.59,127.034 16.59,125.276 "/>
<polygon fill="#95BADA" points="31,122.295 42.001,123.797 42.001,122.042 31,120.54 "/>
<polygon fill="#95BADA" points="17.69,125.176 17.69,126.934 18.24,126.786 18.24,125.029 "/>
<polygon fill="#95BADA" points="25,6.742 29,4.993 29,3.08 25,4.828 "/>
<polygon fill="#95BADA" points="31,125.279 42.001,126.782 42.001,125.026 31,123.524 "/>
<polygon fill="#95BADA" points="29,123.493 25,124.038 25,125.795 29,125.25 "/>
<polygon fill="#95BADA" points="20.442,124.78 19.341,124.929 19.341,126.687 20.442,126.539 "/>
<polygon fill="#95BADA" points="31,4.747 42.001,6.563 42.001,4.802 31,2.984 "/>
<polygon fill="#95BADA" points="7.232,129.597 6.132,129.746 6.132,131.503 7.232,131.355 "/>
<polygon fill="#95BADA" points="6,13.57 6,15.484 7,15.007 7,13.094 "/>
<polygon fill="#95BADA" points="4,16.279 6,15.802 6,13.888 4,14.365 "/>
<polygon fill="#95BADA" points="5.582,129.844 4.48,129.994 4.48,131.751 5.582,131.602 "/>
<polygon fill="#95BADA" points="11.085,129.052 11.085,130.811 11.636,130.711 11.636,128.953 "/>
<polygon fill="#95BADA" points="8.333,129.498 8.333,131.256 8.884,131.158 8.884,129.398 "/>
<polygon fill="#95BADA" points="11,11.345 11,13.258 12,12.941 12,11.027 "/>
<polygon fill="#95BADA" points="16,9.12 16,11.033 17,10.716 17,8.802 "/>
<polygon fill="#95BADA" points="14,9.915 14,11.829 15,11.352 15,9.438 "/>
<polygon fill="#95BADA" points="18,8.484 18,10.397 18,9.92 18,8.007 "/>
<polygon fill="#95BADA" points="13,10.709 13,12.623 14,12.146 14,10.232 "/>
<polygon fill="#95BADA" points="9,14.054 11,13.577 11,11.663 9,12.14 "/>
<polygon fill="#95BADA" points="8,12.775 8,14.689 9,14.373 9,12.458 "/>
<polygon fill="#95BADA" points="19,7.688 19,9.603 20,9.125 20,7.213 "/>
<polygon fill="#95BADA" points="6,59.368 6,57.522 4,57.89 4,59.735 "/>
<polygon fill="#95BADA" points="8.333,109.055 8.333,110.828 8.884,110.693 8.884,108.918 "/>
<polygon fill="#95BADA" points="8.333,91.705 8.333,93.502 8.884,93.322 8.884,91.523 "/>
<polygon fill="#95BADA" points="8.333,88.831 8.333,90.635 8.884,90.446 8.884,88.641 "/>
<polygon fill="#95BADA" points="8.333,97.34 8.333,99.124 8.884,98.969 8.884,97.186 "/>
<polygon fill="#95BADA" points="8.333,103.198 8.333,104.974 8.884,104.831 8.884,103.052 "/>
<polygon fill="#95BADA" points="8.333,106.182 8.333,107.96 8.884,107.815 8.884,106.037 "/>
<polygon fill="#95BADA" points="8.333,100.213 8.333,101.99 8.884,101.846 8.884,100.068 "/>
<polygon fill="#95BADA" points="8,85.958 8,87.768 9,87.568 9,85.757 "/>
<polygon fill="#95BADA" points="8.333,94.466 8.333,96.254 8.884,96.091 8.884,94.303 "/>
<polygon fill="#95BADA" points="8,82.973 8,84.784 9,84.583 9,82.773 "/>
<polygon fill="#95BADA" points="8,65.288 8,67.111 9,66.895 9,65.07 "/>
<polygon fill="#95BADA" points="8,71.146 8,72.963 9,72.755 9,70.938 "/>
<polygon fill="#95BADA" points="8,68.272 8,70.095 9,69.878 9,68.054 "/>
<polygon fill="#95BADA" points="8,62.414 8,64.245 9,64.018 9,62.187 "/>
<polygon fill="#95BADA" points="8,77.115 8,78.932 9,78.723 9,76.906 "/>
<polygon fill="#95BADA" points="8,79.989 8,81.799 9,81.599 9,79.79 "/>
<polygon fill="#95BADA" points="29,117.524 25,118.069 25,119.828 29,119.282 "/>
<polygon fill="#95BADA" points="20.442,118.812 19.341,118.96 19.341,120.719 20.442,120.57 "/>
<polygon fill="#95BADA" points="17.69,119.208 17.69,120.966 18.24,120.818 18.24,119.06 "/>
<polygon fill="#95BADA" points="16.039,119.406 16.039,121.165 16.59,121.066 16.59,119.307 "/>
<polygon fill="#95BADA" points="25,114.969 25,116.73 29,116.136 29,114.374 "/>
<polygon fill="#95BADA" points="25,108.651 25,110.424 29,109.679 29,107.906 "/>
<polygon fill="#95BADA" points="15.489,119.505 14.388,119.654 14.388,121.412 15.489,121.263 "/>
<polygon fill="#95BADA" points="8.333,112.04 8.333,113.812 8.884,113.677 8.884,111.903 "/>
<polygon fill="#95BADA" points="8.333,114.912 8.333,116.681 8.884,116.555 8.884,114.785 "/>
<polygon fill="#95BADA" points="8.333,120.545 8.333,122.303 8.884,122.204 8.884,120.446 "/>
<polygon fill="#95BADA" points="8.333,117.672 8.333,119.434 8.884,119.327 8.884,117.564 "/>
<polygon fill="#95BADA" points="13.837,119.752 12.736,119.902 12.736,121.66 13.837,121.51 "/>
<polygon fill="#95BADA" points="11.085,120.099 11.085,121.858 11.636,121.758 11.636,120 "/>
<polygon fill="#95BADA" points="10.535,120.199 9.434,120.347 9.434,122.105 10.535,121.957 "/>
<polygon fill="#95BADA" points="19,25.705 19,27.591 20,27.156 20,25.269 "/>
<polygon fill="#95BADA" points="19,16.679 19,18.583 20,18.12 20,16.216 "/>
<polygon fill="#95BADA" points="19,22.721 19,24.606 20,24.171 20,22.286 "/>
<polygon fill="#95BADA" points="18,17.451 18,19.355 18,18.892 18,16.987 "/>
<polygon fill="#95BADA" points="14,18.841 14,20.745 15,20.282 15,18.376 "/>
<polygon fill="#95BADA" points="16,18.068 16,19.972 17,19.665 17,17.759 "/>
<polygon fill="#95BADA" points="31,97.432 42.001,98.375 42.001,96.633 31,95.691 "/>
<polygon fill="#95BADA" points="31,66.429 42.001,67.304 42.001,65.558 31,64.683 "/>
<polygon fill="#95BADA" points="25,23.09 25,24.976 29,23.378 29,21.492 "/>
<polygon fill="#95BADA" points="13,19.613 13,21.517 14,21.054 14,19.149 "/>
<polygon fill="#95BADA" points="8,59.54 8,61.377 9,61.142 9,59.304 "/>
<polygon fill="#95BADA" points="31,41.858 42.001,42.733 42.001,40.987 31,40.113 "/>
<polygon fill="#95BADA" points="31,45.017 42.001,45.892 42.001,44.145 31,43.271 "/>
<polygon fill="#95BADA" points="8,47.712 8,49.558 9,49.312 9,47.468 "/>
<polygon fill="#95BADA" points="8,44.838 8,46.691 9,46.436 9,44.583 "/>
<polygon fill="#95BADA" points="8,39.089 8,40.957 9,40.686 9,38.816 "/>
<polygon fill="#95BADA" points="8,41.963 8,43.824 9,43.562 9,41.699 "/>
<polygon fill="#95BADA" points="8,50.586 8,52.425 9,52.189 9,50.35 "/>
<polygon fill="#95BADA" points="8,56.665 8,58.511 9,58.266 9,56.42 "/>
<polygon fill="#95BADA" points="8,21.62 8,23.524 9,23.216 9,21.311 "/>
<polygon fill="#95BADA" points="11,20.23 11,22.134 12,21.826 12,19.921 "/>
<polygon fill="#95BADA" points="8,24.495 8,26.39 9,26.09 9,24.195 "/>
<polygon fill="#95BADA" points="8,36.213 8,38.09 9,37.81 9,35.932 "/>
<polygon fill="#95BADA" points="9,22.906 11,22.443 11,20.538 9,21.002 "/>
<polygon fill="#95BADA" points="8,30.354 8,32.24 9,31.95 9,30.063 "/>
<polygon fill="#95BADA" points="31,47.857 42.001,49.045 42.001,47.295 31,46.106 "/>
<polygon fill="#95BADA" points="6,54.293 6,56.138 7,55.771 7,53.926 "/>
<polygon fill="#95BADA" points="6,60.129 6,61.967 7,61.613 7,59.775 "/>
<polygon fill="#95BADA" points="6,22.392 6,24.296 7,23.833 7,21.928 "/>
<polygon fill="#95BADA" points="6,48.325 6,50.17 7,49.803 7,47.958 "/>
<polygon fill="#95BADA" points="6,62.98 6,64.811 7,64.471 7,62.64 "/>
<polygon fill="#95BADA" points="6,68.817 6,70.64 7,70.314 7,68.49 "/>
<polygon fill="#95BADA" points="6,65.832 6,67.655 7,67.33 7,65.505 "/>
<polygon fill="#95BADA" points="6,25.244 6,27.139 7,26.689 7,24.795 "/>
<polygon fill="#95BADA" points="6,31.081 6,32.967 7,32.532 7,30.645 "/>
<polygon fill="#95BADA" points="6,28.096 6,29.982 7,29.547 7,27.66 "/>
<polygon fill="#95BADA" points="6,42.621 6,44.482 7,44.087 7,42.226 "/>
<polygon fill="#95BADA" points="6,71.667 6,73.484 7,73.172 7,71.355 "/>
<polygon fill="#95BADA" points="6,33.933 6,35.81 7,35.388 7,33.511 "/>
<polygon fill="#95BADA" points="6,39.769 6,41.638 7,41.23 7,39.36 "/>
<polygon fill="#95BADA" points="6,36.917 6,38.794 7,38.372 7,36.495 "/>
<polygon fill="#95BADA" points="7.232,105.12 7.232,103.342 6.132,103.559 6.132,105.336 "/>
<polygon fill="#95BADA" points="7.232,102.135 7.232,100.358 6.132,100.575 6.132,102.353 "/>
<polygon fill="#95BADA" points="7.232,108.104 7.232,106.326 6.132,106.543 6.132,108.321 "/>
<polygon fill="#95BADA" points="7.232,116.807 7.232,115.039 6.132,115.227 6.132,116.998 "/>
<polygon fill="#95BADA" points="6,97.725 6,99.507 7,99.277 7,97.494 "/>
<polygon fill="#95BADA" points="6,74.652 6,76.468 7,76.157 7,74.339 "/>
<polygon fill="#95BADA" points="6,94.875 6,96.662 7,96.418 7,94.629 "/>
<polygon fill="#95BADA" points="6,83.471 6,85.283 7,84.982 7,83.171 "/>
<polygon fill="#95BADA" points="6,77.636 6,79.453 7,79.14 7,77.324 "/>
<polygon fill="#95BADA" points="6,80.487 6,82.298 7,81.998 7,80.188 "/>
<polygon fill="#95BADA" points="6,92.158 6,93.957 7,93.684 7,91.885 "/>
<polygon fill="#95BADA" points="6,89.307 6,91.111 7,90.825 7,89.021 "/>
<polygon fill="#95BADA" points="6,86.455 6,88.266 7,87.967 7,86.156 "/>
<polygon fill="#95BADA" points="31,69.443 42.001,70.632 42.001,68.881 31,67.693 "/>
<polygon fill="#95BADA" points="31,50.841 42.001,52.03 42.001,50.28 31,49.091 "/>
<polygon fill="#95BADA" points="31,32.414 42.001,33.602 42.001,31.852 31,30.664 "/>
<polygon fill="#95BADA" points="7.232,119.542 7.232,117.781 6.132,117.943 6.132,119.705 "/>
<polygon fill="#95BADA" points="6,19.408 6,21.312 7,20.849 7,18.944 "/>
<polygon fill="#95BADA" points="31,38.701 42.001,39.575 42.001,37.829 31,36.954 "/>
<polygon fill="#95BADA" points="31,53.97 42.001,54.844 42.001,53.098 31,52.224 "/>
<polygon fill="#95BADA" points="31,87.871 42.001,89.06 42.001,87.31 31,86.121 "/>
<polygon fill="#95BADA" points="31,91.173 42.001,92.047 42.001,90.301 31,89.427 "/>
<polygon fill="#95BADA" points="31,94.303 42.001,95.21 42.001,93.468 31,92.56 "/>
<polygon fill="#95BADA" points="31,84.712 42.001,85.901 42.001,84.151 31,82.962 "/>
<polygon fill="#95BADA" points="31,78.57 42.001,79.758 42.001,78.008 31,76.82 "/>
<polygon fill="#95BADA" points="31,81.554 42.001,82.743 42.001,80.993 31,79.804 "/>
<polygon fill="#95BADA" points="31,75.585 42.001,76.775 42.001,75.024 31,73.835 "/>
<polygon fill="#95BADA" points="31,35.572 42.001,36.76 42.001,35.01 31,33.821 "/>
<polygon fill="#95BADA" points="13,16.628 13,18.532 14,18.069 14,16.166 "/>
<polygon fill="#95BADA" points="16,15.084 16,16.988 17,16.68 17,14.775 "/>
<polygon fill="#95BADA" points="14,15.856 14,17.76 15,17.297 15,15.392 "/>
<polygon fill="#95BADA" points="11,17.246 11,19.15 12,18.842 12,16.937 "/>
<polygon fill="#95BADA" points="31,103.458 42.001,104.333 42.001,102.586 31,101.712 "/>
<polygon fill="#95BADA" points="31,23.113 42.001,24.301 42.001,22.551 31,21.362 "/>
<polygon fill="#95BADA" points="19,13.694 19,15.599 20,15.136 20,13.23 "/>
<polygon fill="#95BADA" points="31,26.271 42.001,27.459 42.001,25.709 31,24.521 "/>
<polygon fill="#95BADA" points="25,20.106 25,21.992 29,20.394 29,18.508 "/>
<polygon fill="#95BADA" points="25,17.003 25,18.898 29,17.25 29,15.355 "/>
<polygon fill="#95BADA" points="25,10.915 25,12.82 29,11.121 29,9.217 "/>
<polygon fill="#95BADA" points="25,13.899 25,15.804 29,14.105 29,12.201 "/>
</svg>
