<?xml version="1.0" encoding="utf-8"?>
<!-- Generator: Adobe Illustrator 16.0.0, SVG Export Plug-In . SVG Version: 6.00 Build 0)  -->
<!DOCTYPE svg PUBLIC "-//W3C//DTD SVG 1.1//EN" "http://www.w3.org/Graphics/SVG/1.1/DTD/svg11.dtd">
<svg version="1.1" id="Layer_1" xmlns="http://www.w3.org/2000/svg" xmlns:xlink="http://www.w3.org/1999/xlink" x="0px" y="0px"
	 width="49.473px" height="192.378px" viewBox="0 0 49.473 192.378" enable-background="new 0 0 49.473 192.378"
	 xml:space="preserve">
<polygon fill="#085DA8" points="21.362,131.237 14.9,131.857 14.9,132.906 21.298,132.293 22.9,132.68 22.9,131.61 "/>
<polygon fill="#085DA8" points="21.362,120.114 14.9,120.734 14.9,121.783 21.298,121.169 22.9,121.557 22.9,120.487 "/>
<polygon fill="#085DA8" points="21.362,122.899 14.9,123.52 14.9,124.568 21.298,123.955 22.9,124.342 22.9,123.272 "/>
<polygon fill="#085DA8" points="21.362,150.45 14.9,151.07 14.9,152.119 21.298,151.506 22.9,151.893 22.9,150.823 "/>
<polygon fill="#085DA8" points="21.352,117.163 14.899,118.055 14.899,119.108 21.309,118.223 22.899,118.608 22.899,117.539 "/>
<polygon fill="#085DA8" points="4.9,117.796 11.9,116.907 11.9,115.854 4.9,116.742 "/>
<polygon fill="#085DA8" points="21.352,114.541 14.899,115.433 14.899,116.486 21.309,115.601 22.899,115.986 22.899,114.917 "/>
<polygon fill="#085DA8" points="14.9,126.368 14.9,127.417 21.298,126.804 22.9,127.19 22.9,126.121 21.362,125.748 "/>
<polygon fill="#085DA8" points="21.362,144.961 14.9,145.581 14.9,146.63 21.298,146.017 22.9,146.403 22.9,145.334 "/>
<polygon fill="#085DA8" points="21.362,142.216 14.9,142.836 14.9,143.885 21.298,143.271 22.9,143.658 22.9,142.589 "/>
<polygon fill="#085DA8" points="14.9,148.326 14.9,149.375 21.298,148.761 22.9,149.147 22.9,148.079 21.362,147.706 "/>
<polygon fill="#085DA8" points="21.362,139.472 14.9,140.092 14.9,141.141 21.298,140.526 22.9,140.914 22.9,139.845 "/>
<polygon fill="#085DA8" points="4.9,113.942 4.9,115 11.9,113.975 11.9,112.918 "/>
<polygon fill="#085DA8" points="21.362,136.727 14.9,137.347 14.9,138.396 21.298,137.782 22.9,138.169 22.9,137.1 "/>
<polygon fill="#085DA8" points="21.362,133.982 14.9,134.602 14.9,135.651 21.298,135.037 22.9,135.424 22.9,134.355 "/>
<polygon fill="#085DA8" points="4.9,92.162 4.9,93.221 11.9,92.124 11.9,91.065 "/>
<polygon fill="#085DA8" points="4.9,81.507 4.9,82.574 11.9,81.201 11.9,80.134 "/>
<polygon fill="#085DA8" points="4.9,78.783 4.9,79.85 11.9,78.46 11.9,77.393 "/>
<polygon fill="#085DA8" points="4.9,86.715 4.9,87.775 11.9,86.642 11.9,85.582 "/>
<polygon fill="#085DA8" points="4.9,76.06 4.9,77.127 11.9,75.719 11.9,74.65 "/>
<polygon fill="#085DA8" points="4.9,89.438 4.9,90.497 11.9,89.383 11.9,88.323 "/>
<polygon fill="#085DA8" points="4.9,67.889 4.9,68.959 11.9,67.496 11.9,66.426 "/>
<polygon fill="#085DA8" points="4.9,73.336 4.9,74.404 11.9,72.979 11.9,71.909 "/>
<polygon fill="#085DA8" points="4.9,70.612 4.9,71.681 11.9,70.237 11.9,69.167 "/>
<polygon fill="#085DA8" points="4.9,100.332 4.9,101.39 11.9,100.348 11.9,99.289 "/>
<polygon fill="#085DA8" points="21.368,153.37 14.899,153.854 14.899,154.902 21.292,154.424 22.899,154.812 22.899,153.742 "/>
<polygon fill="#085DA8" points="4.9,108.545 4.9,109.603 11.9,108.577 11.9,107.521 "/>
<polygon fill="#085DA8" points="4.9,103.056 4.9,104.112 11.9,103.088 11.9,102.031 "/>
<polygon fill="#085DA8" points="4.9,111.157 4.9,112.215 11.9,111.189 11.9,110.133 "/>
<polygon fill="#085DA8" points="4.9,94.885 4.9,95.943 11.9,94.865 11.9,93.806 "/>
<polygon fill="#085DA8" points="4.9,84.071 4.9,85.133 11.9,83.914 11.9,82.852 "/>
<polygon fill="#085DA8" points="11.9,149.667 11.9,148.618 4.9,149.236 4.9,150.285 "/>
<polygon fill="#085DA8" points="21.368,156.115 14.899,156.599 14.899,157.646 21.292,157.168 22.899,157.556 22.899,156.487 "/>
<polygon fill="#085DA8" points="11.9,141.434 11.9,140.384 4.9,141.002 4.9,142.051 "/>
<polygon fill="#085DA8" points="11.9,144.178 11.9,143.129 4.9,143.747 4.9,144.796 "/>
<polygon fill="#085DA8" points="11.9,160.62 11.9,159.573 4.9,160.055 4.9,161.102 "/>
<polygon fill="#085DA8" points="11.9,157.875 11.9,156.828 4.9,157.31 4.9,158.357 "/>
<polygon fill="#085DA8" points="11.9,155.13 11.9,154.083 4.9,154.565 4.9,155.612 "/>
<polygon fill="#085DA8" points="11.9,133.199 11.9,132.15 4.9,132.768 4.9,133.817 "/>
<polygon fill="#085DA8" points="4.9,119.364 4.9,120.418 11.9,119.529 11.9,118.476 "/>
<polygon fill="#085DA8" points="11.9,127.71 11.9,126.66 4.9,127.278 4.9,128.327 "/>
<polygon fill="#085DA8" points="11.9,124.861 11.9,123.812 4.9,124.431 4.9,125.479 "/>
<polygon fill="#085DA8" points="11.9,138.688 11.9,137.64 4.9,138.258 4.9,139.307 "/>
<polygon fill="#085DA8" points="11.9,122.076 11.9,121.027 4.9,121.645 4.9,122.694 "/>
<polygon fill="#085DA8" points="11.9,135.943 11.9,134.895 4.9,135.513 4.9,136.562 "/>
<polygon fill="#085DA8" points="11.9,130.454 11.9,129.405 4.9,130.023 4.9,131.072 "/>
<polygon fill="#085DA8" points="11.9,152.412 11.9,151.363 4.9,151.981 4.9,153.03 "/>
<polygon fill="#085DA8" points="14.9,178.558 14.9,179.604 21.293,179.125 22.9,179.515 22.9,178.445 21.368,178.073 "/>
<polygon fill="#085DA8" points="21.368,169.839 14.899,170.323 14.899,171.371 21.292,170.892 22.899,171.28 22.899,170.211 "/>
<polygon fill="#085DA8" points="21.368,167.094 14.899,167.578 14.899,168.626 21.292,168.146 22.899,168.535 22.899,167.466 "/>
<polygon fill="#085DA8" points="11.9,166.109 11.9,165.062 4.9,165.544 4.9,166.591 "/>
<polygon fill="#085DA8" points="21.368,172.583 14.899,173.067 14.899,174.115 21.292,173.637 22.899,174.024 22.899,172.955 "/>
<polygon fill="#085DA8" points="21.368,161.604 14.899,162.089 14.899,163.137 21.292,162.657 22.899,163.046 22.899,161.977 "/>
<polygon fill="#085DA8" points="21.368,164.35 14.899,164.833 14.899,165.881 21.292,165.402 22.899,165.79 22.899,164.721 "/>
<polygon fill="#085DA8" points="21.368,175.328 14.899,175.812 14.899,176.86 21.292,176.381 22.899,176.77 22.899,175.7 "/>
<polygon fill="#085DA8" points="11.9,174.344 11.9,173.296 4.9,173.778 4.9,174.825 "/>
<polygon fill="#085DA8" points="11.9,171.599 11.9,170.552 4.9,171.033 4.9,172.081 "/>
<polygon fill="#085DA8" points="11.9,168.854 11.9,167.807 4.9,168.289 4.9,169.336 "/>
<polygon fill="#085DA8" points="11.9,177.088 11.9,176.041 4.9,176.523 4.9,177.57 "/>
<polygon fill="#085DA8" points="22.9,182.259 22.9,181.189 21.368,180.817 14.9,181.302 14.9,182.349 21.293,181.87 "/>
<polygon fill="#085DA8" points="11.9,181.53 4.9,182.013 4.9,183.06 11.9,182.577 "/>
<polygon fill="#085DA8" points="11.9,179.833 11.9,178.786 4.9,179.268 4.9,180.314 "/>
<polygon fill="#085DA8" points="21.364,41.948 14.899,43.693 14.899,44.773 21.38,43.046 22.981,43.742 22.899,43.617 
	22.899,42.636 "/>
<polygon fill="#085DA8" points="21.372,50.276 14.899,51.837 14.899,52.911 21.374,51.369 22.98,52.066 22.899,51.942 
	22.899,50.961 "/>
<polygon fill="#085DA8" points="21.363,39.013 14.899,40.781 14.899,41.862 21.381,40.112 22.981,40.807 22.899,40.682 
	22.899,39.702 "/>
<polygon fill="#085DA8" points="21.368,47.565 14.9,49.212 14.9,50.288 21.376,48.66 22.981,49.357 22.9,49.232 22.9,48.252 "/>
<polygon fill="#085DA8" points="21.361,28.1 14.9,29.94 14.9,31.024 21.384,29.201 22.98,29.895 22.9,29.77 22.9,28.79 "/>
<polygon fill="#085DA8" points="21.363,36.284 14.9,38.07 14.9,39.152 21.382,37.384 22.98,38.078 22.9,37.954 22.9,36.973 "/>
<polygon fill="#085DA8" points="21.361,30.828 14.899,32.65 14.899,33.733 21.383,31.928 22.981,32.623 22.899,32.498 
	22.899,31.517 "/>
<polygon fill="#085DA8" points="21.362,33.557 14.9,35.36 14.9,36.442 21.383,34.656 22.981,35.351 22.9,35.227 22.9,34.246 "/>
<polygon fill="#085DA8" points="21.365,44.708 14.9,46.44 14.9,47.521 21.38,45.807 22.981,46.501 22.9,46.377 22.9,45.396 "/>
<polygon fill="#085DA8" points="21.375,67.03 14.9,68.483 14.9,69.552 21.369,68.12 22.98,68.819 22.9,68.694 22.9,67.714 "/>
<polygon fill="#085DA8" points="21.372,53.189 14.899,54.732 14.899,55.805 21.372,54.281 22.981,54.979 22.899,54.855 
	22.899,53.874 "/>
<polygon fill="#085DA8" points="21.377,72.566 14.9,73.983 14.9,75.051 21.368,73.654 22.981,74.354 22.9,74.23 22.9,73.25 "/>
<polygon fill="#085DA8" points="21.375,64.262 14.9,65.733 14.9,66.803 21.37,65.351 22.981,66.051 22.9,65.927 22.9,64.946 "/>
<polygon fill="#085DA8" points="21.378,75.334 14.9,76.733 14.9,77.802 21.367,76.422 22.98,77.123 22.9,76.999 22.9,76.018 "/>
<polygon fill="#085DA8" points="21.375,61.494 14.899,62.983 14.899,64.054 21.37,62.584 22.981,63.283 22.899,63.159 
	22.899,62.178 "/>
<polygon fill="#085DA8" points="21.373,55.957 14.9,57.483 14.9,58.554 21.372,57.048 22.981,57.747 22.9,57.623 22.9,56.642 "/>
<polygon fill="#085DA8" points="21.374,58.726 14.899,60.232 14.899,61.303 21.372,59.816 22.98,60.516 22.899,60.391 
	22.899,59.411 "/>
<polygon fill="#085DA8" points="21.376,69.798 14.899,71.233 14.899,72.302 21.368,70.887 22.981,71.587 22.899,71.462 
	22.899,70.482 "/>
<polygon fill="#085DA8" points="4.9,187.461 4.9,188.509 11.9,188.026 11.9,186.979 "/>
<polygon fill="#085DA8" points="11.9,189.765 4.9,190.246 4.9,191.294 11.9,190.812 "/>
<polygon fill="#085DA8" points="4.9,62.442 4.9,63.513 11.9,62.014 11.9,60.943 "/>
<polygon fill="#085DA8" points="4.9,9.56 11.9,7.293 11.9,6.189 4.9,8.456 "/>
<polygon fill="#085DA8" points="14.899,2.363 14.899,3.469 21.485,1.135 22.95,1.904 22.899,1.734 22.899,0.785 21.464,0.007 "/>
<polygon fill="#085DA8" points="22.9,189.424 21.368,189.052 14.9,189.536 14.9,190.584 21.293,190.104 22.9,190.493 "/>
<polygon fill="#085DA8" points="14.9,5.115 14.9,6.219 21.401,3.958 22.981,4.646 22.9,4.521 22.9,3.541 21.345,2.845 "/>
<polygon fill="#085DA8" points="22.9,187.708 22.9,186.639 21.368,186.267 14.9,186.751 14.9,187.798 21.293,187.318 "/>
<polygon fill="#085DA8" points="21.352,14.108 14.9,16.172 14.9,17.266 21.392,15.216 22.981,15.906 22.9,15.782 22.9,14.801 "/>
<polygon fill="#085DA8" points="21.353,16.837 14.9,18.883 14.9,19.976 21.392,17.944 22.981,18.635 22.9,18.51 22.9,17.53 "/>
<polygon fill="#085DA8" points="21.354,19.565 14.899,21.593 14.899,22.685 21.392,20.671 22.981,21.363 22.899,21.238 
	22.899,20.257 "/>
<polygon fill="#085DA8" points="21.354,22.293 14.9,24.303 14.9,25.395 21.39,23.399 22.981,24.091 22.9,23.966 22.9,22.985 "/>
<polygon fill="#085DA8" points="21.349,11.205 14.9,13.354 14.9,14.452 21.396,12.315 22.981,13.005 22.9,12.88 22.9,11.899 "/>
<polygon fill="#085DA8" points="21.349,8.477 14.899,10.644 14.899,11.742 21.396,9.587 22.981,10.276 22.899,10.151 22.899,9.171 
	"/>
<polygon fill="#085DA8" points="21.36,25.372 14.9,27.229 14.9,28.314 21.385,26.474 22.981,27.167 22.9,27.042 22.9,26.062 "/>
<polygon fill="#085DA8" points="21.345,5.574 14.9,7.826 14.9,8.929 21.4,6.687 22.981,7.375 22.9,7.25 22.9,6.27 "/>
<polygon fill="#085DA8" points="4.9,5.769 4.9,6.875 11.9,4.564 11.9,3.458 "/>
<polygon fill="#085DA8" points="4.9,29.958 4.9,31.043 11.9,29.191 11.9,28.107 "/>
<polygon fill="#085DA8" points="4.9,32.642 4.9,33.726 11.9,31.892 11.9,30.809 "/>
<polygon fill="#085DA8" points="4.9,35.325 4.9,36.408 11.9,34.593 11.9,33.51 "/>
<polygon fill="#085DA8" points="4.9,27.258 4.9,28.35 11.9,26.344 11.9,25.253 "/>
<polygon fill="#085DA8" points="4.9,24.574 4.9,25.667 11.9,23.644 11.9,22.551 "/>
<polygon fill="#085DA8" points="4.9,38.009 4.9,39.091 11.9,37.294 11.9,36.212 "/>
<polygon fill="#085DA8" points="4.9,19.207 4.9,20.301 11.9,18.242 11.9,17.148 "/>
<polygon fill="#085DA8" points="4.9,16.515 4.9,17.613 11.9,15.468 11.9,14.37 "/>
<polygon fill="#085DA8" points="4.9,21.891 4.9,22.983 11.9,20.942 11.9,19.85 "/>
<polygon fill="#085DA8" points="4.9,40.693 4.9,41.774 11.9,39.995 11.9,38.914 "/>
<polygon fill="#085DA8" points="4.9,54.126 4.9,55.2 11.9,53.646 11.9,52.574 "/>
<polygon fill="#085DA8" points="4.9,59.719 4.9,60.79 11.9,59.272 11.9,58.202 "/>
<polygon fill="#085DA8" points="4.9,51.627 4.9,52.703 11.9,51.064 11.9,49.988 "/>
<polygon fill="#085DA8" points="4.9,56.995 4.9,58.067 11.9,56.532 11.9,55.46 "/>
<polygon fill="#085DA8" points="4.9,48.983 4.9,50.062 11.9,48.337 11.9,47.258 "/>
<polygon fill="#085DA8" points="4.9,43.376 4.9,44.458 11.9,42.696 11.9,41.616 "/>
<polygon fill="#085DA8" points="4.9,46.252 4.9,47.333 11.9,45.595 11.9,44.516 "/>
<polygon fill="#085DA8" points="11.9,184.275 4.9,184.757 4.9,185.804 11.9,185.322 "/>
<polygon fill="#085DA8" points="21.389,89.439 14.9,90.545 14.9,91.604 21.356,90.518 22.981,91.224 22.9,91.099 22.9,90.118 "/>
<polygon fill="#085DA8" points="21.39,92.208 14.899,93.295 14.899,94.354 21.355,93.286 22.98,93.991 22.899,93.867 22.899,92.886 
	"/>
<polygon fill="#085DA8" points="21.39,94.976 14.899,96.045 14.899,97.103 21.354,96.053 22.981,96.759 22.899,96.634 
	22.899,95.654 "/>
<polygon fill="#085DA8" points="21.391,97.744 14.9,98.796 14.9,99.853 21.354,98.82 22.981,99.527 22.9,99.402 22.9,98.422 "/>
<polygon fill="#085DA8" points="21.384,81.047 14.9,82.274 14.9,83.337 21.36,82.129 22.981,82.833 22.9,82.708 22.9,81.728 "/>
<polygon fill="#085DA8" points="21.392,100.513 14.899,101.546 14.899,102.603 21.354,101.589 22.98,102.295 22.899,102.171 
	22.899,101.189 "/>
<polygon fill="#085DA8" points="21.388,86.672 14.9,87.795 14.9,88.854 21.356,87.75 22.981,88.456 22.9,88.331 22.9,87.351 "/>
<polygon fill="#085DA8" points="21.388,83.904 14.899,85.046 14.899,86.104 21.357,84.983 22.981,85.688 22.899,85.562 
	22.899,84.583 "/>
<polygon fill="#085DA8" points="21.392,108.614 14.899,109.647 14.899,110.704 21.354,109.69 22.98,110.396 22.899,110.272 
	22.899,109.291 "/>
<polygon fill="#085DA8" points="21.378,78.103 14.899,79.484 14.899,80.551 21.366,79.19 22.981,79.891 22.899,79.766 
	22.899,78.786 "/>
<polygon fill="#085DA8" points="4.9,11.14 4.9,12.243 11.9,9.994 11.9,8.891 "/>
<polygon fill="#085DA8" points="22.9,185.004 22.9,183.935 21.368,183.562 14.9,184.047 14.9,185.094 21.293,184.614 "/>
<polygon fill="#085DA8" points="21.392,106.002 14.899,107.035 14.899,108.092 21.354,107.078 22.98,107.784 22.899,107.66 
	22.899,106.68 "/>
<polygon fill="#085DA8" points="21.392,111.399 14.899,112.433 14.899,113.489 21.354,112.476 22.98,113.182 22.899,113.058 
	22.899,112.077 "/>
<polygon fill="#085DA8" points="4.9,13.832 4.9,14.93 11.9,12.768 11.9,11.668 "/>
<polygon fill="#085DA8" points="27.548,132.296 32.9,133.122 32.9,132.065 27.589,131.249 27.495,131.234 25.9,131.582 
	25.9,132.651 "/>
<polygon fill="#085DA8" points="27.548,135.041 32.9,135.866 32.9,134.81 27.589,133.993 27.495,133.979 25.9,134.326 25.9,135.396 
	"/>
<polygon fill="#085DA8" points="32.899,127.633 32.899,126.575 27.59,125.76 27.496,125.745 25.899,126.092 25.899,127.16 
	27.548,126.807 "/>
<polygon fill="#085DA8" points="27.548,129.551 32.9,130.377 32.9,129.32 27.589,128.504 27.495,128.489 25.9,128.837 25.9,129.906 
	"/>
<polygon fill="#085DA8" points="27.548,137.785 32.9,138.611 32.9,137.555 27.589,136.738 27.495,136.724 25.9,137.071 
	25.9,138.141 "/>
<polygon fill="#085DA8" points="27.548,146.02 32.9,146.846 32.9,145.788 27.589,144.973 27.495,144.958 25.9,145.306 25.9,146.375 
	"/>
<polygon fill="#085DA8" points="27.548,143.274 32.9,144.101 32.9,143.044 27.589,142.228 27.495,142.213 25.9,142.561 25.9,143.63 
	"/>
<polygon fill="#085DA8" points="27.548,140.53 32.9,141.356 32.9,140.299 27.589,139.483 27.495,139.468 25.9,139.816 25.9,140.885 
	"/>
<polygon fill="#085DA8" points="27.578,107.084 32.9,108.232 32.9,107.163 27.486,105.995 25.9,106.625 25.9,107.75 "/>
<polygon fill="#085DA8" points="27.548,121.173 32.9,121.999 32.9,120.941 27.589,120.126 27.495,120.11 25.9,120.459 25.9,121.528 
	"/>
<polygon fill="#085DA8" points="27.578,104.34 32.9,105.487 32.9,104.419 27.486,103.251 25.9,103.881 25.9,105.006 "/>
<polygon fill="#085DA8" points="27.578,109.696 32.9,110.845 32.9,109.775 27.486,108.607 25.9,109.237 25.9,110.362 "/>
<polygon fill="#085DA8" points="27.538,118.227 32.899,119.273 32.899,118.209 27.526,117.16 25.899,117.511 25.899,118.579 "/>
<polygon fill="#085DA8" points="27.578,112.481 32.9,113.63 32.9,112.561 27.486,111.393 25.9,112.022 25.9,113.149 "/>
<polygon fill="#085DA8" points="27.538,115.604 32.899,116.651 32.899,115.587 27.526,114.538 25.899,114.889 25.899,115.957 "/>
<polygon fill="#085DA8" points="27.548,123.958 32.9,124.784 32.9,123.728 27.589,122.911 27.495,122.896 25.9,123.244 
	25.9,124.313 "/>
<polygon fill="#085DA8" points="43.899,182.986 36.899,182.098 36.899,183.151 43.899,184.04 "/>
<polygon fill="#085DA8" points="32.899,182.59 32.899,181.535 27.511,180.814 25.899,181.16 25.899,182.229 27.554,181.874 "/>
<polygon fill="#085DA8" points="27.554,176.384 32.899,177.101 32.899,176.046 27.511,175.325 25.899,175.671 25.899,176.74 "/>
<polygon fill="#085DA8" points="36.899,179.353 36.899,180.406 43.899,181.296 43.899,180.241 "/>
<polygon fill="#085DA8" points="36.899,176.608 36.899,177.662 43.899,178.551 43.899,177.497 "/>
<polygon fill="#085DA8" points="36.899,171.118 36.899,172.173 43.899,173.062 43.899,172.008 "/>
<polygon fill="#085DA8" points="36.899,173.863 36.899,174.917 43.899,175.806 43.899,174.752 "/>
<polygon fill="#085DA8" points="27.554,154.427 32.899,155.143 32.899,154.089 27.511,153.367 25.899,153.714 25.899,154.782 "/>
<polygon fill="#085DA8" points="27.554,159.916 32.899,160.632 32.899,159.578 27.511,158.856 25.899,159.203 25.899,160.271 "/>
<polygon fill="#085DA8" points="27.554,157.171 32.899,157.887 32.899,156.833 27.511,156.112 25.899,156.458 25.899,157.527 "/>
<polygon fill="#085DA8" points="27.554,162.66 32.899,163.377 32.899,162.322 27.511,161.602 25.899,161.947 25.899,163.017 "/>
<polygon fill="#085DA8" points="27.548,151.509 32.9,152.335 32.9,151.278 27.589,150.462 27.495,150.447 25.9,150.795 
	25.9,151.864 "/>
<polygon fill="#085DA8" points="27.554,173.64 32.899,174.355 32.899,173.302 27.511,172.58 25.899,172.927 25.899,173.995 "/>
<polygon fill="#085DA8" points="27.554,170.895 32.899,171.61 32.899,170.557 27.511,169.836 25.899,170.182 25.899,171.251 "/>
<polygon fill="#085DA8" points="27.554,165.405 32.899,166.121 32.899,165.067 27.511,164.346 25.899,164.692 25.899,165.761 "/>
<polygon fill="#085DA8" points="27.578,101.595 32.9,102.742 32.9,101.674 27.486,100.506 25.9,101.136 25.9,102.261 "/>
<polygon fill="#085DA8" points="27.55,37.39 32.899,39.152 32.899,38.052 27.674,36.338 27.494,36.278 25.899,36.92 25.899,38.045 
	"/>
<polygon fill="#085DA8" points="27.548,31.935 32.9,33.726 32.9,32.625 27.516,30.823 25.9,31.464 25.9,32.59 "/>
<polygon fill="#085DA8" points="27.549,34.662 32.899,36.439 32.899,35.338 27.516,33.55 25.899,34.192 25.899,35.317 "/>
<polygon fill="#085DA8" points="27.551,43.052 32.9,44.78 32.9,43.682 27.514,41.942 25.9,42.582 25.9,43.708 "/>
<polygon fill="#085DA8" points="27.55,40.118 32.9,41.865 32.9,40.766 27.514,39.007 25.9,39.648 25.9,40.773 "/>
<polygon fill="#085DA8" points="27.558,51.375 32.9,52.952 32.9,51.863 27.506,50.27 25.9,50.908 25.9,52.033 "/>
<polygon fill="#085DA8" points="27.552,45.812 32.899,47.53 32.899,46.432 27.513,44.702 25.899,45.343 25.899,46.468 "/>
<polygon fill="#085DA8" points="27.555,48.666 32.899,50.313 32.899,49.22 27.509,47.559 25.899,48.198 25.899,49.323 "/>
<polygon fill="#085DA8" points="27.548,29.207 32.899,31.013 32.899,29.91 27.517,28.094 25.899,28.736 25.899,29.861 "/>
<polygon fill="#085DA8" points="27.54,17.95 32.899,19.927 32.899,18.813 27.524,16.831 25.899,17.476 25.899,18.601 "/>
<polygon fill="#085DA8" points="27.539,15.222 32.9,17.213 32.9,16.099 27.525,14.102 25.9,14.748 25.9,15.873 "/>
<polygon fill="#085DA8" points="27.536,12.321 32.899,14.384 32.899,13.264 27.529,11.199 25.899,11.846 25.899,12.971 "/>
<polygon fill="#085DA8" points="27.559,54.288 32.899,55.85 32.899,54.761 27.506,53.184 25.899,53.82 25.899,54.945 "/>
<polygon fill="#085DA8" points="32.899,11.67 32.899,10.55 27.528,8.47 25.899,9.117 25.899,10.242 27.535,9.593 "/>
<polygon fill="#085DA8" points="27.547,26.479 32.899,28.3 32.899,27.196 27.518,25.365 25.899,26.008 25.899,27.133 "/>
<polygon fill="#085DA8" points="27.541,23.405 32.899,25.353 32.899,24.24 27.523,22.286 25.899,22.931 25.899,24.057 "/>
<polygon fill="#085DA8" points="27.541,20.677 32.899,22.64 32.899,21.526 27.689,19.627 27.503,19.559 25.899,20.204 25.899,21.33 
	"/>
<polygon fill="#085DA8" points="27.576,93.292 32.9,94.484 32.9,93.413 27.624,92.237 27.468,92.202 25.9,92.833 25.9,93.958 "/>
<polygon fill="#085DA8" points="27.574,84.989 32.899,86.224 32.899,85.152 27.49,83.897 25.899,84.529 25.899,85.654 "/>
<polygon fill="#085DA8" points="27.574,87.757 32.899,88.978 32.899,87.906 27.489,86.666 25.899,87.297 25.899,88.422 "/>
<polygon fill="#085DA8" points="27.575,90.524 32.899,91.73 32.899,90.659 27.489,89.433 25.899,90.064 25.899,91.189 "/>
<polygon fill="#085DA8" points="27.571,82.136 32.899,83.441 32.899,82.365 27.493,81.041 25.899,81.674 25.899,82.799 "/>
<polygon fill="#085DA8" points="27.564,79.196 32.899,80.626 32.899,79.544 27.645,78.142 27.479,78.096 25.899,78.732 
	25.899,79.857 "/>
<polygon fill="#085DA8" points="27.577,96.06 32.899,97.236 32.899,96.167 27.623,95.004 27.467,94.971 25.899,95.601 
	25.899,96.726 "/>
<polygon fill="#085DA8" points="27.562,68.125 32.9,69.615 32.9,68.529 27.502,67.023 25.9,67.661 25.9,68.786 "/>
<polygon fill="#085DA8" points="27.561,62.59 32.899,64.108 32.899,63.022 27.504,61.488 25.899,62.124 25.899,63.25 "/>
<polygon fill="#085DA8" points="27.562,65.358 32.899,66.862 32.899,65.776 27.651,64.304 27.482,64.256 25.899,64.892 
	25.899,66.018 "/>
<polygon fill="#085DA8" points="27.564,76.428 32.9,77.873 32.9,76.791 27.5,75.328 25.9,75.964 25.9,77.089 "/>
<polygon fill="#085DA8" points="27.56,59.822 32.9,61.355 32.9,60.269 27.504,58.719 25.9,59.356 25.9,60.481 "/>
<polygon fill="#085DA8" points="27.563,73.661 32.899,75.121 32.899,74.037 27.5,72.561 25.899,73.195 25.899,74.321 "/>
<polygon fill="#085DA8" points="27.56,57.055 32.899,58.603 32.899,57.515 27.505,55.951 25.899,56.589 25.899,57.714 "/>
<polygon fill="#085DA8" points="27.562,70.893 32.899,72.367 32.899,71.283 27.502,69.792 25.899,70.428 25.899,71.553 "/>
<polygon fill="#085DA8" points="36.899,72.441 36.899,73.525 43.899,75.358 43.899,74.275 "/>
<polygon fill="#085DA8" points="36.899,39.433 36.899,40.533 43.899,42.719 43.899,41.619 "/>
<polygon fill="#085DA8" points="36.899,36.73 36.899,37.831 43.899,40.035 43.899,38.934 "/>
<polygon fill="#085DA8" points="36.899,42.135 36.899,43.234 43.899,45.402 43.899,44.303 "/>
<polygon fill="#085DA8" points="36.899,34.028 36.899,35.13 43.899,37.352 43.899,36.25 "/>
<polygon fill="#085DA8" points="36.899,45.036 36.899,46.134 43.899,48.278 43.899,47.18 "/>
<polygon fill="#085DA8" points="36.899,23.062 36.899,24.174 43.899,26.604 43.899,25.491 "/>
<polygon fill="#085DA8" points="36.899,25.764 36.899,26.876 43.899,29.288 43.899,28.176 "/>
<polygon fill="#085DA8" points="36.899,28.623 36.899,29.727 43.899,31.985 43.899,30.881 "/>
<polygon fill="#085DA8" points="36.899,31.325 36.899,32.428 43.899,34.668 43.899,33.565 "/>
<polygon fill="#085DA8" points="36.899,64.214 36.899,65.3 43.899,67.188 43.899,66.103 "/>
<polygon fill="#085DA8" points="36.899,58.73 36.899,59.818 43.899,61.742 43.899,60.654 "/>
<polygon fill="#085DA8" points="36.899,66.957 36.899,68.042 43.899,69.912 43.899,68.827 "/>
<polygon fill="#085DA8" points="36.899,47.779 36.899,48.876 43.899,51.008 43.899,49.911 "/>
<polygon fill="#085DA8" points="36.899,50.512 36.899,51.605 43.899,53.651 43.899,52.558 "/>
<polygon fill="#085DA8" points="36.899,53.101 36.899,54.19 43.899,56.15 43.899,55.061 "/>
<polygon fill="#085DA8" points="36.899,55.988 36.899,57.077 43.899,59.019 43.899,57.93 "/>
<polygon fill="#085DA8" points="32.899,185.334 32.899,184.28 27.511,183.56 25.899,183.905 25.899,184.975 27.554,184.618 "/>
<polygon fill="#085DA8" points="25.899,3.487 25.899,4.612 27.532,3.964 32.899,6.127 32.899,5 27.533,2.838 "/>
<polygon fill="#085DA8" points="43.899,10.49 43.899,9.363 36.899,6.689 36.899,7.816 "/>
<polygon fill="#085DA8" points="43.899,188.436 36.899,187.546 36.899,188.601 43.899,189.489 "/>
<polygon fill="#085DA8" points="32.899,189.771 27.511,189.048 25.899,189.396 25.899,190.464 27.554,190.108 32.899,190.824 "/>
<polygon fill="#085DA8" points="36.9,191.385 43.9,192.274 43.9,191.221 36.9,190.331 "/>
<polygon fill="#085DA8" points="36.899,5.089 43.899,7.805 43.899,6.676 36.899,3.96 "/>
<polygon fill="#085DA8" points="27.412,0 25.9,0.72 25.9,1.879 27.446,1.143 32.899,3.374 32.899,2.244 "/>
<polygon fill="#085DA8" points="43.899,185.73 36.899,184.842 36.899,185.896 43.899,186.785 "/>
<polygon fill="#085DA8" points="36.899,20.359 36.899,21.473 43.899,23.921 43.899,22.807 "/>
<polygon fill="#085DA8" points="36.899,17.656 36.899,18.771 43.899,21.237 43.899,20.123 "/>
<polygon fill="#085DA8" points="36.899,12.173 36.899,13.294 43.899,15.864 43.899,14.743 "/>
<polygon fill="#085DA8" points="36.899,14.875 36.899,15.996 43.899,18.547 43.899,17.428 "/>
<polygon fill="#085DA8" points="36.899,69.699 36.899,70.784 43.899,72.635 43.899,71.551 "/>
<polygon fill="#085DA8" points="25.899,6.216 25.899,7.341 27.532,6.693 32.899,8.841 32.899,7.715 27.532,5.568 "/>
<polygon fill="#085DA8" points="36.899,165.629 36.899,166.683 43.899,167.572 43.899,166.518 "/>
<polygon fill="#085DA8" points="36.899,9.393 36.899,10.518 43.899,13.173 43.899,12.048 "/>
<polygon fill="#085DA8" points="36.899,135.457 36.899,136.514 43.899,137.539 43.899,136.481 "/>
<polygon fill="#085DA8" points="36.899,138.201 36.899,139.259 43.899,140.283 43.899,139.227 "/>
<polygon fill="#085DA8" points="36.899,140.946 36.899,142.003 43.899,143.027 43.899,141.971 "/>
<polygon fill="#085DA8" points="36.899,124.374 36.899,125.432 43.899,126.456 43.899,125.399 "/>
<polygon fill="#085DA8" points="36.899,143.69 36.899,144.748 43.899,145.772 43.899,144.716 "/>
<polygon fill="#085DA8" points="36.899,127.223 36.899,128.279 43.899,129.304 43.899,128.248 "/>
<polygon fill="#085DA8" points="36.899,129.968 36.899,131.024 43.899,132.05 43.899,130.992 "/>
<polygon fill="#085DA8" points="36.899,121.589 36.899,122.646 43.899,123.671 43.899,122.614 "/>
<polygon fill="#085DA8" points="36.899,146.436 36.899,147.493 43.899,148.518 43.899,147.461 "/>
<polygon fill="#085DA8" points="36.899,160.14 36.899,161.193 43.899,162.083 43.899,161.028 "/>
<polygon fill="#085DA8" points="36.899,162.885 36.899,163.938 43.899,164.827 43.899,163.773 "/>
<polygon fill="#085DA8" points="36.899,157.395 36.899,158.448 43.899,159.338 43.899,158.284 "/>
<polygon fill="#085DA8" points="36.899,149.181 36.899,150.237 43.899,151.262 43.899,150.205 "/>
<polygon fill="#085DA8" points="36.899,75.184 36.899,76.267 43.899,78.083 43.899,77 "/>
<polygon fill="#085DA8" points="36.899,154.65 36.899,155.704 43.899,156.593 43.899,155.539 "/>
<polygon fill="#085DA8" points="36.899,97.093 36.899,98.163 43.899,99.632 43.899,98.562 "/>
<polygon fill="#085DA8" points="36.899,86.125 36.899,87.197 43.899,88.737 43.899,87.665 "/>
<polygon fill="#085DA8" points="36.899,91.609 36.899,92.68 43.899,94.184 43.899,93.113 "/>
<polygon fill="#085DA8" points="36.899,94.351 36.899,95.422 43.899,96.907 43.899,95.837 "/>
<polygon fill="#085DA8" points="36.899,88.867 36.899,89.939 43.899,91.46 43.899,90.389 "/>
<polygon fill="#085DA8" points="36.899,77.926 36.899,79.008 43.899,80.806 43.899,79.724 "/>
<polygon fill="#085DA8" points="36.899,80.668 36.899,81.75 43.899,83.529 43.899,82.447 "/>
<polygon fill="#085DA8" points="36.899,119.027 36.899,120.092 43.899,121.388 43.899,120.323 "/>
<polygon fill="#085DA8" points="36.899,113.465 36.899,114.534 43.899,115.965 43.899,114.897 "/>
<polygon fill="#085DA8" points="36.899,110.68 36.899,111.749 43.899,113.18 43.899,112.111 "/>
<polygon fill="#085DA8" points="36.899,116.405 36.899,117.47 43.899,118.766 43.899,117.701 "/>
<polygon fill="#085DA8" points="36.899,105.322 36.899,106.392 43.899,107.822 43.899,106.755 "/>
<polygon fill="#085DA8" points="36.899,102.578 36.899,103.646 43.899,105.078 43.899,104.009 "/>
<polygon fill="#085DA8" points="36.899,99.836 36.899,100.905 43.899,102.354 43.899,101.285 "/>
<polygon fill="#085DA8" points="36.899,108.067 36.899,109.137 43.899,110.567 43.899,109.499 "/>
<polygon fill="#085DA8" points="13.899,132.621 13.899,135.017 14.899,134.92 14.899,132.524 "/>
<polygon fill="#085DA8" points="13.899,127.133 13.899,129.527 14.899,129.431 14.899,127.035 "/>
<polygon fill="#085DA8" points="13.899,121.498 13.899,123.935 14.899,123.837 14.899,121.401 "/>
<polygon fill="#085DA8" points="13.899,118.851 13.899,121.149 14.899,121.052 14.899,118.711 "/>
<polygon fill="#085DA8" points="13.899,113.245 13.899,115.877 14.899,115.736 14.899,113.083 "/>
<polygon fill="#085DA8" points="13.899,116.228 13.899,118.5 14.899,118.359 14.899,116.088 "/>
<polygon fill="#085DA8" points="13.899,129.877 13.899,132.272 14.899,132.175 14.899,129.779 "/>
<polygon fill="#085DA8" points="12.9,146.509 12.9,148.903 13.9,148.806 13.9,146.41 "/>
<polygon fill="#085DA8" points="12.9,141.019 12.9,143.413 13.9,143.316 13.9,140.922 "/>
<polygon fill="#085DA8" points="12.9,143.764 12.9,146.158 13.9,146.062 13.9,143.666 "/>
<polygon fill="#085DA8" points="12.9,138.273 12.9,140.669 13.9,140.571 13.9,138.177 "/>
<polygon fill="#085DA8" points="13.899,138.111 13.899,140.507 14.899,140.409 14.899,138.014 "/>
<polygon fill="#085DA8" points="13.899,143.601 13.899,145.996 14.899,145.898 14.899,143.504 "/>
<polygon fill="#085DA8" points="13.899,140.855 13.899,143.252 14.899,143.153 14.899,140.759 "/>
<polygon fill="#085DA8" points="13.899,102.358 13.899,104.75 14.899,104.589 14.899,102.196 "/>
<polygon fill="#085DA8" points="13.899,91.366 13.899,93.762 14.899,93.591 14.899,91.193 "/>
<polygon fill="#085DA8" points="13.899,88.619 13.899,91.014 14.899,90.841 14.899,88.443 "/>
<polygon fill="#085DA8" points="13.899,94.114 13.899,96.51 14.899,96.342 14.899,93.944 "/>
<polygon fill="#085DA8" points="13.899,99.61 13.899,102.007 14.899,101.845 14.899,99.445 "/>
<polygon fill="#085DA8" points="13.899,96.863 13.899,99.258 14.899,99.093 14.899,96.696 "/>
<polygon fill="#085DA8" points="13.899,85.871 13.899,88.266 14.899,88.089 14.899,85.692 "/>
<polygon fill="#085DA8" points="13.899,80.34 13.899,82.757 14.899,82.564 14.899,80.123 "/>
<polygon fill="#085DA8" points="13.899,83.111 13.899,85.518 14.899,85.339 14.899,82.919 "/>
<polygon fill="#085DA8" points="12.9,102.628 12.9,105.021 13.9,104.858 13.9,102.466 "/>
<polygon fill="#085DA8" points="12.9,135.529 12.9,137.925 13.9,137.826 13.9,135.432 "/>
<polygon fill="#085DA8" points="13.899,110.46 13.899,112.893 14.899,112.731 14.899,110.298 "/>
<polygon fill="#085DA8" points="13.899,107.848 13.899,110.108 14.899,109.946 14.899,107.687 "/>
<polygon fill="#085DA8" points="12.9,99.885 12.9,102.275 13.9,102.114 13.9,99.72 "/>
<polygon fill="#085DA8" points="13.899,105.104 13.899,107.495 14.899,107.333 14.899,104.941 "/>
<polygon fill="#085DA8" points="12.9,108.117 12.9,110.377 13.9,110.215 13.9,107.955 "/>
<polygon fill="#085DA8" points="12.9,105.372 12.9,107.766 13.9,107.604 13.9,105.21 "/>
<polygon fill="#085DA8" points="12.9,154.73 12.9,157.126 13.9,157.05 13.9,154.655 "/>
<polygon fill="#085DA8" points="12.9,176.688 12.9,179.084 13.9,179.007 13.9,176.612 "/>
<polygon fill="#085DA8" points="12.9,171.199 12.9,173.594 13.9,173.519 13.9,171.123 "/>
<polygon fill="#085DA8" points="12.9,182.178 12.9,184.573 13.9,184.497 13.9,182.102 "/>
<polygon fill="#085DA8" points="12.9,173.943 12.9,176.339 13.9,176.264 13.9,173.867 "/>
<polygon fill="#085DA8" points="12.9,179.434 12.9,181.828 13.9,181.752 13.9,179.357 "/>
<polygon fill="#085DA8" points="13.899,182.051 13.899,184.446 14.899,184.37 14.899,181.975 "/>
<polygon fill="#085DA8" points="12.9,184.922 12.9,187.277 13.9,187.201 13.9,184.846 "/>
<polygon fill="#085DA8" points="13.899,184.796 13.899,187.15 14.899,187.074 14.899,184.72 "/>
<polygon fill="#085DA8" points="12.9,165.709 12.9,168.105 13.9,168.028 13.9,165.633 "/>
<polygon fill="#085DA8" points="12.9,157.475 12.9,159.871 13.9,159.794 13.9,157.399 "/>
<polygon fill="#085DA8" points="12.9,168.454 12.9,170.851 13.9,170.773 13.9,168.377 "/>
<polygon fill="#085DA8" points="12.9,151.998 12.9,154.382 13.9,154.306 13.9,151.899 "/>
<polygon fill="#085DA8" points="12.9,132.784 12.9,135.18 13.9,135.082 13.9,132.688 "/>
<polygon fill="#085DA8" points="13.899,77.592 13.899,79.984 14.899,79.767 14.899,77.372 "/>
<polygon fill="#085DA8" points="12.9,160.22 12.9,162.616 13.9,162.539 13.9,160.143 "/>
<polygon fill="#085DA8" points="13.899,179.307 13.899,181.701 14.899,181.625 14.899,179.229 "/>
<polygon fill="#085DA8" points="12.9,162.965 12.9,165.36 13.9,165.284 13.9,162.889 "/>
<polygon fill="#085DA8" points="12.9,3.952 12.9,6.318 13.9,5.96 13.9,3.587 "/>
<polygon fill="#085DA8" points="12.9,121.661 12.9,124.097 13.9,123.999 13.9,121.564 "/>
<polygon fill="#085DA8" points="12.9,119.084 12.9,121.312 13.9,121.214 13.9,118.944 "/>
<polygon fill="#085DA8" points="13.899,146.346 13.899,148.74 14.899,148.644 14.899,146.248 "/>
<polygon fill="#085DA8" points="13.899,176.562 13.899,178.957 14.899,178.88 14.899,176.485 "/>
<polygon fill="#085DA8" points="12.9,124.447 12.9,126.945 13.9,126.848 13.9,124.349 "/>
<polygon fill="#085DA8" points="12.9,130.039 12.9,132.435 13.9,132.338 13.9,129.942 "/>
<polygon fill="#085DA8" points="13.899,151.835 13.899,154.255 14.899,154.179 14.899,151.737 "/>
<polygon fill="#085DA8" points="12.9,127.295 12.9,129.69 13.9,129.593 13.9,127.197 "/>
<polygon fill="#085DA8" points="13.899,149.091 13.899,151.485 14.899,151.388 14.899,148.992 "/>
<polygon fill="#085DA8" points="13.899,154.604 13.899,156.999 14.899,156.923 14.899,154.527 "/>
<polygon fill="#085DA8" points="13.899,168.327 13.899,170.724 14.899,170.646 14.899,168.251 "/>
<polygon fill="#085DA8" points="13.899,173.816 13.899,176.212 14.899,176.137 14.899,173.74 "/>
<polygon fill="#085DA8" points="13.899,165.582 13.899,167.979 14.899,167.902 14.899,165.506 "/>
<polygon fill="#085DA8" points="13.899,171.072 13.899,173.467 14.899,173.392 14.899,170.995 "/>
<polygon fill="#085DA8" points="13.899,162.838 13.899,165.233 14.899,165.157 14.899,162.761 "/>
<polygon fill="#085DA8" points="13.899,157.348 13.899,159.744 14.899,159.667 14.899,157.272 "/>
<polygon fill="#085DA8" points="13.899,160.093 13.899,162.489 14.899,162.412 14.899,160.018 "/>
<polygon fill="#085DA8" points="12.9,66.985 12.9,69.373 13.9,69.144 13.9,66.754 "/>
<polygon fill="#085DA8" points="12.9,61.499 12.9,63.885 13.9,63.652 13.9,61.262 "/>
<polygon fill="#085DA8" points="12.9,64.242 12.9,66.629 13.9,66.397 13.9,64.008 "/>
<polygon fill="#085DA8" points="12.9,58.756 12.9,61.142 13.9,60.905 13.9,58.517 "/>
<polygon fill="#085DA8" points="12.9,56.013 12.9,58.398 13.9,58.159 13.9,55.771 "/>
<polygon fill="#085DA8" points="12.9,72.472 12.9,74.859 13.9,74.636 13.9,72.247 "/>
<polygon fill="#085DA8" points="12.9,69.729 12.9,72.116 13.9,71.891 13.9,69.5 "/>
<polygon fill="#085DA8" points="12.9,53.125 12.9,55.656 13.9,55.414 13.9,52.879 "/>
<polygon fill="#085DA8" points="12.9,42.151 12.9,44.693 13.9,44.418 13.9,41.873 "/>
<polygon fill="#085DA8" points="12.9,39.447 12.9,41.79 13.9,41.512 13.9,39.166 "/>
<polygon fill="#085DA8" points="12.9,36.745 12.9,39.086 13.9,38.806 13.9,36.46 "/>
<polygon fill="#085DA8" points="12.9,77.958 12.9,80.345 13.9,80.129 13.9,77.738 "/>
<polygon fill="#085DA8" points="12.9,34.041 12.9,36.384 13.9,36.099 13.9,33.754 "/>
<polygon fill="#085DA8" points="12.9,50.533 12.9,52.768 13.9,52.522 13.9,50.274 "/>
<polygon fill="#085DA8" points="12.9,45.052 12.9,47.437 13.9,47.164 13.9,44.778 "/>
<polygon fill="#085DA8" points="12.9,31.337 12.9,33.68 13.9,33.394 13.9,31.048 "/>
<polygon fill="#085DA8" points="12.9,47.795 12.9,50.175 13.9,49.915 13.9,47.523 "/>
<polygon fill="#085DA8" points="12.9,187.627 12.9,190.062 13.9,189.987 13.9,187.55 "/>
<polygon fill="#085DA8" points="12.9,116.462 12.9,118.734 13.9,118.593 13.9,116.322 "/>
<polygon fill="#085DA8" points="12.9,80.701 12.9,83.078 13.9,82.886 13.9,80.484 "/>
<polygon fill="#085DA8" points="12.9,149.253 12.9,151.647 13.9,151.551 13.9,149.155 "/>
<polygon fill="#085DA8" points="13.899,187.5 13.899,189.936 14.899,189.86 14.899,187.424 "/>
<polygon fill="#085DA8" points="12.9,86.169 12.9,88.559 13.9,88.383 13.9,85.991 "/>
<polygon fill="#085DA8" points="12.9,88.912 12.9,91.302 13.9,91.129 13.9,88.737 "/>
<polygon fill="#085DA8" points="12.9,110.729 12.9,113.163 13.9,113.001 13.9,110.568 "/>
<polygon fill="#085DA8" points="12.9,97.142 12.9,99.532 13.9,99.368 13.9,96.975 "/>
<polygon fill="#085DA8" points="12.9,91.655 12.9,94.045 13.9,93.875 13.9,91.482 "/>
<polygon fill="#085DA8" points="13.899,74.844 13.899,77.236 14.899,77.017 14.899,74.621 "/>
<polygon fill="#085DA8" points="13.899,41.688 13.899,44.235 14.899,43.96 14.899,41.409 "/>
<polygon fill="#085DA8" points="13.899,36.271 13.899,38.618 14.899,38.337 14.899,35.988 "/>
<polygon fill="#085DA8" points="13.899,47.342 13.899,49.742 14.899,49.484 14.899,47.069 "/>
<polygon fill="#085DA8" points="13.899,44.595 13.899,46.982 14.899,46.71 14.899,44.321 "/>
<polygon fill="#085DA8" points="13.899,33.563 13.899,35.91 14.899,35.627 14.899,33.277 "/>
<polygon fill="#085DA8" points="13.899,28.148 13.899,30.494 14.899,30.205 14.899,27.856 "/>
<polygon fill="#085DA8" points="13.899,30.855 13.899,33.202 14.899,32.916 14.899,30.566 "/>
<polygon fill="#085DA8" points="13.899,50.102 13.899,52.358 14.899,52.113 14.899,49.843 "/>
<polygon fill="#085DA8" points="13.899,69.348 13.899,71.74 14.899,71.515 14.899,69.12 "/>
<polygon fill="#085DA8" points="13.899,63.853 13.899,66.244 14.899,66.013 14.899,63.619 "/>
<polygon fill="#085DA8" points="13.899,72.097 13.899,74.487 14.899,74.266 14.899,71.871 "/>
<polygon fill="#085DA8" points="13.899,61.105 13.899,63.495 14.899,63.262 14.899,60.868 "/>
<polygon fill="#085DA8" points="13.899,52.716 13.899,55.251 14.899,55.009 14.899,52.471 "/>
<polygon fill="#085DA8" points="13.899,58.357 13.899,60.747 14.899,60.511 14.899,58.117 "/>
<polygon fill="#085DA8" points="13.899,11.604 13.899,13.946 14.899,13.607 14.899,11.263 "/>
<polygon fill="#085DA8" points="12.9,14.876 12.9,17.295 13.9,16.97 13.9,14.538 "/>
<polygon fill="#085DA8" points="12.9,17.66 12.9,19.999 13.9,19.677 13.9,17.335 "/>
<polygon fill="#085DA8" points="12.9,12.174 12.9,14.51 13.9,14.172 13.9,11.832 "/>
<polygon fill="#085DA8" points="12.9,9.389 12.9,11.806 13.9,11.465 13.9,9.034 "/>
<polygon fill="#085DA8" points="12.9,23.066 12.9,25.405 13.9,25.089 13.9,22.746 "/>
<polygon fill="#085DA8" points="12.9,25.77 12.9,28.273 13.9,27.98 13.9,25.453 "/>
<polygon fill="#085DA8" points="12.9,20.364 12.9,22.703 13.9,22.384 13.9,20.042 "/>
<polygon fill="#085DA8" points="12.9,6.687 12.9,9.021 13.9,8.667 13.9,6.328 "/>
<polygon fill="#085DA8" points="13.899,6.09 13.899,8.43 14.899,8.074 14.899,5.731 "/>
<polygon fill="#085DA8" points="13.899,17.118 13.899,19.462 14.899,19.139 14.899,16.793 "/>
<polygon fill="#085DA8" points="13.899,14.312 13.899,16.754 14.899,16.429 14.899,13.973 "/>
<polygon fill="#085DA8" points="13.899,19.826 13.899,22.17 14.899,21.85 14.899,19.504 "/>
<polygon fill="#085DA8" points="13.899,3.344 13.899,5.722 14.899,5.364 14.899,2.979 "/>
<polygon fill="#085DA8" points="13.899,22.534 13.899,24.878 14.899,24.562 14.899,22.214 "/>
<polygon fill="#085DA8" points="13.899,8.798 13.899,11.238 14.899,10.896 14.899,8.443 "/>
<polygon fill="#085DA8" points="12.9,28.635 12.9,30.977 13.9,30.687 13.9,28.343 "/>
<polygon fill="#085DA8" points="33.899,58.181 34.9,58.485 34.9,56.1 33.899,55.794 "/>
<polygon fill="#085DA8" points="33.899,63.683 34.9,63.98 34.9,61.595 33.899,61.293 "/>
<polygon fill="#085DA8" points="33.899,60.932 34.9,61.233 34.9,58.848 33.899,58.543 "/>
<polygon fill="#085DA8" points="33.899,66.433 34.9,66.728 34.9,64.342 33.899,64.044 "/>
<polygon fill="#085DA8" points="33.899,55.431 34.9,55.737 34.9,53.208 33.899,52.898 "/>
<polygon fill="#085DA8" points="33.899,49.908 34.9,50.231 34.9,47.837 33.899,47.5 "/>
<polygon fill="#085DA8" points="33.899,69.183 34.9,69.475 34.9,67.09 33.899,66.794 "/>
<polygon fill="#085DA8" points="33.899,52.535 34.9,52.845 34.9,50.595 33.899,50.271 "/>
<polygon fill="#085DA8" points="33.899,77.436 34.9,77.718 34.9,75.333 33.899,75.045 "/>
<polygon fill="#085DA8" points="33.899,85.753 34.9,85.996 34.9,83.596 33.899,83.338 "/>
<polygon fill="#085DA8" points="33.899,91.254 34.9,91.492 34.9,89.101 33.899,88.861 "/>
<polygon fill="#085DA8" points="33.899,88.503 34.9,88.744 34.9,86.354 33.899,86.11 "/>
<polygon fill="#085DA8" points="33.899,80.186 34.9,80.467 34.9,78.08 33.899,77.797 "/>
<polygon fill="#085DA8" points="33.899,74.684 34.9,74.971 34.9,72.585 33.899,72.295 "/>
<polygon fill="#085DA8" points="33.899,47.135 34.9,47.472 34.9,45.09 33.899,44.752 "/>
<polygon fill="#085DA8" points="33.899,71.935 34.9,72.224 34.9,69.837 33.899,69.545 "/>
<polygon fill="#085DA8" points="33.899,11.33 34.9,11.735 34.9,9.305 33.899,8.885 "/>
<polygon fill="#085DA8" points="33.899,14.04 34.9,14.443 34.9,12.109 33.899,11.703 "/>
<polygon fill="#085DA8" points="33.899,19.571 34.9,19.957 34.9,17.621 33.899,17.232 "/>
<polygon fill="#085DA8" points="33.899,8.51 34.9,8.929 34.9,6.597 33.899,6.175 "/>
<polygon fill="#085DA8" points="33.899,16.86 34.9,17.249 34.9,14.816 33.899,14.413 "/>
<polygon fill="#085DA8" points="35.9,190.496 36.9,190.636 36.9,188.202 35.9,188.061 "/>
<polygon fill="#085DA8" points="33.899,190.262 34.9,190.402 34.9,187.968 33.899,187.828 "/>
<polygon fill="#085DA8" points="33.899,5.799 34.9,6.221 34.9,3.855 33.899,3.427 "/>
<polygon fill="#085DA8" points="33.899,22.281 34.9,22.665 34.9,20.329 33.899,19.941 "/>
<polygon fill="#085DA8" points="33.899,33.343 34.9,33.693 34.9,31.353 33.899,30.999 "/>
<polygon fill="#085DA8" points="33.899,36.053 34.9,36.4 34.9,34.061 33.899,33.709 "/>
<polygon fill="#085DA8" points="33.899,38.763 34.9,39.109 34.9,36.768 33.899,36.42 "/>
<polygon fill="#085DA8" points="33.899,41.474 34.9,41.817 34.9,39.475 33.899,39.13 "/>
<polygon fill="#085DA8" points="33.899,44.386 34.9,44.725 34.9,42.184 33.899,41.841 "/>
<polygon fill="#085DA8" points="33.899,24.992 34.9,25.374 34.9,23.035 33.899,22.652 "/>
<polygon fill="#085DA8" points="33.899,27.921 34.9,28.277 34.9,25.743 33.899,25.362 "/>
<polygon fill="#085DA8" points="33.899,30.632 34.9,30.986 34.9,28.646 33.899,28.289 "/>
<polygon fill="#085DA8" points="33.899,124.241 34.9,124.402 34.9,121.97 33.899,121.808 "/>
<polygon fill="#085DA8" points="33.899,160.069 34.9,160.21 34.9,157.815 33.899,157.676 "/>
<polygon fill="#085DA8" points="33.899,157.325 34.9,157.465 34.9,155.071 33.899,154.932 "/>
<polygon fill="#085DA8" points="33.899,154.581 34.9,154.721 34.9,152.307 33.899,152.145 "/>
<polygon fill="#085DA8" points="33.899,162.814 34.9,162.955 34.9,160.561 33.899,160.421 "/>
<polygon fill="#085DA8" points="33.899,151.792 34.9,151.953 34.9,149.562 33.899,149.399 "/>
<polygon fill="#085DA8" points="33.899,146.303 34.9,146.465 34.9,144.072 33.899,143.91 "/>
<polygon fill="#085DA8" points="33.899,149.048 34.9,149.209 34.9,146.817 33.899,146.655 "/>
<polygon fill="#085DA8" points="33.899,165.559 34.9,165.699 34.9,163.306 33.899,163.166 "/>
<polygon fill="#085DA8" points="33.899,94.004 34.9,94.239 34.9,91.848 33.899,91.611 "/>
<polygon fill="#085DA8" points="33.899,143.558 34.9,143.72 34.9,141.327 33.899,141.165 "/>
<polygon fill="#085DA8" points="33.899,184.772 34.9,184.912 34.9,182.519 33.899,182.379 "/>
<polygon fill="#085DA8" points="33.899,182.028 34.9,182.168 34.9,179.774 33.899,179.634 "/>
<polygon fill="#085DA8" points="33.899,187.477 34.9,187.616 34.9,185.264 33.899,185.122 "/>
<polygon fill="#085DA8" points="33.899,176.538 34.9,176.678 34.9,174.284 33.899,174.145 "/>
<polygon fill="#085DA8" points="33.899,168.304 34.9,168.443 34.9,166.05 33.899,165.91 "/>
<polygon fill="#085DA8" points="33.899,171.049 34.9,171.188 34.9,168.795 33.899,168.655 "/>
<polygon fill="#085DA8" points="33.899,173.794 34.9,173.934 34.9,171.54 33.899,171.399 "/>
<polygon fill="#085DA8" points="33.899,179.283 34.9,179.423 34.9,177.029 33.899,176.889 "/>
<polygon fill="#085DA8" points="33.899,113.144 34.9,113.37 34.9,110.94 33.899,110.714 "/>
<polygon fill="#085DA8" points="33.899,110.358 34.9,110.584 34.9,108.328 33.899,108.103 "/>
<polygon fill="#085DA8" points="33.899,107.745 34.9,107.972 34.9,105.583 33.899,105.356 "/>
<polygon fill="#085DA8" points="33.899,118.769 34.9,118.973 34.9,116.706 33.899,116.501 "/>
<polygon fill="#085DA8" points="33.899,116.146 34.9,116.352 34.9,113.726 33.899,113.499 "/>
<polygon fill="#085DA8" points="33.899,99.506 34.9,99.735 34.9,97.343 33.899,97.112 "/>
<polygon fill="#085DA8" points="33.899,102.257 34.9,102.482 34.9,100.092 33.899,99.862 "/>
<polygon fill="#085DA8" points="33.899,105.001 34.9,105.228 34.9,102.839 33.899,102.611 "/>
<polygon fill="#085DA8" points="33.899,132.579 34.9,132.74 34.9,130.349 33.899,130.188 "/>
<polygon fill="#085DA8" points="33.899,121.456 34.9,121.618 34.9,119.327 33.899,119.123 "/>
<polygon fill="#085DA8" points="33.899,140.813 34.9,140.976 34.9,138.582 33.899,138.421 "/>
<polygon fill="#085DA8" points="33.899,138.068 34.9,138.23 34.9,135.838 33.899,135.677 "/>
<polygon fill="#085DA8" points="33.899,135.323 34.9,135.485 34.9,133.094 33.899,132.932 "/>
<polygon fill="#085DA8" points="33.899,129.834 34.9,129.996 34.9,127.604 33.899,127.442 "/>
<polygon fill="#085DA8" points="35.9,187.711 36.9,187.851 36.9,185.497 35.9,185.356 "/>
<polygon fill="#085DA8" points="33.899,127.089 34.9,127.251 34.9,124.755 33.899,124.593 "/>
<polygon fill="#085DA8" points="33.899,96.755 34.9,96.987 34.9,94.596 33.899,94.362 "/>
<polygon fill="#085DA8" points="35.9,58.688 36.9,58.991 36.9,56.611 35.9,56.304 "/>
<polygon fill="#085DA8" points="35.9,55.941 36.9,56.249 36.9,53.724 35.9,53.415 "/>
<polygon fill="#085DA8" points="35.9,53.051 36.9,53.361 36.9,51.134 35.9,50.811 "/>
<polygon fill="#085DA8" points="35.9,64.179 36.9,64.477 36.9,62.096 35.9,61.796 "/>
<polygon fill="#085DA8" points="35.9,61.433 36.9,61.734 36.9,59.354 35.9,59.05 "/>
<polygon fill="#085DA8" points="35.9,44.951 36.9,45.289 36.9,42.754 35.9,42.412 "/>
<polygon fill="#085DA8" points="35.9,47.696 36.9,48.033 36.9,45.655 35.9,45.316 "/>
<polygon fill="#085DA8" points="35.9,50.446 36.9,50.769 36.9,48.398 35.9,48.062 "/>
<polygon fill="#085DA8" points="35.9,72.417 36.9,72.707 36.9,70.325 35.9,70.033 "/>
<polygon fill="#085DA8" points="35.9,83.408 36.9,83.665 36.9,81.296 35.9,81.015 "/>
<polygon fill="#085DA8" points="35.9,185.006 36.9,185.146 36.9,182.753 35.9,182.613 "/>
<polygon fill="#085DA8" points="35.9,80.655 36.9,80.936 36.9,78.553 35.9,78.269 "/>
<polygon fill="#085DA8" points="35.9,86.158 36.9,86.401 36.9,84.023 35.9,83.767 "/>
<polygon fill="#085DA8" points="35.9,42.044 36.9,42.388 36.9,40.052 35.9,39.706 "/>
<polygon fill="#085DA8" points="35.9,69.671 36.9,69.964 36.9,67.582 35.9,67.287 "/>
<polygon fill="#085DA8" points="35.9,75.162 36.9,75.449 36.9,73.068 35.9,72.778 "/>
<polygon fill="#085DA8" points="35.9,66.925 36.9,67.22 36.9,64.839 35.9,64.541 "/>
<polygon fill="#085DA8" points="35.9,9.208 36.9,9.627 36.9,7.3 35.9,6.878 "/>
<polygon fill="#085DA8" points="35.9,88.904 36.9,89.144 36.9,86.758 35.9,86.515 "/>
<polygon fill="#085DA8" points="35.9,6.502 36.9,6.925 36.9,4.57 35.9,4.141 "/>
<polygon fill="#085DA8" points="35.9,14.711 36.9,15.115 36.9,12.785 35.9,12.378 "/>
<polygon fill="#085DA8" points="35.9,12.005 36.9,12.411 36.9,10.003 35.9,9.583 "/>
<polygon fill="#085DA8" points="35.9,39.339 36.9,39.684 36.9,37.348 35.9,37 "/>
<polygon fill="#085DA8" points="35.9,28.515 36.9,28.871 36.9,26.378 35.9,25.997 "/>
<polygon fill="#085DA8" points="35.9,17.509 36.9,17.899 36.9,15.488 35.9,15.085 "/>
<polygon fill="#085DA8" points="35.9,31.221 36.9,31.575 36.9,29.239 35.9,28.883 "/>
<polygon fill="#085DA8" points="35.9,36.633 36.9,36.981 36.9,34.645 35.9,34.294 "/>
<polygon fill="#085DA8" points="35.9,33.928 36.9,34.278 36.9,31.942 35.9,31.588 "/>
<polygon fill="#085DA8" points="35.9,20.215 36.9,20.601 36.9,18.27 35.9,17.88 "/>
<polygon fill="#085DA8" points="35.9,22.92 36.9,23.304 36.9,20.973 35.9,20.585 "/>
<polygon fill="#085DA8" points="35.9,25.627 36.9,26.008 36.9,23.676 35.9,23.292 "/>
<polygon fill="#085DA8" points="35.9,77.909 36.9,78.193 36.9,75.81 35.9,75.524 "/>
<polygon fill="#085DA8" points="35.9,138.338 36.9,138.5 36.9,136.107 35.9,135.946 "/>
<polygon fill="#085DA8" points="35.9,152.062 36.9,152.224 36.9,149.831 35.9,149.67 "/>
<polygon fill="#085DA8" points="35.9,149.316 36.9,149.479 36.9,147.087 35.9,146.925 "/>
<polygon fill="#085DA8" points="35.9,157.559 36.9,157.699 36.9,155.306 35.9,155.166 "/>
<polygon fill="#085DA8" points="35.9,141.082 36.9,141.244 36.9,138.853 35.9,138.69 "/>
<polygon fill="#085DA8" points="35.9,160.304 36.9,160.443 36.9,158.05 35.9,157.91 "/>
<polygon fill="#085DA8" points="35.9,146.572 36.9,146.734 36.9,144.342 35.9,144.181 "/>
<polygon fill="#085DA8" points="35.9,143.827 36.9,143.989 36.9,141.598 35.9,141.436 "/>
<polygon fill="#085DA8" points="35.9,154.814 36.9,154.955 36.9,152.575 35.9,152.415 "/>
<polygon fill="#085DA8" points="35.9,174.027 36.9,174.167 36.9,171.774 35.9,171.634 "/>
<polygon fill="#085DA8" points="35.9,176.771 36.9,176.912 36.9,174.518 35.9,174.378 "/>
<polygon fill="#085DA8" points="35.9,179.517 36.9,179.657 36.9,177.263 35.9,177.123 "/>
<polygon fill="#085DA8" points="35.9,182.262 36.9,182.402 36.9,180.008 35.9,179.868 "/>
<polygon fill="#085DA8" points="35.9,163.049 36.9,163.188 36.9,160.795 35.9,160.654 "/>
<polygon fill="#085DA8" points="35.9,165.793 36.9,165.933 36.9,163.54 35.9,163.399 "/>
<polygon fill="#085DA8" points="35.9,168.538 36.9,168.678 36.9,166.284 35.9,166.144 "/>
<polygon fill="#085DA8" points="35.9,171.283 36.9,171.423 36.9,169.029 35.9,168.889 "/>
<polygon fill="#085DA8" points="35.9,132.849 36.9,133.011 36.9,130.618 35.9,130.456 "/>
<polygon fill="#085DA8" points="35.9,105.378 36.9,105.604 36.9,103.215 35.9,102.988 "/>
<polygon fill="#085DA8" points="35.9,113.52 36.9,113.746 36.9,111.317 35.9,111.091 "/>
<polygon fill="#085DA8" points="35.9,135.594 36.9,135.755 36.9,133.363 35.9,133.201 "/>
<polygon fill="#085DA8" points="35.9,110.734 36.9,110.96 36.9,108.704 35.9,108.479 "/>
<polygon fill="#085DA8" points="35.9,102.633 36.9,102.858 36.9,100.473 35.9,100.243 "/>
<polygon fill="#085DA8" points="35.9,99.887 36.9,100.116 36.9,97.729 35.9,97.498 "/>
<polygon fill="#085DA8" points="35.9,94.395 36.9,94.63 36.9,92.244 35.9,92.006 "/>
<polygon fill="#085DA8" points="35.9,108.123 36.9,108.349 36.9,105.96 35.9,105.733 "/>
<polygon fill="#085DA8" points="35.9,116.487 36.9,116.692 36.9,114.103 35.9,113.876 "/>
<polygon fill="#085DA8" points="35.9,130.104 36.9,130.266 36.9,127.873 35.9,127.712 "/>
<polygon fill="#085DA8" points="35.9,91.65 36.9,91.888 36.9,89.502 35.9,89.261 "/>
<polygon fill="#085DA8" points="35.9,127.359 36.9,127.521 36.9,125.024 35.9,124.863 "/>
<polygon fill="#085DA8" points="35.9,119.109 36.9,119.313 36.9,117.047 35.9,116.842 "/>
<polygon fill="#085DA8" points="35.9,124.511 36.9,124.673 36.9,122.239 35.9,122.078 "/>
<polygon fill="#085DA8" points="35.9,121.726 36.9,121.888 36.9,119.668 35.9,119.463 "/>
<polygon fill="#085DA8" points="0.141,171.123 0.21,172.165 2.899,171.97 2.899,170.922 "/>
<polygon fill="#085DA8" points="0.141,168.378 0.21,169.42 2.899,169.225 2.899,168.177 "/>
<polygon fill="#085DA8" points="0.141,176.611 0.21,177.653 2.899,177.459 2.899,176.411 "/>
<polygon fill="#085DA8" points="0.141,179.356 0.21,180.398 2.899,180.204 2.899,179.155 "/>
<polygon fill="#085DA8" points="0.141,160.144 0.21,161.186 2.899,160.99 2.899,159.942 "/>
<polygon fill="#085DA8" points="0.141,162.889 0.21,163.93 2.899,163.735 2.899,162.688 "/>
<polygon fill="#085DA8" points="0,8.833 0.351,9.819 2.9,8.931 2.9,7.824 "/>
<polygon fill="#085DA8" points="0.003,11.514 0.348,12.502 2.9,11.629 2.9,10.525 "/>
<polygon fill="#085DA8" points="0.004,14.195 0.347,15.184 2.899,14.317 2.899,13.215 "/>
<polygon fill="#085DA8" points="0.01,16.875 0.34,17.867 2.9,17.032 2.9,15.935 "/>
<polygon fill="#085DA8" points="0.141,184.846 0.21,185.888 2.899,185.692 2.899,184.645 "/>
<polygon fill="#085DA8" points="0.141,182.102 0.21,183.143 2.899,182.947 2.899,181.9 "/>
<polygon fill="#085DA8" points="0.098,108.695 0.252,109.727 2.9,109.319 2.9,108.262 "/>
<polygon fill="#085DA8" points="0.129,124.493 0.222,125.533 2.899,125.283 2.899,124.235 "/>
<polygon fill="#085DA8" points="0.129,130.127 0.222,131.167 2.899,130.918 2.899,129.869 "/>
<polygon fill="#085DA8" points="0.129,127.278 0.222,128.318 2.899,128.069 2.899,127.021 "/>
<polygon fill="#085DA8" points="0.098,114.052 0.252,115.084 2.9,114.677 2.9,113.619 "/>
<polygon fill="#085DA8" points="0.109,119.621 0.242,120.656 2.9,120.3 2.9,119.247 "/>
<polygon fill="#085DA8" points="0.098,105.95 0.252,106.982 2.9,106.575 2.9,105.517 "/>
<polygon fill="#085DA8" points="0.011,19.556 0.339,20.549 2.9,19.722 2.9,18.624 "/>
<polygon fill="#085DA8" points="0.129,146.595 0.222,147.635 2.899,147.386 2.899,146.337 "/>
<polygon fill="#085DA8" points="0.129,152.085 0.222,153.125 2.899,152.875 2.899,151.827 "/>
<polygon fill="#085DA8" points="0.129,149.34 0.222,150.379 2.899,150.131 2.899,149.082 "/>
<polygon fill="#085DA8" points="0.129,135.616 0.222,136.656 2.899,136.407 2.899,135.358 "/>
<polygon fill="#085DA8" points="0.129,138.36 0.222,139.4 2.899,139.151 2.899,138.103 "/>
<polygon fill="#085DA8" points="0.129,141.105 0.222,142.145 2.899,141.896 2.899,140.848 "/>
<polygon fill="#085DA8" points="0.065,81.723 0.286,82.745 2.9,82.196 2.9,81.13 "/>
<polygon fill="#085DA8" points="0.066,84.444 0.285,85.467 2.899,84.925 2.899,83.858 "/>
<polygon fill="#085DA8" points="0.084,89.622 0.267,90.652 2.899,90.202 2.899,89.142 "/>
<polygon fill="#085DA8" points="0.078,86.989 0.272,88.017 2.9,87.533 2.9,86.471 "/>
<polygon fill="#085DA8" points="0.06,70.837 0.292,71.858 2.899,71.282 2.899,70.211 "/>
<polygon fill="#085DA8" points="0.061,73.559 0.29,74.58 2.9,74.011 2.9,72.942 "/>
<polygon fill="#085DA8" points="0.064,79.001 0.287,80.022 2.9,79.467 2.9,78.4 "/>
<polygon fill="#085DA8" points="0.087,95.065 0.263,96.097 2.9,95.66 2.9,94.602 "/>
<polygon fill="#085DA8" points="0.017,22.236 0.334,23.232 2.9,22.437 2.9,21.342 "/>
<polygon fill="#085DA8" points="0.093,116.837 0.259,117.869 2.9,117.461 2.9,116.404 "/>
<polygon fill="#085DA8" points="0.088,97.786 0.263,98.817 2.9,98.388 2.9,97.33 "/>
<polygon fill="#085DA8" points="0.091,103.229 0.26,104.261 2.9,103.847 2.9,102.788 "/>
<polygon fill="#085DA8" points="0.059,68.117 0.292,69.136 2.899,68.553 2.899,67.483 "/>
<polygon fill="#085DA8" points="0.09,100.508 0.261,101.539 2.9,101.117 2.9,100.06 "/>
<polygon fill="#085DA8" points="0.034,38.32 0.317,39.328 2.9,38.621 2.9,37.538 "/>
<polygon fill="#085DA8" points="0.037,43.683 0.314,44.691 2.9,43.998 2.9,42.916 "/>
<polygon fill="#085DA8" points="0.032,32.958 0.319,33.963 2.899,33.242 2.899,32.158 "/>
<polygon fill="#085DA8" points="0.035,41.001 0.316,42.01 2.9,41.31 2.9,40.227 "/>
<polygon fill="#085DA8" points="0.033,35.639 0.317,36.646 2.9,35.932 2.9,34.847 "/>
<polygon fill="#085DA8" points="0.018,24.917 0.332,25.915 2.9,25.125 2.9,24.031 "/>
<polygon fill="#085DA8" points="0.021,30.279 0.331,31.279 2.9,30.502 2.9,29.411 "/>
<polygon fill="#085DA8" points="0.02,27.598 0.331,28.597 2.9,27.813 2.9,26.721 "/>
<polygon fill="#085DA8" points="0.056,62.674 0.295,63.692 2.9,63.097 2.9,62.024 "/>
<polygon fill="#085DA8" points="0.057,65.395 0.293,66.414 2.9,65.824 2.9,64.754 "/>
<polygon fill="#085DA8" points="0.053,57.087 0.298,58.103 2.9,57.494 2.9,56.421 "/>
<polygon fill="#085DA8" points="0.047,54.599 0.304,55.612 2.9,54.971 2.9,53.895 "/>
<polygon fill="#085DA8" points="0.04,49.237 0.312,50.248 2.899,49.569 2.899,48.489 "/>
<polygon fill="#085DA8" points="0.041,51.966 0.311,52.976 2.899,52.303 2.899,51.224 "/>
<polygon fill="#085DA8" points="44.9,131.551 49.194,132.208 49.328,131.176 44.9,130.493 "/>
<polygon fill="#085DA8" points="44.9,153.508 49.194,154.165 49.328,153.133 44.9,152.451 "/>
<polygon fill="#085DA8" points="44.9,137.04 49.194,137.696 49.328,136.665 44.9,135.982 "/>
<polygon fill="#085DA8" points="44.9,150.764 49.194,151.421 49.328,150.389 44.9,149.706 "/>
<polygon fill="#085DA8" points="44.9,148.019 49.194,148.676 49.328,147.644 44.9,146.962 "/>
<polygon fill="#085DA8" points="44.9,142.528 49.194,143.187 49.328,142.154 44.9,141.472 "/>
<polygon fill="#085DA8" points="44.9,112.6 49.163,113.511 49.359,112.49 44.9,111.531 "/>
<polygon fill="#085DA8" points="44.9,117.996 49.163,118.908 49.359,117.888 44.9,116.929 "/>
<polygon fill="#085DA8" points="44.9,115.212 49.163,116.123 49.359,115.102 44.9,114.143 "/>
<polygon fill="#085DA8" points="44.9,128.702 49.194,129.359 49.328,128.327 44.9,127.646 "/>
<polygon fill="#085DA8" points="44.9,120.868 49.173,121.695 49.349,120.672 44.9,119.805 "/>
<polygon fill="#085DA8" points="44.9,125.917 49.194,126.573 49.328,125.542 44.9,124.859 "/>
<polygon fill="#085DA8" points="44.9,107.11 49.163,108.021 49.359,107 44.9,106.041 "/>
<polygon fill="#085DA8" points="44.9,123.49 49.173,124.317 49.349,123.293 44.9,122.426 "/>
<polygon fill="#085DA8" points="44.9,183.613 49.204,184.185 49.318,183.148 44.9,182.559 "/>
<polygon fill="#085DA8" points="44.9,189.102 49.204,189.674 49.318,188.638 44.9,188.048 "/>
<polygon fill="#085DA8" points="44.9,178.124 49.204,178.695 49.318,177.66 44.9,177.069 "/>
<polygon fill="#085DA8" points="44.9,180.868 49.204,181.439 49.318,180.404 44.9,179.814 "/>
<polygon fill="#085DA8" points="44.9,9.161 49.05,10.854 49.472,9.887 44.9,8.031 "/>
<polygon fill="#085DA8" points="44.9,191.807 49.204,192.379 49.318,191.343 44.9,190.752 "/>
<polygon fill="#085DA8" points="44.9,172.634 49.204,173.206 49.318,172.17 44.9,171.58 "/>
<polygon fill="#085DA8" points="44.9,161.654 49.204,162.227 49.318,161.19 44.9,160.602 "/>
<polygon fill="#085DA8" points="44.9,156.253 49.194,156.91 49.328,155.878 44.9,155.196 "/>
<polygon fill="#085DA8" points="44.9,169.889 49.204,170.461 49.318,169.426 44.9,168.836 "/>
<polygon fill="#085DA8" points="44.9,167.145 49.204,167.717 49.318,166.681 44.9,166.091 "/>
<polygon fill="#085DA8" points="44.9,44.353 49.11,45.727 49.412,44.735 44.9,43.253 "/>
<polygon fill="#085DA8" points="44.9,38.968 49.108,40.364 49.414,39.374 44.9,37.866 "/>
<polygon fill="#085DA8" points="44.9,41.66 49.108,43.045 49.414,42.054 44.9,40.56 "/>
<polygon fill="#085DA8" points="44.9,36.275 49.107,37.682 49.415,36.693 44.9,35.172 "/>
<polygon fill="#085DA8" points="44.9,57.903 49.125,59.142 49.396,58.14 44.9,56.814 "/>
<polygon fill="#085DA8" points="44.9,104.377 49.162,105.3 49.36,104.28 44.9,103.308 "/>
<polygon fill="#085DA8" points="44.9,33.581 49.105,34.999 49.416,34.01 44.9,32.478 "/>
<polygon fill="#085DA8" points="44.9,52.671 49.114,54.013 49.408,53.018 44.9,51.574 "/>
<polygon fill="#085DA8" points="44.9,47.047 49.111,48.41 49.411,47.417 44.9,45.947 "/>
<polygon fill="#085DA8" points="44.9,30.804 49.095,32.313 49.427,31.333 44.9,29.691 "/>
<polygon fill="#085DA8" points="44.9,19.989 49.086,21.584 49.437,20.61 44.9,18.869 "/>
<polygon fill="#085DA8" points="44.9,14.562 49.08,16.218 49.442,15.25 44.9,13.436 "/>
<polygon fill="#085DA8" points="44.9,11.869 49.078,13.537 49.444,12.567 44.9,10.742 "/>
<polygon fill="#085DA8" points="44.9,17.296 49.085,18.902 49.438,17.928 44.9,16.176 "/>
<polygon fill="#085DA8" points="44.9,28.111 49.094,29.632 49.428,28.652 44.9,26.998 "/>
<polygon fill="#085DA8" points="44.9,25.418 49.092,26.95 49.429,25.971 44.9,24.304 "/>
<polygon fill="#085DA8" points="44.9,22.724 49.091,24.269 49.431,23.29 44.9,21.61 "/>
<polygon fill="#085DA8" points="44.9,49.935 49.113,51.283 49.409,50.29 44.9,48.837 "/>
<polygon fill="#085DA8" points="44.9,88.023 49.149,89.054 49.373,88.04 44.9,86.947 "/>
<polygon fill="#085DA8" points="44.9,90.712 49.155,91.69 49.367,90.673 44.9,89.639 "/>
<polygon fill="#085DA8" points="44.9,85.378 49.138,86.504 49.384,85.496 44.9,84.296 "/>
<polygon fill="#085DA8" points="44.9,93.444 49.157,94.412 49.365,93.395 44.9,92.373 "/>
<polygon fill="#085DA8" points="44.9,98.911 49.16,99.856 49.362,98.836 44.9,97.84 "/>
<polygon fill="#085DA8" points="44.9,101.645 49.161,102.577 49.361,101.559 44.9,100.574 "/>
<polygon fill="#085DA8" points="44.9,82.646 49.137,83.782 49.385,82.774 44.9,81.562 "/>
<polygon fill="#085DA8" points="44.9,60.782 49.126,62.008 49.396,61.005 44.9,59.693 "/>
<polygon fill="#085DA8" points="44.9,66.248 49.129,67.45 49.394,66.447 44.9,65.161 "/>
<polygon fill="#085DA8" points="44.9,79.912 49.135,81.06 49.386,80.053 44.9,78.828 "/>
<polygon fill="#085DA8" points="44.9,63.514 49.128,64.729 49.395,63.726 44.9,62.427 "/>
<polygon fill="#085DA8" points="44.9,77.179 49.134,78.339 49.387,77.332 44.9,76.095 "/>
<polygon fill="#085DA8" points="44.9,74.446 49.133,75.616 49.389,74.611 44.9,73.361 "/>
<polygon fill="#085DA8" points="44.9,71.713 49.132,72.895 49.39,71.889 44.9,70.628 "/>
</svg>
