<?xml version="1.0" encoding="utf-8"?>
<!-- Generator: Adobe Illustrator 16.0.0, SVG Export Plug-In . SVG Version: 6.00 Build 0)  -->
<!DOCTYPE svg PUBLIC "-//W3C//DTD SVG 1.1//EN" "http://www.w3.org/Graphics/SVG/1.1/DTD/svg11.dtd">
<svg version="1.1" id="Layer_1" xmlns="http://www.w3.org/2000/svg" xmlns:xlink="http://www.w3.org/1999/xlink" x="0px" y="0px"
	 width="49.507px" height="192.378px" viewBox="0 0 49.507 192.378" enable-background="new 0 0 49.507 192.378"
	 xml:space="preserve">
<polygon fill="#085DA8" points="21.487,131.237 15.025,131.857 15.025,132.906 21.423,132.293 23.025,132.68 23.025,131.61 "/>
<polygon fill="#085DA8" points="21.487,120.114 15.025,120.734 15.025,121.783 21.423,121.169 23.025,121.557 23.025,120.487 "/>
<polygon fill="#085DA8" points="21.487,122.899 15.025,123.52 15.025,124.568 21.423,123.955 23.025,124.342 23.025,123.272 "/>
<polygon fill="#085DA8" points="21.487,150.45 15.025,151.07 15.025,152.119 21.423,151.506 23.025,151.893 23.025,150.823 "/>
<polygon fill="#085DA8" points="21.477,117.163 15.025,118.055 15.025,119.108 21.434,118.223 23.025,118.608 23.025,117.539 "/>
<polygon fill="#085DA8" points="5.025,117.796 11.025,116.907 11.025,115.854 5.025,116.742 "/>
<polygon fill="#085DA8" points="21.477,114.541 15.025,115.433 15.025,116.486 21.434,115.601 23.025,115.986 23.025,114.917 "/>
<polygon fill="#085DA8" points="15.025,126.368 15.025,127.417 21.423,126.804 23.025,127.19 23.025,126.121 21.487,125.748 "/>
<polygon fill="#085DA8" points="21.487,144.961 15.025,145.581 15.025,146.63 21.423,146.017 23.025,146.403 23.025,145.334 "/>
<polygon fill="#085DA8" points="21.487,142.216 15.025,142.836 15.025,143.885 21.423,143.271 23.025,143.658 23.025,142.589 "/>
<polygon fill="#085DA8" points="15.025,148.326 15.025,149.375 21.423,148.761 23.025,149.147 23.025,148.079 21.487,147.706 "/>
<polygon fill="#085DA8" points="21.487,139.472 15.025,140.092 15.025,141.141 21.423,140.526 23.025,140.914 23.025,139.845 "/>
<polygon fill="#085DA8" points="5.025,113.942 5.025,115 11.025,113.975 11.025,112.918 "/>
<polygon fill="#085DA8" points="21.487,136.727 15.025,137.347 15.025,138.396 21.423,137.782 23.025,138.169 23.025,137.1 "/>
<polygon fill="#085DA8" points="21.487,133.982 15.025,134.602 15.025,135.651 21.423,135.037 23.025,135.424 23.025,134.355 "/>
<polygon fill="#085DA8" points="5.025,92.162 5.025,93.221 11.025,92.124 11.025,91.065 "/>
<polygon fill="#085DA8" points="5.025,81.507 5.025,82.574 11.025,81.201 11.025,80.134 "/>
<polygon fill="#085DA8" points="5.025,78.783 5.025,79.85 11.025,78.46 11.025,77.393 "/>
<polygon fill="#085DA8" points="5.025,86.715 5.025,87.775 11.025,86.642 11.025,85.582 "/>
<polygon fill="#085DA8" points="5.025,76.06 5.025,77.127 11.025,75.719 11.025,74.65 "/>
<polygon fill="#085DA8" points="5.025,89.438 5.025,90.497 11.025,89.383 11.025,88.323 "/>
<polygon fill="#085DA8" points="5.025,67.889 5.025,68.959 11.025,67.496 11.025,66.426 "/>
<polygon fill="#085DA8" points="5.025,73.336 5.025,74.404 11.025,72.979 11.025,71.909 "/>
<polygon fill="#085DA8" points="5.025,70.612 5.025,71.681 11.025,70.237 11.025,69.167 "/>
<polygon fill="#085DA8" points="5.025,100.332 5.025,101.39 11.025,100.348 11.025,99.289 "/>
<polygon fill="#085DA8" points="21.493,153.37 15.025,153.854 15.025,154.902 21.418,154.424 23.025,154.812 23.025,153.742 "/>
<polygon fill="#085DA8" points="5.025,108.545 5.025,109.603 11.025,108.577 11.025,107.521 "/>
<polygon fill="#085DA8" points="5.025,103.056 5.025,104.112 11.025,103.088 11.025,102.031 "/>
<polygon fill="#085DA8" points="5.025,111.157 5.025,112.215 11.025,111.189 11.025,110.133 "/>
<polygon fill="#085DA8" points="5.025,94.885 5.025,95.943 11.025,94.865 11.025,93.806 "/>
<polygon fill="#085DA8" points="5.025,84.071 5.025,85.133 11.025,83.914 11.025,82.852 "/>
<polygon fill="#085DA8" points="11.025,149.667 11.025,148.618 5.025,149.236 5.025,150.285 "/>
<polygon fill="#085DA8" points="21.493,156.115 15.025,156.599 15.025,157.646 21.418,157.168 23.025,157.556 23.025,156.487 "/>
<polygon fill="#085DA8" points="11.025,141.434 11.025,140.384 5.025,141.002 5.025,142.051 "/>
<polygon fill="#085DA8" points="11.025,144.178 11.025,143.129 5.025,143.747 5.025,144.796 "/>
<polygon fill="#085DA8" points="11.025,160.62 11.025,159.573 5.025,160.055 5.025,161.102 "/>
<polygon fill="#085DA8" points="11.025,157.875 11.025,156.828 5.025,157.31 5.025,158.357 "/>
<polygon fill="#085DA8" points="11.025,155.13 11.025,154.083 5.025,154.565 5.025,155.612 "/>
<polygon fill="#085DA8" points="11.025,133.199 11.025,132.15 5.025,132.768 5.025,133.817 "/>
<polygon fill="#085DA8" points="5.025,119.364 5.025,120.418 11.025,119.529 11.025,118.476 "/>
<polygon fill="#085DA8" points="11.025,127.71 11.025,126.66 5.025,127.278 5.025,128.327 "/>
<polygon fill="#085DA8" points="11.025,124.861 11.025,123.812 5.025,124.431 5.025,125.479 "/>
<polygon fill="#085DA8" points="11.025,138.688 11.025,137.64 5.025,138.258 5.025,139.307 "/>
<polygon fill="#085DA8" points="11.025,122.076 11.025,121.027 5.025,121.645 5.025,122.694 "/>
<polygon fill="#085DA8" points="11.025,135.943 11.025,134.895 5.025,135.513 5.025,136.562 "/>
<polygon fill="#085DA8" points="11.025,130.454 11.025,129.405 5.025,130.023 5.025,131.072 "/>
<polygon fill="#085DA8" points="11.025,152.412 11.025,151.363 5.025,151.981 5.025,153.03 "/>
<polygon fill="#085DA8" points="15.025,178.558 15.025,179.604 21.418,179.125 23.025,179.515 23.025,178.445 21.493,178.073 "/>
<polygon fill="#085DA8" points="21.493,169.839 15.025,170.323 15.025,171.371 21.418,170.892 23.025,171.28 23.025,170.211 "/>
<polygon fill="#085DA8" points="21.493,167.094 15.025,167.578 15.025,168.626 21.418,168.146 23.025,168.535 23.025,167.466 "/>
<polygon fill="#085DA8" points="11.025,166.109 11.025,165.062 5.025,165.544 5.025,166.591 "/>
<polygon fill="#085DA8" points="21.493,172.583 15.025,173.067 15.025,174.115 21.418,173.637 23.025,174.024 23.025,172.955 "/>
<polygon fill="#085DA8" points="21.493,161.604 15.025,162.089 15.025,163.137 21.418,162.657 23.025,163.046 23.025,161.977 "/>
<polygon fill="#085DA8" points="21.493,164.35 15.025,164.833 15.025,165.881 21.418,165.402 23.025,165.79 23.025,164.721 "/>
<polygon fill="#085DA8" points="21.493,175.328 15.025,175.812 15.025,176.86 21.418,176.381 23.025,176.77 23.025,175.7 "/>
<polygon fill="#085DA8" points="11.025,174.344 11.025,173.296 5.025,173.778 5.025,174.825 "/>
<polygon fill="#085DA8" points="11.025,171.599 11.025,170.552 5.025,171.033 5.025,172.081 "/>
<polygon fill="#085DA8" points="11.025,168.854 11.025,167.807 5.025,168.289 5.025,169.336 "/>
<polygon fill="#085DA8" points="11.025,177.088 11.025,176.041 5.025,176.523 5.025,177.57 "/>
<polygon fill="#085DA8" points="23.025,182.259 23.025,181.189 21.493,180.817 15.025,181.302 15.025,182.349 21.418,181.87 "/>
<polygon fill="#085DA8" points="11.025,181.53 5.025,182.013 5.025,183.06 11.025,182.577 "/>
<polygon fill="#085DA8" points="11.025,179.833 11.025,178.786 5.025,179.268 5.025,180.314 "/>
<polygon fill="#085DA8" points="21.49,41.948 15.025,43.693 15.025,44.773 21.381,43.046 23.043,43.742 23.025,43.617 
	23.025,42.636 "/>
<polygon fill="#085DA8" points="21.497,50.276 15.025,51.837 15.025,52.911 21.373,51.369 23.044,52.066 23.025,51.942 
	23.025,50.961 "/>
<polygon fill="#085DA8" points="21.489,39.013 15.025,40.781 15.025,41.862 21.382,40.112 23.043,40.807 23.025,40.682 
	23.025,39.702 "/>
<polygon fill="#085DA8" points="21.494,47.565 15.025,49.212 15.025,50.288 21.376,48.66 23.043,49.357 23.025,49.232 
	23.025,48.252 "/>
<polygon fill="#085DA8" points="21.486,28.1 15.025,29.94 15.025,31.024 21.384,29.201 23.044,29.895 23.025,29.77 23.025,28.79 "/>
<polygon fill="#085DA8" points="21.488,36.284 15.025,38.07 15.025,39.152 21.382,37.384 23.044,38.078 23.025,37.954 
	23.025,36.973 "/>
<polygon fill="#085DA8" points="21.487,30.828 15.025,32.65 15.025,33.733 21.384,31.928 23.043,32.623 23.025,32.498 
	23.025,31.517 "/>
<polygon fill="#085DA8" points="21.487,33.557 15.025,35.36 15.025,36.442 21.382,34.656 23.043,35.351 23.025,35.227 
	23.025,34.246 "/>
<polygon fill="#085DA8" points="21.49,44.708 15.025,46.44 15.025,47.521 21.38,45.807 23.044,46.501 23.025,46.377 23.025,45.396 
	"/>
<polygon fill="#085DA8" points="21.501,67.03 15.025,68.483 15.025,69.552 21.369,68.12 23.044,68.819 23.025,68.694 23.025,67.714 
	"/>
<polygon fill="#085DA8" points="21.498,53.189 15.024,54.732 15.024,55.805 21.373,54.281 23.043,54.979 23.024,54.855 
	23.024,53.874 "/>
<polygon fill="#085DA8" points="21.502,72.566 15.025,73.983 15.025,75.051 21.367,73.654 23.043,74.354 23.025,74.23 23.025,73.25 
	"/>
<polygon fill="#085DA8" points="21.5,64.262 15.025,65.733 15.025,66.803 21.37,65.351 23.043,66.051 23.025,65.927 23.025,64.946 
	"/>
<polygon fill="#085DA8" points="21.503,75.334 15.025,76.733 15.025,77.802 21.367,76.422 23.044,77.123 23.025,76.999 
	23.025,76.018 "/>
<polygon fill="#085DA8" points="21.5,61.494 15.024,62.983 15.024,64.054 21.371,62.584 23.043,63.283 23.024,63.159 23.024,62.178 
	"/>
<polygon fill="#085DA8" points="21.498,55.957 15.025,57.483 15.025,58.554 21.372,57.048 23.043,57.747 23.025,57.623 
	23.025,56.642 "/>
<polygon fill="#085DA8" points="21.499,58.726 15.025,60.232 15.025,61.303 21.371,59.816 23.044,60.516 23.025,60.391 
	23.025,59.411 "/>
<polygon fill="#085DA8" points="21.501,69.798 15.024,71.233 15.024,72.302 21.369,70.887 23.043,71.587 23.024,71.462 
	23.024,70.482 "/>
<polygon fill="#085DA8" points="5.025,187.461 5.025,188.509 11.025,188.026 11.025,186.979 "/>
<polygon fill="#085DA8" points="11.025,189.765 5.025,190.246 5.025,191.294 11.025,190.812 "/>
<polygon fill="#085DA8" points="5.025,62.442 5.025,63.513 11.025,62.014 11.025,60.943 "/>
<polygon fill="#085DA8" points="5.025,9.56 11.025,7.293 11.025,6.189 5.025,8.456 "/>
<polygon fill="#085DA8" points="15.024,2.363 15.024,3.469 21.486,1.135 23.012,1.904 23.024,1.734 23.024,0.785 21.591,0.007 "/>
<polygon fill="#085DA8" points="23.025,189.424 21.493,189.052 15.025,189.536 15.025,190.584 21.418,190.104 23.025,190.493 "/>
<polygon fill="#085DA8" points="15.025,5.115 15.025,6.219 21.4,3.958 23.044,4.646 23.025,4.521 23.025,3.541 21.47,2.845 "/>
<polygon fill="#085DA8" points="23.025,187.708 23.025,186.639 21.493,186.267 15.025,186.751 15.025,187.798 21.418,187.318 "/>
<polygon fill="#085DA8" points="21.478,14.108 15.025,16.172 15.025,17.266 21.393,15.216 23.043,15.906 23.025,15.782 
	23.025,14.801 "/>
<polygon fill="#085DA8" points="21.478,16.837 15.025,18.883 15.025,19.976 21.392,17.944 23.044,18.635 23.025,18.51 23.025,17.53 
	"/>
<polygon fill="#085DA8" points="21.479,19.565 15.025,21.593 15.025,22.685 21.391,20.671 23.044,21.363 23.025,21.238 
	23.025,20.257 "/>
<polygon fill="#085DA8" points="21.479,22.293 15.025,24.303 15.025,25.395 21.391,23.399 23.043,24.091 23.025,23.966 
	23.025,22.985 "/>
<polygon fill="#085DA8" points="21.475,11.205 15.025,13.354 15.025,14.452 21.396,12.315 23.043,13.005 23.025,12.88 
	23.025,11.899 "/>
<polygon fill="#085DA8" points="21.474,8.477 15.025,10.644 15.025,11.742 21.396,9.587 23.043,10.276 23.025,10.151 23.025,9.171 
	"/>
<polygon fill="#085DA8" points="21.485,25.372 15.025,27.229 15.025,28.314 21.385,26.474 23.043,27.167 23.025,27.042 
	23.025,26.062 "/>
<polygon fill="#085DA8" points="21.47,5.574 15.025,7.826 15.025,8.929 21.399,6.687 23.043,7.375 23.025,7.25 23.025,6.27 "/>
<polygon fill="#085DA8" points="5.025,5.769 5.025,6.875 11.025,4.564 11.025,3.458 "/>
<polygon fill="#085DA8" points="5.025,29.958 5.025,31.043 11.025,29.191 11.025,28.107 "/>
<polygon fill="#085DA8" points="5.025,32.642 5.025,33.726 11.025,31.892 11.025,30.809 "/>
<polygon fill="#085DA8" points="5.025,35.325 5.025,36.408 11.025,34.593 11.025,33.51 "/>
<polygon fill="#085DA8" points="5.025,27.258 5.025,28.35 11.025,26.344 11.025,25.253 "/>
<polygon fill="#085DA8" points="5.025,24.574 5.025,25.667 11.025,23.644 11.025,22.551 "/>
<polygon fill="#085DA8" points="5.025,38.009 5.025,39.091 11.025,37.294 11.025,36.212 "/>
<polygon fill="#085DA8" points="5.025,19.207 5.025,20.301 11.025,18.242 11.025,17.148 "/>
<polygon fill="#085DA8" points="5.025,16.515 5.025,17.613 11.025,15.468 11.025,14.37 "/>
<polygon fill="#085DA8" points="5.025,21.891 5.025,22.983 11.025,20.942 11.025,19.85 "/>
<polygon fill="#085DA8" points="5.025,40.693 5.025,41.774 11.025,39.995 11.025,38.914 "/>
<polygon fill="#085DA8" points="5.025,54.126 5.025,55.2 11.025,53.646 11.025,52.574 "/>
<polygon fill="#085DA8" points="5.025,59.719 5.025,60.79 11.025,59.272 11.025,58.202 "/>
<polygon fill="#085DA8" points="5.025,51.627 5.025,52.703 11.025,51.064 11.025,49.988 "/>
<polygon fill="#085DA8" points="5.025,56.995 5.025,58.067 11.025,56.532 11.025,55.46 "/>
<polygon fill="#085DA8" points="5.025,48.983 5.025,50.062 11.025,48.337 11.025,47.258 "/>
<polygon fill="#085DA8" points="5.025,43.376 5.025,44.458 11.025,42.696 11.025,41.616 "/>
<polygon fill="#085DA8" points="5.025,46.252 5.025,47.333 11.025,45.595 11.025,44.516 "/>
<polygon fill="#085DA8" points="11.025,184.275 5.025,184.757 5.025,185.804 11.025,185.322 "/>
<polygon fill="#085DA8" points="21.514,89.439 15.025,90.545 15.025,91.604 21.356,90.518 23.043,91.224 23.025,91.099 
	23.025,90.118 "/>
<polygon fill="#085DA8" points="21.515,92.208 15.025,93.295 15.025,94.354 21.355,93.286 23.044,93.991 23.025,93.867 
	23.025,92.886 "/>
<polygon fill="#085DA8" points="21.516,94.976 15.024,96.045 15.024,97.103 21.354,96.053 23.043,96.759 23.024,96.634 
	23.024,95.654 "/>
<polygon fill="#085DA8" points="21.516,97.744 15.025,98.796 15.025,99.853 21.354,98.82 23.043,99.527 23.025,99.402 
	23.025,98.422 "/>
<polygon fill="#085DA8" points="21.509,81.047 15.025,82.274 15.025,83.337 21.36,82.129 23.043,82.833 23.025,82.708 
	23.025,81.728 "/>
<polygon fill="#085DA8" points="21.517,100.513 15.025,101.546 15.025,102.603 21.353,101.589 23.044,102.295 23.025,102.171 
	23.025,101.189 "/>
<polygon fill="#085DA8" points="21.514,86.672 15.025,87.795 15.025,88.854 21.356,87.75 23.043,88.456 23.025,88.331 
	23.025,87.351 "/>
<polygon fill="#085DA8" points="21.513,83.904 15.025,85.046 15.025,86.104 21.357,84.983 23.044,85.688 23.025,85.562 
	23.025,84.583 "/>
<polygon fill="#085DA8" points="21.517,108.614 15.025,109.647 15.025,110.704 21.353,109.69 23.044,110.396 23.025,110.272 
	23.025,109.291 "/>
<polygon fill="#085DA8" points="21.504,78.103 15.025,79.484 15.025,80.551 21.367,79.19 23.043,79.891 23.025,79.766 
	23.025,78.786 "/>
<polygon fill="#085DA8" points="5.025,11.14 5.025,12.243 11.025,9.994 11.025,8.891 "/>
<polygon fill="#085DA8" points="23.025,185.004 23.025,183.935 21.493,183.562 15.025,184.047 15.025,185.094 21.418,184.614 "/>
<polygon fill="#085DA8" points="21.517,106.002 15.025,107.035 15.025,108.092 21.353,107.078 23.044,107.784 23.025,107.66 
	23.025,106.68 "/>
<polygon fill="#085DA8" points="21.517,111.399 15.025,112.433 15.025,113.489 21.353,112.476 23.044,113.182 23.025,113.058 
	23.025,112.077 "/>
<polygon fill="#085DA8" points="5.025,13.832 5.025,14.93 11.025,12.768 11.025,11.668 "/>
<polygon fill="#085DA8" points="27.674,132.296 33.025,133.122 33.025,132.065 27.59,131.249 27.559,131.234 26.025,131.582 
	26.025,132.651 "/>
<polygon fill="#085DA8" points="27.674,135.041 33.025,135.866 33.025,134.81 27.59,133.993 27.559,133.979 26.025,134.326 
	26.025,135.396 "/>
<polygon fill="#085DA8" points="33.025,127.633 33.025,126.575 27.589,125.76 27.558,125.745 26.025,126.092 26.025,127.16 
	27.673,126.807 "/>
<polygon fill="#085DA8" points="27.674,129.551 33.025,130.377 33.025,129.32 27.59,128.504 27.559,128.489 26.025,128.837 
	26.025,129.906 "/>
<polygon fill="#085DA8" points="27.674,137.785 33.025,138.611 33.025,137.555 27.59,136.738 27.559,136.724 26.025,137.071 
	26.025,138.141 "/>
<polygon fill="#085DA8" points="27.674,146.02 33.025,146.846 33.025,145.788 27.59,144.973 27.559,144.958 26.025,145.306 
	26.025,146.375 "/>
<polygon fill="#085DA8" points="27.674,143.274 33.025,144.101 33.025,143.044 27.59,142.228 27.559,142.213 26.025,142.561 
	26.025,143.63 "/>
<polygon fill="#085DA8" points="27.674,140.53 33.025,141.356 33.025,140.299 27.59,139.483 27.559,139.468 26.025,139.816 
	26.025,140.885 "/>
<polygon fill="#085DA8" points="27.703,107.084 33.025,108.232 33.025,107.163 27.611,105.995 26.025,106.625 26.025,107.75 "/>
<polygon fill="#085DA8" points="27.674,121.173 33.025,121.999 33.025,120.941 27.59,120.126 27.559,120.11 26.025,120.459 
	26.025,121.528 "/>
<polygon fill="#085DA8" points="27.703,104.34 33.025,105.487 33.025,104.419 27.611,103.251 26.025,103.881 26.025,105.006 "/>
<polygon fill="#085DA8" points="27.703,109.696 33.025,110.845 33.025,109.775 27.611,108.607 26.025,109.237 26.025,110.362 "/>
<polygon fill="#085DA8" points="27.663,118.227 33.024,119.273 33.024,118.209 27.651,117.16 26.024,117.511 26.024,118.579 "/>
<polygon fill="#085DA8" points="27.703,112.481 33.025,113.63 33.025,112.561 27.611,111.393 26.025,112.022 26.025,113.149 "/>
<polygon fill="#085DA8" points="27.663,115.604 33.024,116.651 33.024,115.587 27.651,114.538 26.024,114.889 26.024,115.957 "/>
<polygon fill="#085DA8" points="27.674,123.958 33.025,124.784 33.025,123.728 27.59,122.911 27.559,122.896 26.025,123.244 
	26.025,124.313 "/>
<polygon fill="#085DA8" points="44.025,182.986 37.025,182.098 37.025,183.151 44.025,184.04 "/>
<polygon fill="#085DA8" points="33.025,182.59 33.025,181.535 27.636,180.814 26.025,181.16 26.025,182.229 27.679,181.874 "/>
<polygon fill="#085DA8" points="27.679,176.384 33.024,177.101 33.024,176.046 27.636,175.325 26.024,175.671 26.024,176.74 "/>
<polygon fill="#085DA8" points="37.025,179.353 37.025,180.406 44.025,181.296 44.025,180.241 "/>
<polygon fill="#085DA8" points="37.025,176.608 37.025,177.662 44.025,178.551 44.025,177.497 "/>
<polygon fill="#085DA8" points="37.025,171.118 37.025,172.173 44.025,173.062 44.025,172.008 "/>
<polygon fill="#085DA8" points="37.025,173.863 37.025,174.917 44.025,175.806 44.025,174.752 "/>
<polygon fill="#085DA8" points="27.679,154.427 33.024,155.143 33.024,154.089 27.636,153.367 26.024,153.714 26.024,154.782 "/>
<polygon fill="#085DA8" points="27.679,159.916 33.024,160.632 33.024,159.578 27.636,158.856 26.024,159.203 26.024,160.271 "/>
<polygon fill="#085DA8" points="27.679,157.171 33.024,157.887 33.024,156.833 27.636,156.112 26.024,156.458 26.024,157.527 "/>
<polygon fill="#085DA8" points="27.679,162.66 33.024,163.377 33.024,162.322 27.636,161.602 26.024,161.947 26.024,163.017 "/>
<polygon fill="#085DA8" points="27.674,151.509 33.025,152.335 33.025,151.278 27.59,150.462 27.559,150.447 26.025,150.795 
	26.025,151.864 "/>
<polygon fill="#085DA8" points="27.679,173.64 33.024,174.355 33.024,173.302 27.636,172.58 26.024,172.927 26.024,173.995 "/>
<polygon fill="#085DA8" points="27.679,170.895 33.024,171.61 33.024,170.557 27.636,169.836 26.024,170.182 26.024,171.251 "/>
<polygon fill="#085DA8" points="27.679,165.405 33.024,166.121 33.024,165.067 27.636,164.346 26.024,164.692 26.024,165.761 "/>
<polygon fill="#085DA8" points="27.703,101.595 33.025,102.742 33.025,101.674 27.611,100.506 26.025,101.136 26.025,102.261 "/>
<polygon fill="#085DA8" points="27.675,37.39 33.024,39.152 33.024,38.052 27.674,36.338 27.557,36.278 26.024,36.92 26.024,38.045 
	"/>
<polygon fill="#085DA8" points="27.674,31.935 33.025,33.726 33.025,32.625 27.642,30.823 26.025,31.464 26.025,32.59 "/>
<polygon fill="#085DA8" points="27.674,34.662 33.025,36.439 33.025,35.338 27.641,33.55 26.025,34.192 26.025,35.317 "/>
<polygon fill="#085DA8" points="27.677,43.052 33.025,44.78 33.025,43.682 27.639,41.942 26.025,42.582 26.025,43.708 "/>
<polygon fill="#085DA8" points="27.676,40.118 33.025,41.865 33.025,40.766 27.64,39.007 26.025,39.648 26.025,40.773 "/>
<polygon fill="#085DA8" points="27.684,51.375 33.025,52.952 33.025,51.863 27.631,50.27 26.025,50.908 26.025,52.033 "/>
<polygon fill="#085DA8" points="27.677,45.812 33.024,47.53 33.024,46.432 27.638,44.702 26.024,45.343 26.024,46.468 "/>
<polygon fill="#085DA8" points="27.681,48.666 33.025,50.313 33.025,49.22 27.634,47.559 26.025,48.198 26.025,49.323 "/>
<polygon fill="#085DA8" points="27.673,29.207 33.024,31.013 33.024,29.91 27.642,28.094 26.024,28.736 26.024,29.861 "/>
<polygon fill="#085DA8" points="27.665,17.95 33.024,19.927 33.024,18.813 27.649,16.831 26.024,17.476 26.024,18.601 "/>
<polygon fill="#085DA8" points="27.664,15.222 33.025,17.213 33.025,16.099 27.65,14.102 26.025,14.748 26.025,15.873 "/>
<polygon fill="#085DA8" points="27.661,12.321 33.025,14.384 33.025,13.264 27.654,11.199 26.025,11.846 26.025,12.971 "/>
<polygon fill="#085DA8" points="27.684,54.288 33.024,55.85 33.024,54.761 27.631,53.184 26.024,53.82 26.024,54.945 "/>
<polygon fill="#085DA8" points="33.025,11.67 33.025,10.55 27.654,8.47 26.025,9.117 26.025,10.242 27.66,9.593 "/>
<polygon fill="#085DA8" points="27.672,26.479 33.025,28.3 33.025,27.196 27.643,25.365 26.025,26.008 26.025,27.133 "/>
<polygon fill="#085DA8" points="27.667,23.405 33.024,25.353 33.024,24.24 27.648,22.286 26.024,22.931 26.024,24.057 "/>
<polygon fill="#085DA8" points="27.666,20.677 33.024,22.64 33.024,21.526 27.689,19.627 27.565,19.559 26.024,20.204 26.024,21.33 
	"/>
<polygon fill="#085DA8" points="27.701,93.292 33.025,94.484 33.025,93.413 27.624,92.237 27.53,92.202 26.025,92.833 
	26.025,93.958 "/>
<polygon fill="#085DA8" points="27.699,84.989 33.025,86.224 33.025,85.152 27.615,83.897 26.025,84.529 26.025,85.654 "/>
<polygon fill="#085DA8" points="27.7,87.757 33.024,88.978 33.024,87.906 27.615,86.666 26.024,87.297 26.024,88.422 "/>
<polygon fill="#085DA8" points="27.7,90.524 33.024,91.73 33.024,90.659 27.614,89.433 26.024,90.064 26.024,91.189 "/>
<polygon fill="#085DA8" points="27.696,82.136 33.025,83.441 33.025,82.365 27.618,81.041 26.025,81.674 26.025,82.799 "/>
<polygon fill="#085DA8" points="27.69,79.196 33.025,80.626 33.025,79.544 27.645,78.142 27.542,78.096 26.025,78.732 
	26.025,79.857 "/>
<polygon fill="#085DA8" points="27.702,96.06 33.024,97.236 33.024,96.167 27.623,95.004 27.53,94.971 26.024,95.601 26.024,96.726 
	"/>
<polygon fill="#085DA8" points="27.688,68.125 33.025,69.615 33.025,68.529 27.627,67.023 26.025,67.661 26.025,68.786 "/>
<polygon fill="#085DA8" points="27.686,62.59 33.025,64.108 33.025,63.022 27.629,61.488 26.025,62.124 26.025,63.25 "/>
<polygon fill="#085DA8" points="27.687,65.358 33.024,66.862 33.024,65.776 27.651,64.304 27.545,64.256 26.024,64.892 
	26.024,66.018 "/>
<polygon fill="#085DA8" points="27.689,76.428 33.025,77.873 33.025,76.791 27.625,75.328 26.025,75.964 26.025,77.089 "/>
<polygon fill="#085DA8" points="27.686,59.822 33.025,61.355 33.025,60.269 27.629,58.719 26.025,59.356 26.025,60.481 "/>
<polygon fill="#085DA8" points="27.688,73.661 33.024,75.121 33.024,74.037 27.626,72.561 26.024,73.195 26.024,74.321 "/>
<polygon fill="#085DA8" points="27.685,57.055 33.024,58.603 33.024,57.515 27.631,55.951 26.024,56.589 26.024,57.714 "/>
<polygon fill="#085DA8" points="27.688,70.893 33.025,72.367 33.025,71.283 27.627,69.792 26.025,70.428 26.025,71.553 "/>
<polygon fill="#085DA8" points="37.025,72.441 37.025,73.525 44.025,75.358 44.025,74.275 "/>
<polygon fill="#085DA8" points="37.025,39.433 37.025,40.533 44.025,42.719 44.025,41.619 "/>
<polygon fill="#085DA8" points="37.025,36.73 37.025,37.831 44.025,40.035 44.025,38.934 "/>
<polygon fill="#085DA8" points="37.025,42.135 37.025,43.234 44.025,45.402 44.025,44.303 "/>
<polygon fill="#085DA8" points="37.025,34.028 37.025,35.13 44.025,37.352 44.025,36.25 "/>
<polygon fill="#085DA8" points="37.025,45.036 37.025,46.134 44.025,48.278 44.025,47.18 "/>
<polygon fill="#085DA8" points="37.025,23.062 37.025,24.174 44.025,26.604 44.025,25.491 "/>
<polygon fill="#085DA8" points="37.025,25.764 37.025,26.876 44.025,29.288 44.025,28.176 "/>
<polygon fill="#085DA8" points="37.025,28.623 37.025,29.727 44.025,31.985 44.025,30.881 "/>
<polygon fill="#085DA8" points="37.025,31.325 37.025,32.428 44.025,34.668 44.025,33.565 "/>
<polygon fill="#085DA8" points="37.025,64.214 37.025,65.3 44.025,67.188 44.025,66.103 "/>
<polygon fill="#085DA8" points="37.025,58.73 37.025,59.818 44.025,61.742 44.025,60.654 "/>
<polygon fill="#085DA8" points="37.025,66.957 37.025,68.042 44.025,69.912 44.025,68.827 "/>
<polygon fill="#085DA8" points="37.025,47.779 37.025,48.876 44.025,51.008 44.025,49.911 "/>
<polygon fill="#085DA8" points="37.025,50.512 37.025,51.605 44.025,53.651 44.025,52.558 "/>
<polygon fill="#085DA8" points="37.025,53.101 37.025,54.19 44.025,56.15 44.025,55.061 "/>
<polygon fill="#085DA8" points="37.025,55.988 37.025,57.077 44.025,59.019 44.025,57.93 "/>
<polygon fill="#085DA8" points="33.025,185.334 33.025,184.28 27.636,183.56 26.025,183.905 26.025,184.975 27.679,184.618 "/>
<polygon fill="#085DA8" points="26.025,3.487 26.025,4.612 27.657,3.964 33.025,6.127 33.025,5 27.658,2.838 "/>
<polygon fill="#085DA8" points="44.025,10.49 44.025,9.363 37.025,6.689 37.025,7.816 "/>
<polygon fill="#085DA8" points="44.025,188.436 37.025,187.546 37.025,188.601 44.025,189.489 "/>
<polygon fill="#085DA8" points="33.025,189.771 27.636,189.048 26.025,189.396 26.025,190.464 27.679,190.108 33.025,190.824 "/>
<polygon fill="#085DA8" points="37.025,191.385 44.025,192.274 44.025,191.221 37.025,190.331 "/>
<polygon fill="#085DA8" points="37.025,5.089 44.025,7.805 44.025,6.676 37.025,3.96 "/>
<polygon fill="#085DA8" points="27.537,0 26.025,0.72 26.025,1.879 27.571,1.143 33.024,3.374 33.024,2.244 "/>
<polygon fill="#085DA8" points="44.025,185.73 37.025,184.842 37.025,185.896 44.025,186.785 "/>
<polygon fill="#085DA8" points="37.025,20.359 37.025,21.473 44.025,23.921 44.025,22.807 "/>
<polygon fill="#085DA8" points="37.025,17.656 37.025,18.771 44.025,21.237 44.025,20.123 "/>
<polygon fill="#085DA8" points="37.025,12.173 37.025,13.294 44.025,15.864 44.025,14.743 "/>
<polygon fill="#085DA8" points="37.025,14.875 37.025,15.996 44.025,18.547 44.025,17.428 "/>
<polygon fill="#085DA8" points="37.025,69.699 37.025,70.784 44.025,72.635 44.025,71.551 "/>
<polygon fill="#085DA8" points="26.025,6.216 26.025,7.341 27.657,6.693 33.025,8.841 33.025,7.715 27.657,5.568 "/>
<polygon fill="#085DA8" points="37.025,165.629 37.025,166.683 44.025,167.572 44.025,166.518 "/>
<polygon fill="#085DA8" points="37.025,9.393 37.025,10.518 44.025,13.173 44.025,12.048 "/>
<polygon fill="#085DA8" points="37.025,135.457 37.025,136.514 44.025,137.539 44.025,136.481 "/>
<polygon fill="#085DA8" points="37.025,138.201 37.025,139.259 44.025,140.283 44.025,139.227 "/>
<polygon fill="#085DA8" points="37.025,140.946 37.025,142.003 44.025,143.027 44.025,141.971 "/>
<polygon fill="#085DA8" points="37.025,124.374 37.025,125.432 44.025,126.456 44.025,125.399 "/>
<polygon fill="#085DA8" points="37.025,143.69 37.025,144.748 44.025,145.772 44.025,144.716 "/>
<polygon fill="#085DA8" points="37.025,127.223 37.025,128.279 44.025,129.304 44.025,128.248 "/>
<polygon fill="#085DA8" points="37.025,129.968 37.025,131.024 44.025,132.05 44.025,130.992 "/>
<polygon fill="#085DA8" points="37.025,121.589 37.025,122.646 44.025,123.671 44.025,122.614 "/>
<polygon fill="#085DA8" points="37.025,146.436 37.025,147.493 44.025,148.518 44.025,147.461 "/>
<polygon fill="#085DA8" points="37.025,160.14 37.025,161.193 44.025,162.083 44.025,161.028 "/>
<polygon fill="#085DA8" points="37.025,162.885 37.025,163.938 44.025,164.827 44.025,163.773 "/>
<polygon fill="#085DA8" points="37.025,157.395 37.025,158.448 44.025,159.338 44.025,158.284 "/>
<polygon fill="#085DA8" points="37.025,149.181 37.025,150.237 44.025,151.262 44.025,150.205 "/>
<polygon fill="#085DA8" points="37.025,75.184 37.025,76.267 44.025,78.083 44.025,77 "/>
<polygon fill="#085DA8" points="37.025,154.65 37.025,155.704 44.025,156.593 44.025,155.539 "/>
<polygon fill="#085DA8" points="37.025,97.093 37.025,98.163 44.025,99.632 44.025,98.562 "/>
<polygon fill="#085DA8" points="37.025,86.125 37.025,87.197 44.025,88.737 44.025,87.665 "/>
<polygon fill="#085DA8" points="37.025,91.609 37.025,92.68 44.025,94.184 44.025,93.113 "/>
<polygon fill="#085DA8" points="37.025,94.351 37.025,95.422 44.025,96.907 44.025,95.837 "/>
<polygon fill="#085DA8" points="37.025,88.867 37.025,89.939 44.025,91.46 44.025,90.389 "/>
<polygon fill="#085DA8" points="37.025,77.926 37.025,79.008 44.025,80.806 44.025,79.724 "/>
<polygon fill="#085DA8" points="37.025,80.668 37.025,81.75 44.025,83.529 44.025,82.447 "/>
<polygon fill="#085DA8" points="37.025,119.027 37.025,120.092 44.025,121.388 44.025,120.323 "/>
<polygon fill="#085DA8" points="37.025,113.465 37.025,114.534 44.025,115.965 44.025,114.897 "/>
<polygon fill="#085DA8" points="37.025,110.68 37.025,111.749 44.025,113.18 44.025,112.111 "/>
<polygon fill="#085DA8" points="37.025,116.405 37.025,117.47 44.025,118.766 44.025,117.701 "/>
<polygon fill="#085DA8" points="37.025,105.322 37.025,106.392 44.025,107.822 44.025,106.755 "/>
<polygon fill="#085DA8" points="37.025,102.578 37.025,103.646 44.025,105.078 44.025,104.009 "/>
<polygon fill="#085DA8" points="37.025,99.836 37.025,100.905 44.025,102.354 44.025,101.285 "/>
<polygon fill="#085DA8" points="37.025,108.067 37.025,109.137 44.025,110.567 44.025,109.499 "/>
<polygon fill="#085DA8" points="14.025,132.621 14.025,135.017 15.025,134.92 15.025,132.524 "/>
<polygon fill="#085DA8" points="14.025,127.133 14.025,129.527 15.025,129.431 15.025,127.035 "/>
<polygon fill="#085DA8" points="14.025,121.498 14.025,123.935 15.025,123.837 15.025,121.401 "/>
<polygon fill="#085DA8" points="14.025,118.851 14.025,121.149 15.025,121.052 15.025,118.711 "/>
<polygon fill="#085DA8" points="14.025,113.245 14.025,115.877 15.025,115.736 15.025,113.083 "/>
<polygon fill="#085DA8" points="14.025,116.228 14.025,118.5 15.025,118.359 15.025,116.088 "/>
<polygon fill="#085DA8" points="14.025,129.877 14.025,132.272 15.025,132.175 15.025,129.779 "/>
<polygon fill="#085DA8" points="12.025,146.509 12.025,148.903 13.025,148.806 13.025,146.41 "/>
<polygon fill="#085DA8" points="12.025,141.019 12.025,143.413 13.025,143.316 13.025,140.922 "/>
<polygon fill="#085DA8" points="12.025,143.764 12.025,146.158 13.025,146.062 13.025,143.666 "/>
<polygon fill="#085DA8" points="12.025,138.273 12.025,140.669 13.025,140.571 13.025,138.177 "/>
<polygon fill="#085DA8" points="14.025,138.111 14.025,140.507 15.025,140.409 15.025,138.014 "/>
<polygon fill="#085DA8" points="14.025,143.601 14.025,145.996 15.025,145.898 15.025,143.504 "/>
<polygon fill="#085DA8" points="14.025,140.855 14.025,143.252 15.025,143.153 15.025,140.759 "/>
<polygon fill="#085DA8" points="14.025,102.358 14.025,104.75 15.025,104.589 15.025,102.196 "/>
<polygon fill="#085DA8" points="14.025,91.366 14.025,93.762 15.025,93.591 15.025,91.193 "/>
<polygon fill="#085DA8" points="14.025,88.619 14.025,91.014 15.025,90.841 15.025,88.443 "/>
<polygon fill="#085DA8" points="14.025,94.114 14.025,96.51 15.025,96.342 15.025,93.944 "/>
<polygon fill="#085DA8" points="14.025,99.61 14.025,102.007 15.025,101.845 15.025,99.445 "/>
<polygon fill="#085DA8" points="14.025,96.863 14.025,99.258 15.025,99.093 15.025,96.696 "/>
<polygon fill="#085DA8" points="14.025,85.871 14.025,88.266 15.025,88.089 15.025,85.692 "/>
<polygon fill="#085DA8" points="14.025,80.34 14.025,82.757 15.025,82.564 15.025,80.123 "/>
<polygon fill="#085DA8" points="14.025,83.111 14.025,85.518 15.025,85.339 15.025,82.919 "/>
<polygon fill="#085DA8" points="12.025,102.628 12.025,105.021 13.025,104.858 13.025,102.466 "/>
<polygon fill="#085DA8" points="12.025,135.529 12.025,137.925 13.025,137.826 13.025,135.432 "/>
<polygon fill="#085DA8" points="14.025,110.46 14.025,112.893 15.025,112.731 15.025,110.298 "/>
<polygon fill="#085DA8" points="14.025,107.848 14.025,110.108 15.025,109.946 15.025,107.687 "/>
<polygon fill="#085DA8" points="12.025,99.885 12.025,102.275 13.025,102.114 13.025,99.72 "/>
<polygon fill="#085DA8" points="14.025,105.104 14.025,107.495 15.025,107.333 15.025,104.941 "/>
<polygon fill="#085DA8" points="12.025,108.117 12.025,110.377 13.025,110.215 13.025,107.955 "/>
<polygon fill="#085DA8" points="12.025,105.372 12.025,107.766 13.025,107.604 13.025,105.21 "/>
<polygon fill="#085DA8" points="12.025,154.73 12.025,157.126 13.025,157.05 13.025,154.655 "/>
<polygon fill="#085DA8" points="12.025,176.688 12.025,179.084 13.025,179.007 13.025,176.612 "/>
<polygon fill="#085DA8" points="12.025,171.199 12.025,173.594 13.025,173.519 13.025,171.123 "/>
<polygon fill="#085DA8" points="12.025,182.178 12.025,184.573 13.025,184.497 13.025,182.102 "/>
<polygon fill="#085DA8" points="12.025,173.943 12.025,176.339 13.025,176.264 13.025,173.867 "/>
<polygon fill="#085DA8" points="12.025,179.434 12.025,181.828 13.025,181.752 13.025,179.357 "/>
<polygon fill="#085DA8" points="14.025,182.051 14.025,184.446 15.025,184.37 15.025,181.975 "/>
<polygon fill="#085DA8" points="12.025,184.922 12.025,187.277 13.025,187.201 13.025,184.846 "/>
<polygon fill="#085DA8" points="14.025,184.796 14.025,187.15 15.025,187.074 15.025,184.72 "/>
<polygon fill="#085DA8" points="12.025,165.709 12.025,168.105 13.025,168.028 13.025,165.633 "/>
<polygon fill="#085DA8" points="12.025,157.475 12.025,159.871 13.025,159.794 13.025,157.399 "/>
<polygon fill="#085DA8" points="12.025,168.454 12.025,170.851 13.025,170.773 13.025,168.377 "/>
<polygon fill="#085DA8" points="12.025,151.998 12.025,154.382 13.025,154.306 13.025,151.899 "/>
<polygon fill="#085DA8" points="12.025,132.784 12.025,135.18 13.025,135.082 13.025,132.688 "/>
<polygon fill="#085DA8" points="14.025,77.592 14.025,79.984 15.025,79.767 15.025,77.372 "/>
<polygon fill="#085DA8" points="12.025,160.22 12.025,162.616 13.025,162.539 13.025,160.143 "/>
<polygon fill="#085DA8" points="14.025,179.307 14.025,181.701 15.025,181.625 15.025,179.229 "/>
<polygon fill="#085DA8" points="12.025,162.965 12.025,165.36 13.025,165.284 13.025,162.889 "/>
<polygon fill="#085DA8" points="12.025,3.952 12.025,6.318 13.025,5.96 13.025,3.587 "/>
<polygon fill="#085DA8" points="12.025,121.661 12.025,124.097 13.025,123.999 13.025,121.564 "/>
<polygon fill="#085DA8" points="12.025,119.084 12.025,121.312 13.025,121.214 13.025,118.944 "/>
<polygon fill="#085DA8" points="14.025,146.346 14.025,148.74 15.025,148.644 15.025,146.248 "/>
<polygon fill="#085DA8" points="14.025,176.562 14.025,178.957 15.025,178.88 15.025,176.485 "/>
<polygon fill="#085DA8" points="12.025,124.447 12.025,126.945 13.025,126.848 13.025,124.349 "/>
<polygon fill="#085DA8" points="12.025,130.039 12.025,132.435 13.025,132.338 13.025,129.942 "/>
<polygon fill="#085DA8" points="14.025,151.835 14.025,154.255 15.025,154.179 15.025,151.737 "/>
<polygon fill="#085DA8" points="12.025,127.295 12.025,129.69 13.025,129.593 13.025,127.197 "/>
<polygon fill="#085DA8" points="14.025,149.091 14.025,151.485 15.025,151.388 15.025,148.992 "/>
<polygon fill="#085DA8" points="14.025,154.604 14.025,156.999 15.025,156.923 15.025,154.527 "/>
<polygon fill="#085DA8" points="14.025,168.327 14.025,170.724 15.025,170.646 15.025,168.251 "/>
<polygon fill="#085DA8" points="14.025,173.816 14.025,176.212 15.025,176.137 15.025,173.74 "/>
<polygon fill="#085DA8" points="14.025,165.582 14.025,167.979 15.025,167.902 15.025,165.506 "/>
<polygon fill="#085DA8" points="14.025,171.072 14.025,173.467 15.025,173.392 15.025,170.995 "/>
<polygon fill="#085DA8" points="14.025,162.838 14.025,165.233 15.025,165.157 15.025,162.761 "/>
<polygon fill="#085DA8" points="14.025,157.348 14.025,159.744 15.025,159.667 15.025,157.272 "/>
<polygon fill="#085DA8" points="14.025,160.093 14.025,162.489 15.025,162.412 15.025,160.018 "/>
<polygon fill="#085DA8" points="12.025,66.985 12.025,69.373 13.025,69.144 13.025,66.754 "/>
<polygon fill="#085DA8" points="12.025,61.499 12.025,63.885 13.025,63.652 13.025,61.262 "/>
<polygon fill="#085DA8" points="12.025,64.242 12.025,66.629 13.025,66.397 13.025,64.008 "/>
<polygon fill="#085DA8" points="12.025,58.756 12.025,61.142 13.025,60.905 13.025,58.517 "/>
<polygon fill="#085DA8" points="12.025,56.013 12.025,58.398 13.025,58.159 13.025,55.771 "/>
<polygon fill="#085DA8" points="12.025,72.472 12.025,74.859 13.025,74.636 13.025,72.247 "/>
<polygon fill="#085DA8" points="12.025,69.729 12.025,72.116 13.025,71.891 13.025,69.5 "/>
<polygon fill="#085DA8" points="12.025,53.125 12.025,55.656 13.025,55.414 13.025,52.879 "/>
<polygon fill="#085DA8" points="12.025,42.151 12.025,44.693 13.025,44.418 13.025,41.873 "/>
<polygon fill="#085DA8" points="12.025,39.447 12.025,41.79 13.025,41.512 13.025,39.166 "/>
<polygon fill="#085DA8" points="12.025,36.745 12.025,39.086 13.025,38.806 13.025,36.46 "/>
<polygon fill="#085DA8" points="12.025,77.958 12.025,80.345 13.025,80.129 13.025,77.738 "/>
<polygon fill="#085DA8" points="12.025,34.041 12.025,36.384 13.025,36.099 13.025,33.754 "/>
<polygon fill="#085DA8" points="12.025,50.533 12.025,52.768 13.025,52.522 13.025,50.274 "/>
<polygon fill="#085DA8" points="12.025,45.052 12.025,47.437 13.025,47.164 13.025,44.778 "/>
<polygon fill="#085DA8" points="12.025,31.337 12.025,33.68 13.025,33.394 13.025,31.048 "/>
<polygon fill="#085DA8" points="12.025,47.795 12.025,50.175 13.025,49.915 13.025,47.523 "/>
<polygon fill="#085DA8" points="12.025,187.627 12.025,190.062 13.025,189.987 13.025,187.55 "/>
<polygon fill="#085DA8" points="12.025,116.462 12.025,118.734 13.025,118.593 13.025,116.322 "/>
<polygon fill="#085DA8" points="12.025,80.701 12.025,83.078 13.025,82.886 13.025,80.484 "/>
<polygon fill="#085DA8" points="12.025,149.253 12.025,151.647 13.025,151.551 13.025,149.155 "/>
<polygon fill="#085DA8" points="14.025,187.5 14.025,189.936 15.025,189.86 15.025,187.424 "/>
<polygon fill="#085DA8" points="12.025,86.169 12.025,88.559 13.025,88.383 13.025,85.991 "/>
<polygon fill="#085DA8" points="12.025,88.912 12.025,91.302 13.025,91.129 13.025,88.737 "/>
<polygon fill="#085DA8" points="12.025,110.729 12.025,113.163 13.025,113.001 13.025,110.568 "/>
<polygon fill="#085DA8" points="12.025,97.142 12.025,99.532 13.025,99.368 13.025,96.975 "/>
<polygon fill="#085DA8" points="12.025,91.655 12.025,94.045 13.025,93.875 13.025,91.482 "/>
<polygon fill="#085DA8" points="14.025,74.844 14.025,77.236 15.025,77.017 15.025,74.621 "/>
<polygon fill="#085DA8" points="14.025,41.688 14.025,44.235 15.025,43.96 15.025,41.409 "/>
<polygon fill="#085DA8" points="14.025,36.271 14.025,38.618 15.025,38.337 15.025,35.988 "/>
<polygon fill="#085DA8" points="14.025,47.342 14.025,49.742 15.025,49.484 15.025,47.069 "/>
<polygon fill="#085DA8" points="14.025,44.595 14.025,46.982 15.025,46.71 15.025,44.321 "/>
<polygon fill="#085DA8" points="14.025,33.563 14.025,35.91 15.025,35.627 15.025,33.277 "/>
<polygon fill="#085DA8" points="14.025,28.148 14.025,30.494 15.025,30.205 15.025,27.856 "/>
<polygon fill="#085DA8" points="14.025,30.855 14.025,33.202 15.025,32.916 15.025,30.566 "/>
<polygon fill="#085DA8" points="14.025,50.102 14.025,52.358 15.025,52.113 15.025,49.843 "/>
<polygon fill="#085DA8" points="14.025,69.348 14.025,71.74 15.025,71.515 15.025,69.12 "/>
<polygon fill="#085DA8" points="14.025,63.853 14.025,66.244 15.025,66.013 15.025,63.619 "/>
<polygon fill="#085DA8" points="14.025,72.097 14.025,74.487 15.025,74.266 15.025,71.871 "/>
<polygon fill="#085DA8" points="14.025,61.105 14.025,63.495 15.025,63.262 15.025,60.868 "/>
<polygon fill="#085DA8" points="14.025,52.716 14.025,55.251 15.025,55.009 15.025,52.471 "/>
<polygon fill="#085DA8" points="14.025,58.357 14.025,60.747 15.025,60.511 15.025,58.117 "/>
<polygon fill="#085DA8" points="14.025,11.604 14.025,13.946 15.025,13.607 15.025,11.263 "/>
<polygon fill="#085DA8" points="12.025,14.876 12.025,17.295 13.025,16.97 13.025,14.538 "/>
<polygon fill="#085DA8" points="12.025,17.66 12.025,19.999 13.025,19.677 13.025,17.335 "/>
<polygon fill="#085DA8" points="12.025,12.174 12.025,14.51 13.025,14.172 13.025,11.832 "/>
<polygon fill="#085DA8" points="12.025,9.389 12.025,11.806 13.025,11.465 13.025,9.034 "/>
<polygon fill="#085DA8" points="12.025,23.066 12.025,25.405 13.025,25.089 13.025,22.746 "/>
<polygon fill="#085DA8" points="12.025,25.77 12.025,28.273 13.025,27.98 13.025,25.453 "/>
<polygon fill="#085DA8" points="12.025,20.364 12.025,22.703 13.025,22.384 13.025,20.042 "/>
<polygon fill="#085DA8" points="12.025,6.687 12.025,9.021 13.025,8.667 13.025,6.328 "/>
<polygon fill="#085DA8" points="14.025,6.09 14.025,8.43 15.025,8.074 15.025,5.731 "/>
<polygon fill="#085DA8" points="14.025,17.118 14.025,19.462 15.025,19.139 15.025,16.793 "/>
<polygon fill="#085DA8" points="14.025,14.312 14.025,16.754 15.025,16.429 15.025,13.973 "/>
<polygon fill="#085DA8" points="14.025,19.826 14.025,22.17 15.025,21.85 15.025,19.504 "/>
<polygon fill="#085DA8" points="14.025,3.344 14.025,5.722 15.025,5.364 15.025,2.979 "/>
<polygon fill="#085DA8" points="14.025,22.534 14.025,24.878 15.025,24.562 15.025,22.214 "/>
<polygon fill="#085DA8" points="14.025,8.798 14.025,11.238 15.025,10.896 15.025,8.443 "/>
<polygon fill="#085DA8" points="12.025,28.635 12.025,30.977 13.025,30.687 13.025,28.343 "/>
<polygon fill="#085DA8" points="34.025,58.181 35.025,58.485 35.025,56.1 34.025,55.794 "/>
<polygon fill="#085DA8" points="34.025,63.683 35.025,63.98 35.025,61.595 34.025,61.293 "/>
<polygon fill="#085DA8" points="34.025,60.932 35.025,61.233 35.025,58.848 34.025,58.543 "/>
<polygon fill="#085DA8" points="34.025,66.433 35.025,66.728 35.025,64.342 34.025,64.044 "/>
<polygon fill="#085DA8" points="34.025,55.431 35.025,55.737 35.025,53.208 34.025,52.898 "/>
<polygon fill="#085DA8" points="34.025,49.908 35.025,50.231 35.025,47.837 34.025,47.5 "/>
<polygon fill="#085DA8" points="34.025,69.183 35.025,69.475 35.025,67.09 34.025,66.794 "/>
<polygon fill="#085DA8" points="34.025,52.535 35.025,52.845 35.025,50.595 34.025,50.271 "/>
<polygon fill="#085DA8" points="34.025,77.436 35.025,77.718 35.025,75.333 34.025,75.045 "/>
<polygon fill="#085DA8" points="34.025,85.753 35.025,85.996 35.025,83.596 34.025,83.338 "/>
<polygon fill="#085DA8" points="34.025,91.254 35.025,91.492 35.025,89.101 34.025,88.861 "/>
<polygon fill="#085DA8" points="34.025,88.503 35.025,88.744 35.025,86.354 34.025,86.11 "/>
<polygon fill="#085DA8" points="34.025,80.186 35.025,80.467 35.025,78.08 34.025,77.797 "/>
<polygon fill="#085DA8" points="34.025,74.684 35.025,74.971 35.025,72.585 34.025,72.295 "/>
<polygon fill="#085DA8" points="34.025,47.135 35.025,47.472 35.025,45.09 34.025,44.752 "/>
<polygon fill="#085DA8" points="34.025,71.935 35.025,72.224 35.025,69.837 34.025,69.545 "/>
<polygon fill="#085DA8" points="34.025,11.33 35.025,11.735 35.025,9.305 34.025,8.885 "/>
<polygon fill="#085DA8" points="34.025,14.04 35.025,14.443 35.025,12.109 34.025,11.703 "/>
<polygon fill="#085DA8" points="34.025,19.571 35.025,19.957 35.025,17.621 34.025,17.232 "/>
<polygon fill="#085DA8" points="34.025,8.51 35.025,8.929 35.025,6.597 34.025,6.175 "/>
<polygon fill="#085DA8" points="34.025,16.86 35.025,17.249 35.025,14.816 34.025,14.413 "/>
<polygon fill="#085DA8" points="36.025,190.496 37.025,190.636 37.025,188.202 36.025,188.061 "/>
<polygon fill="#085DA8" points="34.025,190.262 35.025,190.402 35.025,187.968 34.025,187.828 "/>
<polygon fill="#085DA8" points="34.025,5.799 35.025,6.221 35.025,3.855 34.025,3.427 "/>
<polygon fill="#085DA8" points="34.025,22.281 35.025,22.665 35.025,20.329 34.025,19.941 "/>
<polygon fill="#085DA8" points="34.025,33.343 35.025,33.693 35.025,31.353 34.025,30.999 "/>
<polygon fill="#085DA8" points="34.025,36.053 35.025,36.4 35.025,34.061 34.025,33.709 "/>
<polygon fill="#085DA8" points="34.025,38.763 35.025,39.109 35.025,36.768 34.025,36.42 "/>
<polygon fill="#085DA8" points="34.025,41.474 35.025,41.817 35.025,39.475 34.025,39.13 "/>
<polygon fill="#085DA8" points="34.025,44.386 35.025,44.725 35.025,42.184 34.025,41.841 "/>
<polygon fill="#085DA8" points="34.025,24.992 35.025,25.374 35.025,23.035 34.025,22.652 "/>
<polygon fill="#085DA8" points="34.025,27.921 35.025,28.277 35.025,25.743 34.025,25.362 "/>
<polygon fill="#085DA8" points="34.025,30.632 35.025,30.986 35.025,28.646 34.025,28.289 "/>
<polygon fill="#085DA8" points="34.025,124.241 35.025,124.402 35.025,121.97 34.025,121.808 "/>
<polygon fill="#085DA8" points="34.025,160.069 35.025,160.21 35.025,157.815 34.025,157.676 "/>
<polygon fill="#085DA8" points="34.025,157.325 35.025,157.465 35.025,155.071 34.025,154.932 "/>
<polygon fill="#085DA8" points="34.025,154.581 35.025,154.721 35.025,152.307 34.025,152.145 "/>
<polygon fill="#085DA8" points="34.025,162.814 35.025,162.955 35.025,160.561 34.025,160.421 "/>
<polygon fill="#085DA8" points="34.025,151.792 35.025,151.953 35.025,149.562 34.025,149.399 "/>
<polygon fill="#085DA8" points="34.025,146.303 35.025,146.465 35.025,144.072 34.025,143.91 "/>
<polygon fill="#085DA8" points="34.025,149.048 35.025,149.209 35.025,146.817 34.025,146.655 "/>
<polygon fill="#085DA8" points="34.025,165.559 35.025,165.699 35.025,163.306 34.025,163.166 "/>
<polygon fill="#085DA8" points="34.025,94.004 35.025,94.239 35.025,91.848 34.025,91.611 "/>
<polygon fill="#085DA8" points="34.025,143.558 35.025,143.72 35.025,141.327 34.025,141.165 "/>
<polygon fill="#085DA8" points="34.025,184.772 35.025,184.912 35.025,182.519 34.025,182.379 "/>
<polygon fill="#085DA8" points="34.025,182.028 35.025,182.168 35.025,179.774 34.025,179.634 "/>
<polygon fill="#085DA8" points="34.025,187.477 35.025,187.616 35.025,185.264 34.025,185.122 "/>
<polygon fill="#085DA8" points="34.025,176.538 35.025,176.678 35.025,174.284 34.025,174.145 "/>
<polygon fill="#085DA8" points="34.025,168.304 35.025,168.443 35.025,166.05 34.025,165.91 "/>
<polygon fill="#085DA8" points="34.025,171.049 35.025,171.188 35.025,168.795 34.025,168.655 "/>
<polygon fill="#085DA8" points="34.025,173.794 35.025,173.934 35.025,171.54 34.025,171.399 "/>
<polygon fill="#085DA8" points="34.025,179.283 35.025,179.423 35.025,177.029 34.025,176.889 "/>
<polygon fill="#085DA8" points="34.025,113.144 35.025,113.37 35.025,110.94 34.025,110.714 "/>
<polygon fill="#085DA8" points="34.025,110.358 35.025,110.584 35.025,108.328 34.025,108.103 "/>
<polygon fill="#085DA8" points="34.025,107.745 35.025,107.972 35.025,105.583 34.025,105.356 "/>
<polygon fill="#085DA8" points="34.025,118.769 35.025,118.973 35.025,116.706 34.025,116.501 "/>
<polygon fill="#085DA8" points="34.025,116.146 35.025,116.352 35.025,113.726 34.025,113.499 "/>
<polygon fill="#085DA8" points="34.025,99.506 35.025,99.735 35.025,97.343 34.025,97.112 "/>
<polygon fill="#085DA8" points="34.025,102.257 35.025,102.482 35.025,100.092 34.025,99.862 "/>
<polygon fill="#085DA8" points="34.025,105.001 35.025,105.228 35.025,102.839 34.025,102.611 "/>
<polygon fill="#085DA8" points="34.025,132.579 35.025,132.74 35.025,130.349 34.025,130.188 "/>
<polygon fill="#085DA8" points="34.025,121.456 35.025,121.618 35.025,119.327 34.025,119.123 "/>
<polygon fill="#085DA8" points="34.025,140.813 35.025,140.976 35.025,138.582 34.025,138.421 "/>
<polygon fill="#085DA8" points="34.025,138.068 35.025,138.23 35.025,135.838 34.025,135.677 "/>
<polygon fill="#085DA8" points="34.025,135.323 35.025,135.485 35.025,133.094 34.025,132.932 "/>
<polygon fill="#085DA8" points="34.025,129.834 35.025,129.996 35.025,127.604 34.025,127.442 "/>
<polygon fill="#085DA8" points="36.025,187.711 37.025,187.851 37.025,185.497 36.025,185.356 "/>
<polygon fill="#085DA8" points="34.025,127.089 35.025,127.251 35.025,124.755 34.025,124.593 "/>
<polygon fill="#085DA8" points="34.025,96.755 35.025,96.987 35.025,94.596 34.025,94.362 "/>
<polygon fill="#085DA8" points="36.025,58.688 37.025,58.991 37.025,56.611 36.025,56.304 "/>
<polygon fill="#085DA8" points="36.025,55.941 37.025,56.249 37.025,53.724 36.025,53.415 "/>
<polygon fill="#085DA8" points="36.025,53.051 37.025,53.361 37.025,51.134 36.025,50.811 "/>
<polygon fill="#085DA8" points="36.025,64.179 37.025,64.477 37.025,62.096 36.025,61.796 "/>
<polygon fill="#085DA8" points="36.025,61.433 37.025,61.734 37.025,59.354 36.025,59.05 "/>
<polygon fill="#085DA8" points="36.025,44.951 37.025,45.289 37.025,42.754 36.025,42.412 "/>
<polygon fill="#085DA8" points="36.025,47.696 37.025,48.033 37.025,45.655 36.025,45.316 "/>
<polygon fill="#085DA8" points="36.025,50.446 37.025,50.769 37.025,48.398 36.025,48.062 "/>
<polygon fill="#085DA8" points="36.025,72.417 37.025,72.707 37.025,70.325 36.025,70.033 "/>
<polygon fill="#085DA8" points="36.025,83.408 37.025,83.665 37.025,81.296 36.025,81.015 "/>
<polygon fill="#085DA8" points="36.025,185.006 37.025,185.146 37.025,182.753 36.025,182.613 "/>
<polygon fill="#085DA8" points="36.025,80.655 37.025,80.936 37.025,78.553 36.025,78.269 "/>
<polygon fill="#085DA8" points="36.025,86.158 37.025,86.401 37.025,84.023 36.025,83.767 "/>
<polygon fill="#085DA8" points="36.025,42.044 37.025,42.388 37.025,40.052 36.025,39.706 "/>
<polygon fill="#085DA8" points="36.025,69.671 37.025,69.964 37.025,67.582 36.025,67.287 "/>
<polygon fill="#085DA8" points="36.025,75.162 37.025,75.449 37.025,73.068 36.025,72.778 "/>
<polygon fill="#085DA8" points="36.025,66.925 37.025,67.22 37.025,64.839 36.025,64.541 "/>
<polygon fill="#085DA8" points="36.025,9.208 37.025,9.627 37.025,7.3 36.025,6.878 "/>
<polygon fill="#085DA8" points="36.025,88.904 37.025,89.144 37.025,86.758 36.025,86.515 "/>
<polygon fill="#085DA8" points="36.025,6.502 37.025,6.925 37.025,4.57 36.025,4.141 "/>
<polygon fill="#085DA8" points="36.025,14.711 37.025,15.115 37.025,12.785 36.025,12.378 "/>
<polygon fill="#085DA8" points="36.025,12.005 37.025,12.411 37.025,10.003 36.025,9.583 "/>
<polygon fill="#085DA8" points="36.025,39.339 37.025,39.684 37.025,37.348 36.025,37 "/>
<polygon fill="#085DA8" points="36.025,28.515 37.025,28.871 37.025,26.378 36.025,25.997 "/>
<polygon fill="#085DA8" points="36.025,17.509 37.025,17.899 37.025,15.488 36.025,15.085 "/>
<polygon fill="#085DA8" points="36.025,31.221 37.025,31.575 37.025,29.239 36.025,28.883 "/>
<polygon fill="#085DA8" points="36.025,36.633 37.025,36.981 37.025,34.645 36.025,34.294 "/>
<polygon fill="#085DA8" points="36.025,33.928 37.025,34.278 37.025,31.942 36.025,31.588 "/>
<polygon fill="#085DA8" points="36.025,20.215 37.025,20.601 37.025,18.27 36.025,17.88 "/>
<polygon fill="#085DA8" points="36.025,22.92 37.025,23.304 37.025,20.973 36.025,20.585 "/>
<polygon fill="#085DA8" points="36.025,25.627 37.025,26.008 37.025,23.676 36.025,23.292 "/>
<polygon fill="#085DA8" points="36.025,77.909 37.025,78.193 37.025,75.81 36.025,75.524 "/>
<polygon fill="#085DA8" points="36.025,138.338 37.025,138.5 37.025,136.107 36.025,135.946 "/>
<polygon fill="#085DA8" points="36.025,152.062 37.025,152.224 37.025,149.831 36.025,149.67 "/>
<polygon fill="#085DA8" points="36.025,149.316 37.025,149.479 37.025,147.087 36.025,146.925 "/>
<polygon fill="#085DA8" points="36.025,157.559 37.025,157.699 37.025,155.306 36.025,155.166 "/>
<polygon fill="#085DA8" points="36.025,141.082 37.025,141.244 37.025,138.853 36.025,138.69 "/>
<polygon fill="#085DA8" points="36.025,160.304 37.025,160.443 37.025,158.05 36.025,157.91 "/>
<polygon fill="#085DA8" points="36.025,146.572 37.025,146.734 37.025,144.342 36.025,144.181 "/>
<polygon fill="#085DA8" points="36.025,143.827 37.025,143.989 37.025,141.598 36.025,141.436 "/>
<polygon fill="#085DA8" points="36.025,154.814 37.025,154.955 37.025,152.575 36.025,152.415 "/>
<polygon fill="#085DA8" points="36.025,174.027 37.025,174.167 37.025,171.774 36.025,171.634 "/>
<polygon fill="#085DA8" points="36.025,176.771 37.025,176.912 37.025,174.518 36.025,174.378 "/>
<polygon fill="#085DA8" points="36.025,179.517 37.025,179.657 37.025,177.263 36.025,177.123 "/>
<polygon fill="#085DA8" points="36.025,182.262 37.025,182.402 37.025,180.008 36.025,179.868 "/>
<polygon fill="#085DA8" points="36.025,163.049 37.025,163.188 37.025,160.795 36.025,160.654 "/>
<polygon fill="#085DA8" points="36.025,165.793 37.025,165.933 37.025,163.54 36.025,163.399 "/>
<polygon fill="#085DA8" points="36.025,168.538 37.025,168.678 37.025,166.284 36.025,166.144 "/>
<polygon fill="#085DA8" points="36.025,171.283 37.025,171.423 37.025,169.029 36.025,168.889 "/>
<polygon fill="#085DA8" points="36.025,132.849 37.025,133.011 37.025,130.618 36.025,130.456 "/>
<polygon fill="#085DA8" points="36.025,105.378 37.025,105.604 37.025,103.215 36.025,102.988 "/>
<polygon fill="#085DA8" points="36.025,113.52 37.025,113.746 37.025,111.317 36.025,111.091 "/>
<polygon fill="#085DA8" points="36.025,135.594 37.025,135.755 37.025,133.363 36.025,133.201 "/>
<polygon fill="#085DA8" points="36.025,110.734 37.025,110.96 37.025,108.704 36.025,108.479 "/>
<polygon fill="#085DA8" points="36.025,102.633 37.025,102.858 37.025,100.473 36.025,100.243 "/>
<polygon fill="#085DA8" points="36.025,99.887 37.025,100.116 37.025,97.729 36.025,97.498 "/>
<polygon fill="#085DA8" points="36.025,94.395 37.025,94.63 37.025,92.244 36.025,92.006 "/>
<polygon fill="#085DA8" points="36.025,108.123 37.025,108.349 37.025,105.96 36.025,105.733 "/>
<polygon fill="#085DA8" points="36.025,116.487 37.025,116.692 37.025,114.103 36.025,113.876 "/>
<polygon fill="#085DA8" points="36.025,130.104 37.025,130.266 37.025,127.873 36.025,127.712 "/>
<polygon fill="#085DA8" points="36.025,91.65 37.025,91.888 37.025,89.502 36.025,89.261 "/>
<polygon fill="#085DA8" points="36.025,127.359 37.025,127.521 37.025,125.024 36.025,124.863 "/>
<polygon fill="#085DA8" points="36.025,119.109 37.025,119.313 37.025,117.047 36.025,116.842 "/>
<polygon fill="#085DA8" points="36.025,124.511 37.025,124.673 37.025,122.239 36.025,122.078 "/>
<polygon fill="#085DA8" points="36.025,121.726 37.025,121.888 37.025,119.668 36.025,119.463 "/>
<polygon fill="#085DA8" points="0.204,171.123 0.21,172.165 3.025,171.97 3.025,170.922 "/>
<polygon fill="#085DA8" points="0.204,168.378 0.21,169.42 3.025,169.225 3.025,168.177 "/>
<polygon fill="#085DA8" points="0.204,176.611 0.21,177.653 3.025,177.459 3.025,176.411 "/>
<polygon fill="#085DA8" points="0.204,179.356 0.21,180.398 3.025,180.204 3.025,179.155 "/>
<polygon fill="#085DA8" points="0.204,160.144 0.21,161.186 3.025,160.99 3.025,159.942 "/>
<polygon fill="#085DA8" points="0.204,162.889 0.21,163.93 3.025,163.735 3.025,162.688 "/>
<polygon fill="#085DA8" points="0,8.833 0.413,9.819 3.025,8.931 3.025,7.824 "/>
<polygon fill="#085DA8" points="0.003,11.514 0.411,12.502 3.025,11.629 3.025,10.525 "/>
<polygon fill="#085DA8" points="0.004,14.195 0.409,15.184 3.024,14.317 3.024,13.215 "/>
<polygon fill="#085DA8" points="0.01,16.875 0.403,17.867 3.025,17.032 3.025,15.935 "/>
<polygon fill="#085DA8" points="0.204,184.846 0.21,185.888 3.025,185.692 3.025,184.645 "/>
<polygon fill="#085DA8" points="0.204,182.102 0.21,183.143 3.025,182.947 3.025,181.9 "/>
<polygon fill="#085DA8" points="0.161,108.695 0.252,109.727 3.025,109.319 3.025,108.262 "/>
<polygon fill="#085DA8" points="0.192,124.493 0.222,125.533 3.024,125.283 3.024,124.235 "/>
<polygon fill="#085DA8" points="0.192,130.127 0.222,131.167 3.024,130.918 3.024,129.869 "/>
<polygon fill="#085DA8" points="0.192,127.278 0.222,128.318 3.024,128.069 3.024,127.021 "/>
<polygon fill="#085DA8" points="0.161,114.052 0.252,115.084 3.025,114.677 3.025,113.619 "/>
<polygon fill="#085DA8" points="0.171,119.621 0.242,120.656 3.025,120.3 3.025,119.247 "/>
<polygon fill="#085DA8" points="0.161,105.95 0.252,106.982 3.025,106.575 3.025,105.517 "/>
<polygon fill="#085DA8" points="0.011,19.556 0.402,20.549 3.025,19.722 3.025,18.624 "/>
<polygon fill="#085DA8" points="0.192,146.595 0.222,147.635 3.024,147.386 3.024,146.337 "/>
<polygon fill="#085DA8" points="0.192,152.085 0.222,153.125 3.024,152.875 3.024,151.827 "/>
<polygon fill="#085DA8" points="0.192,149.34 0.222,150.379 3.024,150.131 3.024,149.082 "/>
<polygon fill="#085DA8" points="0.192,135.616 0.222,136.656 3.024,136.407 3.024,135.358 "/>
<polygon fill="#085DA8" points="0.192,138.36 0.222,139.4 3.024,139.151 3.024,138.103 "/>
<polygon fill="#085DA8" points="0.192,141.105 0.222,142.145 3.024,141.896 3.024,140.848 "/>
<polygon fill="#085DA8" points="0.065,81.723 0.348,82.745 3.025,82.196 3.025,81.13 "/>
<polygon fill="#085DA8" points="0.066,84.444 0.348,85.467 3.024,84.925 3.024,83.858 "/>
<polygon fill="#085DA8" points="0.084,89.622 0.33,90.652 3.024,90.202 3.024,89.142 "/>
<polygon fill="#085DA8" points="0.078,86.989 0.335,88.017 3.025,87.533 3.025,86.471 "/>
<polygon fill="#085DA8" points="0.06,70.837 0.354,71.858 3.024,71.282 3.024,70.211 "/>
<polygon fill="#085DA8" points="0.061,73.559 0.353,74.58 3.025,74.011 3.025,72.942 "/>
<polygon fill="#085DA8" points="0.064,79.001 0.35,80.022 3.025,79.467 3.025,78.4 "/>
<polygon fill="#085DA8" points="0.087,95.065 0.326,96.097 3.025,95.66 3.025,94.602 "/>
<polygon fill="#085DA8" points="0.017,22.236 0.397,23.232 3.025,22.437 3.025,21.342 "/>
<polygon fill="#085DA8" points="0.093,116.837 0.322,117.869 3.025,117.461 3.025,116.404 "/>
<polygon fill="#085DA8" points="0.088,97.786 0.325,98.817 3.025,98.388 3.025,97.33 "/>
<polygon fill="#085DA8" points="0.091,103.229 0.322,104.261 3.025,103.847 3.025,102.788 "/>
<polygon fill="#085DA8" points="0.059,68.117 0.355,69.136 3.024,68.553 3.024,67.483 "/>
<polygon fill="#085DA8" points="0.09,100.508 0.324,101.539 3.025,101.117 3.025,100.06 "/>
<polygon fill="#085DA8" points="0.034,38.32 0.379,39.328 3.025,38.621 3.025,37.538 "/>
<polygon fill="#085DA8" points="0.037,43.683 0.377,44.691 3.025,43.998 3.025,42.916 "/>
<polygon fill="#085DA8" points="0.032,32.958 0.381,33.963 3.024,33.242 3.024,32.158 "/>
<polygon fill="#085DA8" points="0.035,41.001 0.378,42.01 3.025,41.31 3.025,40.227 "/>
<polygon fill="#085DA8" points="0.033,35.639 0.38,36.646 3.025,35.932 3.025,34.847 "/>
<polygon fill="#085DA8" points="0.018,24.917 0.395,25.915 3.025,25.125 3.025,24.031 "/>
<polygon fill="#085DA8" points="0.021,30.279 0.393,31.279 3.025,30.502 3.025,29.411 "/>
<polygon fill="#085DA8" points="0.02,27.598 0.393,28.597 3.025,27.813 3.025,26.721 "/>
<polygon fill="#085DA8" points="0.056,62.674 0.357,63.692 3.025,63.097 3.025,62.024 "/>
<polygon fill="#085DA8" points="0.057,65.395 0.357,66.414 3.025,65.824 3.025,64.754 "/>
<polygon fill="#085DA8" points="0.053,57.087 0.36,58.103 3.025,57.494 3.025,56.421 "/>
<polygon fill="#085DA8" points="0.047,54.599 0.367,55.612 3.025,54.971 3.025,53.895 "/>
<polygon fill="#085DA8" points="0.04,49.237 0.374,50.248 3.024,49.569 3.024,48.489 "/>
<polygon fill="#085DA8" points="0.041,51.966 0.373,52.976 3.024,52.303 3.024,51.224 "/>
<polygon fill="#085DA8" points="45.025,131.551 49.194,132.208 49.391,131.176 45.025,130.493 "/>
<polygon fill="#085DA8" points="45.025,153.508 49.194,154.165 49.391,153.133 45.025,152.451 "/>
<polygon fill="#085DA8" points="45.025,137.04 49.194,137.696 49.391,136.665 45.025,135.982 "/>
<polygon fill="#085DA8" points="45.025,150.764 49.194,151.421 49.391,150.389 45.025,149.706 "/>
<polygon fill="#085DA8" points="45.025,148.019 49.194,148.676 49.391,147.644 45.025,146.962 "/>
<polygon fill="#085DA8" points="45.025,142.528 49.194,143.187 49.391,142.154 45.025,141.472 "/>
<polygon fill="#085DA8" points="45.025,112.6 49.163,113.511 49.421,112.49 45.025,111.531 "/>
<polygon fill="#085DA8" points="45.025,117.996 49.163,118.908 49.421,117.888 45.025,116.929 "/>
<polygon fill="#085DA8" points="45.025,115.212 49.163,116.123 49.421,115.102 45.025,114.143 "/>
<polygon fill="#085DA8" points="45.025,128.702 49.194,129.359 49.391,128.327 45.025,127.646 "/>
<polygon fill="#085DA8" points="45.025,120.868 49.173,121.695 49.411,120.672 45.025,119.805 "/>
<polygon fill="#085DA8" points="45.025,125.917 49.194,126.573 49.391,125.542 45.025,124.859 "/>
<polygon fill="#085DA8" points="45.025,107.11 49.163,108.021 49.421,107 45.025,106.041 "/>
<polygon fill="#085DA8" points="45.025,123.49 49.173,124.317 49.411,123.293 45.025,122.426 "/>
<polygon fill="#085DA8" points="45.025,183.613 49.204,184.185 49.38,183.148 45.025,182.559 "/>
<polygon fill="#085DA8" points="45.025,189.102 49.204,189.674 49.38,188.638 45.025,188.048 "/>
<polygon fill="#085DA8" points="45.025,178.124 49.204,178.695 49.38,177.66 45.025,177.069 "/>
<polygon fill="#085DA8" points="45.025,180.868 49.204,181.439 49.38,180.404 45.025,179.814 "/>
<polygon fill="#085DA8" points="45.025,9.161 49.112,10.854 49.473,9.887 45.025,8.031 "/>
<polygon fill="#085DA8" points="45.025,191.807 49.204,192.379 49.38,191.343 45.025,190.752 "/>
<polygon fill="#085DA8" points="45.025,172.634 49.204,173.206 49.38,172.17 45.025,171.58 "/>
<polygon fill="#085DA8" points="45.025,161.654 49.204,162.227 49.38,161.19 45.025,160.602 "/>
<polygon fill="#085DA8" points="45.025,156.253 49.194,156.91 49.391,155.878 45.025,155.196 "/>
<polygon fill="#085DA8" points="45.025,169.889 49.204,170.461 49.38,169.426 45.025,168.836 "/>
<polygon fill="#085DA8" points="45.025,167.145 49.204,167.717 49.38,166.681 45.025,166.091 "/>
<polygon fill="#085DA8" points="45.025,44.353 49.11,45.727 49.476,44.735 45.025,43.253 "/>
<polygon fill="#085DA8" points="45.025,38.968 49.107,40.364 49.477,39.374 45.025,37.866 "/>
<polygon fill="#085DA8" points="45.025,41.66 49.108,43.045 49.477,42.054 45.025,40.56 "/>
<polygon fill="#085DA8" points="45.025,36.275 49.106,37.682 49.479,36.693 45.025,35.172 "/>
<polygon fill="#085DA8" points="45.025,57.903 49.125,59.142 49.458,58.14 45.025,56.814 "/>
<polygon fill="#085DA8" points="45.025,104.377 49.162,105.3 49.422,104.28 45.025,103.308 "/>
<polygon fill="#085DA8" points="45.025,33.581 49.105,34.999 49.479,34.01 45.025,32.478 "/>
<polygon fill="#085DA8" points="45.025,52.671 49.114,54.013 49.472,53.018 45.025,51.574 "/>
<polygon fill="#085DA8" points="45.025,47.047 49.111,48.41 49.474,47.417 45.025,45.947 "/>
<polygon fill="#085DA8" points="45.025,30.804 49.095,32.313 49.489,31.333 45.025,29.691 "/>
<polygon fill="#085DA8" points="45.025,19.989 49.086,21.584 49.499,20.61 45.025,18.869 "/>
<polygon fill="#085DA8" points="45.025,14.562 49.079,16.218 49.505,15.25 45.025,13.436 "/>
<polygon fill="#085DA8" points="45.025,11.869 49.078,13.537 49.506,12.567 45.025,10.742 "/>
<polygon fill="#085DA8" points="45.025,17.296 49.085,18.902 49.5,17.928 45.025,16.176 "/>
<polygon fill="#085DA8" points="45.025,28.111 49.094,29.632 49.491,28.652 45.025,26.998 "/>
<polygon fill="#085DA8" points="45.025,25.418 49.092,26.95 49.492,25.971 45.025,24.304 "/>
<polygon fill="#085DA8" points="45.025,22.724 49.091,24.269 49.493,23.29 45.025,21.61 "/>
<polygon fill="#085DA8" points="45.025,49.935 49.113,51.283 49.473,50.29 45.025,48.837 "/>
<polygon fill="#085DA8" points="45.025,88.023 49.149,89.054 49.436,88.04 45.025,86.947 "/>
<polygon fill="#085DA8" points="45.025,90.712 49.155,91.69 49.43,90.673 45.025,89.639 "/>
<polygon fill="#085DA8" points="45.025,85.378 49.139,86.504 49.446,85.496 45.025,84.296 "/>
<polygon fill="#085DA8" points="45.025,93.444 49.157,94.412 49.428,93.395 45.025,92.373 "/>
<polygon fill="#085DA8" points="45.025,98.911 49.16,99.856 49.425,98.836 45.025,97.84 "/>
<polygon fill="#085DA8" points="45.025,101.645 49.16,102.577 49.423,101.559 45.025,100.574 "/>
<polygon fill="#085DA8" points="45.025,82.646 49.137,83.782 49.448,82.774 45.025,81.562 "/>
<polygon fill="#085DA8" points="45.025,60.782 49.126,62.008 49.457,61.005 45.025,59.693 "/>
<polygon fill="#085DA8" points="45.025,66.248 49.129,67.45 49.455,66.447 45.025,65.161 "/>
<polygon fill="#085DA8" points="45.025,79.912 49.135,81.06 49.448,80.053 45.025,78.828 "/>
<polygon fill="#085DA8" points="45.025,63.514 49.128,64.729 49.457,63.726 45.025,62.427 "/>
<polygon fill="#085DA8" points="45.025,77.179 49.134,78.339 49.45,77.332 45.025,76.095 "/>
<polygon fill="#085DA8" points="45.025,74.446 49.133,75.616 49.451,74.611 45.025,73.361 "/>
<polygon fill="#085DA8" points="45.025,71.713 49.132,72.895 49.453,71.889 45.025,70.628 "/>
</svg>
