<?xml version="1.0" encoding="utf-8"?>
<!-- Generator: Adobe Illustrator 16.0.0, SVG Export Plug-In . SVG Version: 6.00 Build 0)  -->
<!DOCTYPE svg PUBLIC "-//W3C//DTD SVG 1.1//EN" "http://www.w3.org/Graphics/SVG/1.1/DTD/svg11.dtd">
<svg version="1.1" id="Layer_1" xmlns="http://www.w3.org/2000/svg" xmlns:xlink="http://www.w3.org/1999/xlink" x="0px" y="0px"
	 width="49px" height="153.844px" viewBox="0 0 49 153.844" enable-background="new 0 0 49 153.844" xml:space="preserve">
<polygon fill="#3C3C3B" points="13,120.165 13,122.188 14,122.023 14,120 "/>
<polygon fill="#3C3C3B" points="13,123.483 13,125.503 14,125.349 14,123.328 "/>
<polygon fill="#3C3C3B" points="13,130.199 13,132.213 14,132.07 14,130.055 "/>
<polygon fill="#3C3C3B" points="18,129.191 18,131.206 19,131.062 19,129.048 "/>
<polygon fill="#3C3C3B" points="15,129.911 15,131.926 16,131.71 16,129.695 "/>
<polygon fill="#3C3C3B" points="17,129.551 17,131.566 18,131.35 18,129.336 "/>
<polygon fill="#3C3C3B" points="13,106.732 13,108.769 14,108.582 14,106.547 "/>
<polygon fill="#3C3C3B" points="13,100.174 13,102.229 14,102.013 14,99.958 "/>
<polygon fill="#3C3C3B" points="13,96.854 13,98.917 14,98.689 14,96.628 "/>
<polygon fill="#3C3C3B" points="13,116.767 13,118.791 14,118.626 14,116.602 "/>
<polygon fill="#3C3C3B" points="13,103.493 13,105.541 14,105.334 14,103.286 "/>
<polygon fill="#3C3C3B" points="13,113.369 13,115.393 14,115.228 14,113.204 "/>
<polygon fill="#3C3C3B" points="20,128.904 20,130.918 21,130.702 21,128.688 "/>
<polygon fill="#3C3C3B" points="13,110.051 13,112.081 14,111.905 14,109.876 "/>
<polygon fill="#3C3C3B" points="29,99.265 29,101.313 34,100.179 34,98.131 "/>
<polygon fill="#3C3C3B" points="29,92.201 29,94.264 34,93.015 34,90.953 "/>
<polygon fill="#3C3C3B" points="20,125.492 20,127.512 21,127.28 21,125.261 "/>
<polygon fill="#3C3C3B" points="13,93.457 13,95.52 14,95.291 14,93.229 "/>
<polygon fill="#3C3C3B" points="29,102.93 29,104.966 34,103.946 34,101.91 "/>
<polygon fill="#3C3C3B" points="29,81.873 29,83.942 34,82.638 34,80.567 "/>
<polygon fill="#3C3C3B" points="29,88.804 29,90.865 34,89.616 34,87.555 "/>
<polygon fill="#3C3C3B" points="29,85.405 29,87.468 34,86.219 34,84.156 "/>
<polygon fill="#3C3C3B" points="29,95.733 29,97.788 34,96.598 34,94.541 "/>
<polygon fill="#3C3C3B" points="22,118.271 22,120.295 23,120.048 23,118.023 "/>
<polygon fill="#3C3C3B" points="29,78.476 29,80.545 34,79.239 34,77.169 "/>
<polygon fill="#3C3C3B" points="20,122.095 20,124.113 21,123.882 21,121.862 "/>
<polygon fill="#3C3C3B" points="29,109.992 29,112.018 34,111.111 34,109.086 "/>
<polygon fill="#3C3C3B" points="34,115.883 29,116.789 29,118.812 34,117.907 "/>
<polygon fill="#3C3C3B" points="29,106.461 29,108.491 34,107.528 34,105.498 "/>
<polygon fill="#3C3C3B" points="20,118.683 20,120.707 21,120.46 21,118.436 "/>
<polygon fill="#3C3C3B" points="18,30.758 18,32.906 19,32.575 19,30.428 "/>
<polygon fill="#3C3C3B" points="18,37.55 18,39.687 19,39.367 19,37.229 "/>
<polygon fill="#3C3C3B" points="17,28.188 17,30.335 18,29.839 18,27.69 "/>
<polygon fill="#3C3C3B" points="18,34.152 18,36.29 19,35.969 19,33.832 "/>
<polygon fill="#3C3C3B" points="18,27.36 18,29.508 19,29.177 19,27.029 "/>
<polygon fill="#3C3C3B" points="13,33.075 13,35.223 14,34.892 14,32.744 "/>
<polygon fill="#3C3C3B" points="13,36.396 13,38.533 14,38.212 14,36.075 "/>
<polygon fill="#3C3C3B" points="13,29.676 13,31.824 14,31.493 14,29.346 "/>
<polygon fill="#3C3C3B" points="22,49.866 22,51.967 23,51.548 23,49.447 "/>
<polygon fill="#3C3C3B" points="13,90.059 13,92.121 14,91.894 14,89.832 "/>
<polygon fill="#3C3C3B" points="22,53.305 22,55.397 23,54.995 23,52.902 "/>
<polygon fill="#3C3C3B" points="22,46.426 22,48.537 23,48.103 23,45.992 "/>
<polygon fill="#3C3C3B" points="22,36.107 22,38.246 23,37.765 23,35.626 "/>
<polygon fill="#3C3C3B" points="22,39.547 22,41.675 23,41.21 23,39.083 "/>
<polygon fill="#3C3C3B" points="22,42.986 22,45.105 23,44.656 23,42.537 "/>
<polygon fill="#3C3C3B" points="20,36.909 20,39.046 21,38.566 21,36.428 "/>
<polygon fill="#3C3C3B" points="13,39.793 13,41.93 14,41.61 14,39.473 "/>
<polygon fill="#3C3C3B" points="13,76.625 13,78.701 14,78.454 14,76.377 "/>
<polygon fill="#3C3C3B" points="13,69.907 13,71.991 14,71.733 14,69.649 "/>
<polygon fill="#3C3C3B" points="13,83.342 13,85.41 14,85.173 14,83.104 "/>
<polygon fill="#3C3C3B" points="13,86.74 13,88.809 14,88.57 14,86.503 "/>
<polygon fill="#3C3C3B" points="13,66.587 13,68.68 14,68.411 14,66.319 "/>
<polygon fill="#3C3C3B" points="13,79.943 13,82.013 14,81.774 14,79.706 "/>
<polygon fill="#3C3C3B" points="13,73.226 13,75.302 14,75.055 14,72.979 "/>
<polygon fill="#3C3C3B" points="13,46.433 13,48.553 14,48.253 14,46.133 "/>
<polygon fill="#3C3C3B" points="13,63.268 13,65.37 14,65.09 14,62.989 "/>
<polygon fill="#3C3C3B" points="22,121.708 22,123.729 23,123.496 23,121.478 "/>
<polygon fill="#3C3C3B" points="13,49.753 13,51.863 14,51.574 14,49.463 "/>
<polygon fill="#3C3C3B" points="13,59.869 13,61.97 14,61.691 14,59.59 "/>
<polygon fill="#3C3C3B" points="13,56.393 13,58.486 14,58.217 14,56.125 "/>
<polygon fill="#3C3C3B" points="13,53.073 13,55.175 14,54.896 14,52.794 "/>
<polygon fill="#3C3C3B" points="11,40.594 11,42.732 12,42.251 12,40.113 "/>
<polygon fill="#3C3C3B" points="11,110.488 11,112.518 12,112.256 12,110.225 "/>
<polygon fill="#3C3C3B" points="11,90.627 11,92.688 12,92.348 12,90.286 "/>
<polygon fill="#3C3C3B" points="11,87.334 11,89.401 12,89.047 12,86.978 "/>
<polygon fill="#3C3C3B" points="11,97.423 11,99.484 12,99.144 12,97.082 "/>
<polygon fill="#3C3C3B" points="29,75.077 29,77.146 34,75.841 34,73.771 "/>
<polygon fill="#3C3C3B" points="11,100.716 11,102.771 12,102.446 12,100.391 "/>
<polygon fill="#3C3C3B" points="11,94.024 11,96.086 12,95.746 12,93.685 "/>
<polygon fill="#3C3C3B" points="11,67.258 11,69.352 12,68.948 12,66.856 "/>
<polygon fill="#3C3C3B" points="11,60.567 11,62.669 12,62.25 12,60.148 "/>
<polygon fill="#3C3C3B" points="11,83.936 11,86.004 12,85.648 12,83.579 "/>
<polygon fill="#3C3C3B" points="11,70.552 11,72.636 12,72.25 12,70.166 "/>
<polygon fill="#3C3C3B" points="11,80.537 11,82.605 12,82.25 12,80.182 "/>
<polygon fill="#3C3C3B" points="11,77.244 11,79.32 12,78.949 12,76.872 "/>
<polygon fill="#3C3C3B" points="11,63.965 11,66.066 12,65.647 12,63.547 "/>
<polygon fill="#3C3C3B" points="18,132.574 18,134.58 19,134.457 19,132.451 "/>
<polygon fill="#3C3C3B" points="15,133.189 15,135.195 16,135.012 16,133.005 "/>
<polygon fill="#3C3C3B" points="17,132.882 17,134.888 18,134.704 18,132.697 "/>
<polygon fill="#3C3C3B" points="20,132.327 20,134.333 21,134.149 21,132.143 "/>
<polygon fill="#3C3C3B" points="22,125.105 22,127.126 23,126.894 23,124.875 "/>
<polygon fill="#3C3C3B" points="22,128.544 22,130.558 23,130.343 23,128.328 "/>
<polygon fill="#3C3C3B" points="22,132.02 22,134.025 23,133.842 23,131.835 "/>
<polygon fill="#3C3C3B" points="11,123.868 11,125.889 12,125.656 12,123.638 "/>
<polygon fill="#3C3C3B" points="13,133.437 13,135.442 14,135.319 14,133.313 "/>
<polygon fill="#3C3C3B" points="11,117.179 11,119.203 12,118.956 12,116.932 "/>
<polygon fill="#3C3C3B" points="11,113.78 11,115.805 12,115.559 12,113.533 "/>
<polygon fill="#3C3C3B" points="11,120.576 11,122.602 12,122.354 12,120.329 "/>
<polygon fill="#3C3C3B" points="11,133.744 11,135.75 12,135.566 12,133.56 "/>
<polygon fill="#3C3C3B" points="11,130.559 11,132.573 12,132.357 12,130.343 "/>
<polygon fill="#3C3C3B" points="11,127.267 11,129.287 12,129.055 12,127.036 "/>
<polygon fill="#3C3C3B" points="11,107.196 11,109.231 12,108.954 12,106.918 "/>
<polygon fill="#3C3C3B" points="29,47.355 29,49.456 34,47.922 34,45.821 "/>
<polygon fill="#3C3C3B" points="20,30.097 20,32.245 21,31.748 21,29.601 "/>
<polygon fill="#3C3C3B" points="29,43.822 29,45.932 34,44.341 34,42.231 "/>
<polygon fill="#3C3C3B" points="20,33.511 20,35.648 21,35.168 21,33.03 "/>
<polygon fill="#3C3C3B" points="22,32.71 22,34.847 23,34.367 23,32.228 "/>
<polygon fill="#3C3C3B" points="29,29.826 29,31.963 34,30.201 34,28.062 "/>
<polygon fill="#3C3C3B" points="29,36.757 29,38.885 34,37.18 34,35.052 "/>
<polygon fill="#3C3C3B" points="29,64.615 29,66.7 34,65.28 34,63.194 "/>
<polygon fill="#3C3C3B" points="35,68.646 48.999,69.641 48.999,67.653 35,66.658 "/>
<polygon fill="#3C3C3B" points="35,72.044 48.999,73.04 48.999,71.052 35,70.057 "/>
<polygon fill="#3C3C3B" points="29,54.152 29,56.252 34,54.719 34,52.618 "/>
<polygon fill="#3C3C3B" points="29,50.888 29,52.98 34,51.503 34,49.411 "/>
<polygon fill="#3C3C3B" points="29,57.55 29,59.651 34,58.117 34,56.016 "/>
<polygon fill="#3C3C3B" points="29,61.082 29,63.175 34,61.698 34,59.605 "/>
<polygon fill="#3C3C3B" points="11,47.182 11,49.301 12,48.852 12,46.733 "/>
<polygon fill="#3C3C3B" points="11,43.889 11,46.017 12,45.551 12,43.424 "/>
<polygon fill="#3C3C3B" points="22,56.662 22,58.764 23,58.345 23,56.243 "/>
<polygon fill="#3C3C3B" points="11,37.197 11,39.333 12,38.854 12,36.715 "/>
<polygon fill="#3C3C3B" points="11,33.902 11,36.05 12,35.554 12,33.405 "/>
<polygon fill="#3C3C3B" points="11,53.771 11,55.872 12,55.454 12,53.352 "/>
<polygon fill="#3C3C3B" points="11,50.476 11,52.587 12,52.153 12,50.042 "/>
<polygon fill="#3C3C3B" points="11,57.064 11,59.157 12,58.754 12,56.662 "/>
<polygon fill="#3C3C3B" points="20,23.284 20,25.442 21,24.93 21,22.773 "/>
<polygon fill="#3C3C3B" points="18,23.967 18,26.125 19,25.784 19,23.625 "/>
<polygon fill="#3C3C3B" points="17,24.82 17,26.978 18,26.466 18,24.309 "/>
<polygon fill="#3C3C3B" points="20,26.699 20,28.846 21,28.351 21,26.202 "/>
<polygon fill="#3C3C3B" points="11,30.503 11,32.651 12,32.155 12,30.007 "/>
<polygon fill="#3C3C3B" points="11,27.209 11,29.366 12,28.854 12,26.697 "/>
<polygon fill="#3C3C3B" points="15,25.673 15,27.831 16,27.319 16,25.162 "/>
<polygon fill="#3C3C3B" points="13,26.356 13,28.513 14,28.172 14,26.015 "/>
<polygon fill="#3C3C3B" points="13,43.113 13,45.242 14,44.931 14,42.803 "/>
<polygon fill="#3C3C3B" points="17,99.199 17,101.254 18,100.93 18,98.874 "/>
<polygon fill="#3C3C3B" points="17,92.436 17,94.497 18,94.157 18,92.095 "/>
<polygon fill="#3C3C3B" points="17,95.833 17,97.896 18,97.556 18,95.493 "/>
<polygon fill="#3C3C3B" points="17,89.037 17,91.1 18,90.76 18,88.697 "/>
<polygon fill="#3C3C3B" points="17,105.897 17,107.935 18,107.655 18,105.619 "/>
<polygon fill="#3C3C3B" points="17,58.615 17,60.716 18,60.297 18,58.196 "/>
<polygon fill="#3C3C3B" points="17,102.564 17,104.612 18,104.305 18,102.256 "/>
<polygon fill="#3C3C3B" points="17,85.672 17,87.74 18,87.386 18,85.316 "/>
<polygon fill="#3C3C3B" points="17,82.274 17,84.343 18,83.987 18,81.918 "/>
<polygon fill="#3C3C3B" points="17,65.379 17,67.471 18,67.068 18,64.976 "/>
<polygon fill="#3C3C3B" points="17,62.012 17,64.114 18,63.695 18,61.593 "/>
<polygon fill="#3C3C3B" points="18,112.216 18,114.24 19,114.075 19,112.051 "/>
<polygon fill="#3C3C3B" points="17,75.51 17,77.585 18,77.214 18,75.138 "/>
<polygon fill="#3C3C3B" points="17,72.111 17,74.187 18,73.817 18,71.739 "/>
<polygon fill="#3C3C3B" points="17,109.263 17,111.292 18,111.03 18,108.999 "/>
<polygon fill="#3C3C3B" points="20,74.395 20,76.47 21,76.1 21,74.022 "/>
<polygon fill="#3C3C3B" points="20,77.807 20,79.876 21,79.521 21,77.451 "/>
<polygon fill="#3C3C3B" points="20,81.206 20,83.274 21,82.919 21,80.85 "/>
<polygon fill="#3C3C3B" points="20,70.996 20,73.073 21,72.702 21,70.624 "/>
<polygon fill="#3C3C3B" points="20,84.604 20,86.672 21,86.317 21,84.248 "/>
<polygon fill="#3C3C3B" points="20,111.887 20,113.911 21,113.665 21,111.64 "/>
<polygon fill="#3C3C3B" points="20,67.583 20,69.667 21,69.28 21,67.196 "/>
<polygon fill="#3C3C3B" points="20,64.17 20,66.264 21,65.86 21,63.768 "/>
<polygon fill="#3C3C3B" points="20,105.062 20,107.099 21,106.821 21,104.785 "/>
<polygon fill="#3C3C3B" points="20,108.475 20,110.505 21,110.243 21,108.212 "/>
<polygon fill="#3C3C3B" points="20,101.637 20,103.685 21,103.376 21,101.326 "/>
<polygon fill="#3C3C3B" points="20,91.414 20,93.476 21,93.136 21,91.073 "/>
<polygon fill="#3C3C3B" points="20,98.225 20,100.279 21,99.955 21,97.899 "/>
<polygon fill="#3C3C3B" points="20,94.812 20,96.874 21,96.534 21,94.472 "/>
<polygon fill="#3C3C3B" points="17,116.025 17,118.05 18,117.804 18,115.778 "/>
<polygon fill="#3C3C3B" points="18,102.05 18,104.098 19,103.891 19,101.843 "/>
<polygon fill="#3C3C3B" points="18,98.657 18,100.713 19,100.496 19,98.441 "/>
<polygon fill="#3C3C3B" points="18,105.434 18,107.47 19,107.283 19,105.249 "/>
<polygon fill="#3C3C3B" points="18,108.825 18,110.854 19,110.68 19,108.649 "/>
<polygon fill="#3C3C3B" points="18,88.47 18,90.531 19,90.305 19,88.242 "/>
<polygon fill="#3C3C3B" points="18,95.267 18,97.328 19,97.101 19,95.038 "/>
<polygon fill="#3C3C3B" points="18,85.078 18,87.147 19,86.909 19,84.841 "/>
<polygon fill="#3C3C3B" points="18,91.868 18,93.93 19,93.703 19,91.641 "/>
<polygon fill="#3C3C3B" points="5,58.944 5,61.037 6,60.634 6,58.541 "/>
<polygon fill="#3C3C3B" points="7,58.273 7,60.366 8,59.963 8,57.87 "/>
<polygon fill="#3C3C3B" points="35,135.821 48.999,137.174 48.999,135.182 35,133.828 "/>
<polygon fill="#3C3C3B" points="17,122.788 17,124.809 18,124.576 18,122.558 "/>
<polygon fill="#3C3C3B" points="17,119.424 17,121.448 18,121.201 18,119.177 "/>
<polygon fill="#3C3C3B" points="20,60.758 20,62.859 21,62.439 21,60.339 "/>
<polygon fill="#3C3C3B" points="17,112.627 17,114.652 18,114.404 18,112.38 "/>
<polygon fill="#3C3C3B" points="18,44.335 18,46.456 19,46.155 19,44.035 "/>
<polygon fill="#3C3C3B" points="18,47.729 18,49.838 19,49.549 19,47.438 "/>
<polygon fill="#3C3C3B" points="18,51.121 18,53.223 19,52.942 19,50.841 "/>
<polygon fill="#3C3C3B" points="18,81.68 18,83.749 19,83.511 19,81.443 "/>
<polygon fill="#3C3C3B" points="17,51.818 17,53.92 18,53.501 18,51.399 "/>
<polygon fill="#3C3C3B" points="18,54.514 18,56.605 19,56.337 19,54.245 "/>
<polygon fill="#3C3C3B" points="17,48.451 17,50.562 18,50.128 18,48.017 "/>
<polygon fill="#3C3C3B" points="17,45.084 17,47.203 18,46.754 18,44.635 "/>
<polygon fill="#3C3C3B" points="17,55.185 17,57.277 18,56.874 18,54.782 "/>
<polygon fill="#3C3C3B" points="18,71.492 18,73.568 19,73.321 19,71.244 "/>
<polygon fill="#3C3C3B" points="18,74.89 18,76.966 19,76.719 19,74.643 "/>
<polygon fill="#3C3C3B" points="18,78.282 18,80.351 19,80.113 19,78.044 "/>
<polygon fill="#3C3C3B" points="18,68.1 18,70.184 19,69.926 19,67.842 "/>
<polygon fill="#3C3C3B" points="18,61.315 18,63.417 19,63.138 19,61.037 "/>
<polygon fill="#3C3C3B" points="18,57.917 18,60.018 19,59.739 19,57.638 "/>
<polygon fill="#3C3C3B" points="18,64.708 18,66.8 19,66.532 19,64.439 "/>
<polygon fill="#3C3C3B" points="22,90.847 22,92.908 23,92.568 23,90.507 "/>
<polygon fill="#3C3C3B" points="18,119.012 18,121.036 19,120.871 19,118.847 "/>
<polygon fill="#3C3C3B" points="18,115.613 18,117.639 19,117.474 19,115.448 "/>
<polygon fill="#3C3C3B" points="18,125.801 18,127.82 19,127.667 19,125.646 "/>
<polygon fill="#3C3C3B" points="22,114.873 22,116.896 23,116.649 23,114.626 "/>
<polygon fill="#3C3C3B" points="22,111.475 22,113.499 23,113.253 23,111.228 "/>
<polygon fill="#3C3C3B" points="17,126.187 17,128.207 18,127.975 18,125.956 "/>
<polygon fill="#3C3C3B" points="20,115.284 20,117.31 21,117.062 21,115.037 "/>
<polygon fill="#3C3C3B" points="15,123.175 15,125.194 16,124.963 16,122.943 "/>
<polygon fill="#3C3C3B" points="15,126.572 15,128.592 16,128.36 16,126.341 "/>
<polygon fill="#3C3C3B" points="15,106.361 15,108.397 16,108.119 16,106.083 "/>
<polygon fill="#3C3C3B" points="15,113.039 15,115.063 16,114.816 16,112.793 "/>
<polygon fill="#3C3C3B" points="15,103.08 15,105.128 16,104.82 16,102.771 "/>
<polygon fill="#3C3C3B" points="15,116.438 15,118.462 16,118.215 16,116.19 "/>
<polygon fill="#3C3C3B" points="22,108.037 22,110.066 23,109.806 23,107.774 "/>
<polygon fill="#3C3C3B" points="15,119.836 15,121.859 16,121.612 16,119.589 "/>
<polygon fill="#3C3C3B" points="15,109.7 15,111.729 16,111.469 16,109.438 "/>
<polyline fill="#3C3C3B" points="34,68.844 34,66.784 29,68.147 29,69.844 "/>
<polygon fill="#3C3C3B" points="34,70.182 29,71.545 29,73.622 34,72.259 "/>
<polygon fill="#3C3C3B" points="22,73.775 22,75.851 23,75.48 23,73.403 "/>
<polygon fill="#3C3C3B" points="22,66.938 22,69.022 23,68.635 23,66.551 "/>
<polygon fill="#3C3C3B" points="22,63.499 22,65.591 23,65.189 23,63.096 "/>
<polygon fill="#3C3C3B" points="22,77.213 22,79.282 23,78.928 23,76.858 "/>
<polygon fill="#3C3C3B" points="22,70.377 22,72.453 23,72.082 23,70.005 "/>
<polygon fill="#3C3C3B" points="22,87.448 22,89.51 23,89.17 23,87.108 "/>
<polygon fill="#3C3C3B" points="22,97.683 22,99.738 23,99.413 23,97.357 "/>
<polygon fill="#3C3C3B" points="22,101.121 22,103.169 23,102.861 23,100.812 "/>
<polygon fill="#3C3C3B" points="22,94.245 22,96.307 23,95.966 23,93.904 "/>
<polygon fill="#3C3C3B" points="22,80.611 22,82.681 23,82.325 23,80.257 "/>
<polygon fill="#3C3C3B" points="22,84.01 22,86.079 23,85.723 23,83.654 "/>
<polygon fill="#3C3C3B" points="22,104.6 22,106.636 23,106.357 23,104.321 "/>
<polygon fill="#3C3C3B" points="22,60.06 22,62.161 23,61.743 23,59.641 "/>
<polygon fill="#3C3C3B" points="20,43.736 20,45.856 21,45.405 21,43.286 "/>
<polygon fill="#3C3C3B" points="17,31.586 17,33.733 18,33.237 18,31.089 "/>
<polygon fill="#3C3C3B" points="17,38.351 17,40.489 18,40.008 18,37.87 "/>
<polygon fill="#3C3C3B" points="17,34.953 17,37.09 18,36.61 18,34.472 "/>
<polygon fill="#3C3C3B" points="15,32.413 15,34.56 16,34.065 16,31.916 "/>
<polygon fill="#3C3C3B" points="15,35.754 15,37.892 16,37.411 16,35.273 "/>
<polygon fill="#3C3C3B" points="15,39.152 15,41.289 16,40.809 16,38.671 "/>
<polygon fill="#3C3C3B" points="18,40.942 18,43.07 19,42.761 19,40.632 "/>
<polygon fill="#3C3C3B" points="20,50.563 20,52.665 21,52.245 21,50.145 "/>
<polygon fill="#3C3C3B" points="15,99.741 15,101.796 16,101.471 16,99.416 "/>
<polygon fill="#3C3C3B" points="20,57.359 20,59.461 21,59.042 21,56.94 "/>
<polygon fill="#3C3C3B" points="15,45.834 15,47.954 16,47.503 16,45.384 "/>
<polygon fill="#3C3C3B" points="17,41.718 17,43.846 18,43.381 18,41.253 "/>
<polygon fill="#3C3C3B" points="20,53.976 20,56.068 21,55.666 21,53.573 "/>
<polygon fill="#3C3C3B" points="15,82.867 15,84.937 16,84.58 16,82.511 "/>
<polygon fill="#3C3C3B" points="15,86.266 15,88.334 16,87.979 16,85.909 "/>
<polygon fill="#3C3C3B" points="15,79.469 15,81.538 16,81.183 16,79.113 "/>
<polygon fill="#3C3C3B" points="15,93.003 15,95.064 16,94.725 16,92.663 "/>
<polygon fill="#3C3C3B" points="15,96.401 15,98.463 16,98.122 16,96.061 "/>
<polygon fill="#3C3C3B" points="15,76.129 15,78.206 16,77.834 16,75.757 "/>
<polygon fill="#3C3C3B" points="15,72.73 15,74.807 16,74.437 16,72.358 "/>
<polygon fill="#3C3C3B" points="15,55.856 15,57.948 16,57.545 16,55.453 "/>
<polygon fill="#3C3C3B" points="15,52.516 15,54.618 16,54.198 16,52.098 "/>
<polygon fill="#3C3C3B" points="15,49.175 15,51.285 16,50.851 16,48.741 "/>
<polygon fill="#3C3C3B" points="15,59.312 15,61.414 16,60.994 16,58.894 "/>
<polygon fill="#3C3C3B" points="15,62.71 15,64.812 16,64.393 16,62.291 "/>
<polygon fill="#3C3C3B" points="15,69.391 15,71.475 16,71.087 16,69.003 "/>
<polygon fill="#3C3C3B" points="15,66.051 15,68.143 16,67.74 16,65.647 "/>
<polygon fill="#3C3C3B" points="29,33.224 29,35.361 34,33.599 34,31.46 "/>
<polygon fill="#3C3C3B" points="5,85.597 5,87.666 6,87.31 6,85.242 "/>
<polygon fill="#3C3C3B" points="5,88.995 5,91.064 6,90.708 6,88.639 "/>
<polygon fill="#3C3C3B" points="5,82.199 5,84.268 6,83.912 6,81.843 "/>
<polygon fill="#3C3C3B" points="5,92.216 5,94.277 6,93.938 6,91.875 "/>
<polygon fill="#3C3C3B" points="5,95.613 5,97.676 6,97.335 6,95.272 "/>
<polygon fill="#3C3C3B" points="5,102.232 5,104.287 6,103.962 6,101.907 "/>
<polygon fill="#3C3C3B" points="5,105.452 5,107.501 6,107.191 6,105.143 "/>
<polygon fill="#3C3C3B" points="5,78.979 5,81.055 6,80.685 6,78.606 "/>
<polygon fill="#3C3C3B" points="5,99.012 5,101.073 6,100.733 6,98.671 "/>
<polygon fill="#3C3C3B" points="5,62.519 5,64.621 6,64.202 6,62.1 "/>
<polygon fill="#3C3C3B" points="5,55.723 5,57.825 6,57.406 6,55.304 "/>
<polygon fill="#3C3C3B" points="5,52.502 5,54.612 6,54.178 6,52.067 "/>
<polygon fill="#3C3C3B" points="5,72.359 5,74.443 6,74.057 6,71.972 "/>
<polygon fill="#3C3C3B" points="5,75.58 5,77.657 6,77.286 6,75.208 "/>
<polygon fill="#3C3C3B" points="5,69.139 5,71.23 6,70.829 6,68.735 "/>
<polygon fill="#3C3C3B" points="34,119.471 29,120.319 29,122.339 34,121.49 "/>
<polygon fill="#3C3C3B" points="5,108.493 5,110.53 6,110.252 6,108.216 "/>
<polygon fill="#3C3C3B" points="5,144.621 5,146.623 6,146.453 6,144.452 "/>
<polygon fill="#3C3C3B" points="5,141.223 5,143.225 6,143.055 6,141.054 "/>
<polygon fill="#3C3C3B" points="5,137.824 5,139.826 6,139.657 6,137.655 "/>
<polygon fill="#3C3C3B" points="5,134.606 5,136.612 6,136.429 6,134.421 "/>
<polygon fill="#3C3C3B" points="7,144.339 7,146.341 8,146.172 8,144.17 "/>
<polygon fill="#3C3C3B" points="11,143.831 11,145.834 12,145.664 12,143.662 "/>
<polygon fill="#3C3C3B" points="9,144.058 9,146.06 10,145.946 10,143.945 "/>
<polygon fill="#3C3C3B" points="5,118.332 5,120.355 6,120.108 6,118.085 "/>
<polygon fill="#3C3C3B" points="5,114.934 5,116.957 6,116.71 6,114.687 "/>
<polygon fill="#3C3C3B" points="5,49.28 5,51.399 6,50.95 6,48.831 "/>
<polygon fill="#3C3C3B" points="5,131.566 5,133.581 6,133.365 6,131.35 "/>
<polygon fill="#3C3C3B" points="5,111.714 5,113.743 6,113.481 6,111.451 "/>
<polygon fill="#3C3C3B" points="5,128.347 5,130.367 6,130.135 6,128.116 "/>
<polygon fill="#3C3C3B" points="5,121.729 5,123.754 6,123.506 6,121.482 "/>
<polygon fill="#3C3C3B" points="5,124.949 5,126.97 6,126.736 6,124.717 "/>
<polygon fill="#3C3C3B" points="17,139.645 17,141.646 18,141.477 18,139.476 "/>
<polygon fill="#3C3C3B" points="20,139.137 20,141.139 21,140.969 21,138.968 "/>
<polygon fill="#3C3C3B" points="35,124.8 48.999,125.795 48.999,123.807 35,122.812 "/>
<polygon fill="#3C3C3B" points="22,138.854 22,140.857 23,140.688 23,138.686 "/>
<polygon fill="#3C3C3B" points="20,13.074 20,15.243 21,14.716 21,12.547 "/>
<polygon fill="#3C3C3B" points="35,22.919 48.999,24.273 48.999,22.28 35,20.926 "/>
<polygon fill="#3C3C3B" points="22,12.195 22,14.363 23,13.836 23,11.668 "/>
<polygon fill="#3C3C3B" points="29,11.199 34,9.265 34,7.096 29,9.03 "/>
<polygon fill="#3C3C3B" points="34,137.22 29,137.84 29,139.843 34,139.222 "/>
<polygon fill="#3C3C3B" points="11,140.434 11,142.436 12,142.266 12,140.265 "/>
<polygon fill="#3C3C3B" points="5,46.059 5,48.187 6,47.722 6,45.594 "/>
<polygon fill="#3C3C3B" points="18,139.362 18,141.365 19,141.252 19,139.249 "/>
<polygon fill="#3C3C3B" points="7,140.941 7,142.943 8,142.773 8,140.772 "/>
<polygon fill="#3C3C3B" points="13,143.55 13,145.552 14,145.438 14,143.437 "/>
<polygon fill="#3C3C3B" points="15,139.926 15,141.928 16,141.758 16,139.757 "/>
<polygon fill="#3C3C3B" points="13,140.151 13,142.154 14,142.041 14,140.038 "/>
<polygon fill="#3C3C3B" points="5,29.598 5,31.755 6,31.243 6,29.086 "/>
<polygon fill="#3C3C3B" points="5,26.376 5,28.544 6,28.017 6,25.849 "/>
<polygon fill="#3C3C3B" points="5,32.82 5,34.967 6,34.472 6,32.323 "/>
<polygon fill="#3C3C3B" points="5,36.217 5,38.365 6,37.869 6,35.721 "/>
<polygon fill="#3C3C3B" points="5,42.838 5,44.975 6,44.495 6,42.357 "/>
<polygon fill="#3C3C3B" points="5,39.439 5,41.576 6,41.096 6,38.958 "/>
<polygon fill="#3C3C3B" points="5,22.978 5,25.146 6,24.619 6,22.451 "/>
<polygon fill="#3C3C3B" points="15,15.535 15,17.705 16,17.177 16,15.008 "/>
<polygon fill="#3C3C3B" points="18,13.778 18,15.946 19,15.595 19,13.426 "/>
<polygon fill="#3C3C3B" points="13,16.239 13,18.407 14,18.055 14,15.887 "/>
<polygon fill="#3C3C3B" points="17,14.657 17,16.825 18,16.298 18,14.13 "/>
<polygon fill="#3C3C3B" points="7,18.701 7,20.869 8,20.342 8,18.174 "/>
<polygon fill="#3C3C3B" points="11,17.118 11,19.287 12,18.76 12,16.59 "/>
<polygon fill="#3C3C3B" points="5,19.579 5,21.748 6,21.221 6,19.052 "/>
<polygon fill="#3C3C3B" points="9,17.821 9,19.989 10,19.638 10,17.469 "/>
<polygon fill="#3C3C3B" points="15,143.323 15,145.326 16,145.156 16,143.155 "/>
<polygon fill="#3C3C3B" points="17,7.891 17,10.07 18,9.527 18,7.348 "/>
<polygon fill="#3C3C3B" points="18,6.986 18,9.165 19,8.803 19,6.623 "/>
<polygon fill="#3C3C3B" points="17,146.44 17,148.443 18,148.273 18,146.271 "/>
<polygon fill="#3C3C3B" points="20,6.262 20,8.441 21,7.898 21,5.719 "/>
<polygon fill="#3C3C3B" points="9,11.149 9,13.329 10,12.966 10,10.787 "/>
<polygon fill="#3C3C3B" points="22,5.356 22,7.536 23,6.992 23,4.813 "/>
<polygon fill="#3C3C3B" points="11,10.425 11,12.604 12,12.061 12,9.882 "/>
<polygon fill="#3C3C3B" points="13,9.52 13,11.7 14,11.337 14,9.158 "/>
<polygon fill="#3C3C3B" points="20,145.933 20,147.936 21,147.766 21,145.764 "/>
<polygon fill="#3C3C3B" points="22,145.651 22,147.654 23,147.484 23,145.482 "/>
<polygon fill="#3C3C3B" points="7,12.054 7,14.233 8,13.69 8,11.511 "/>
<polygon fill="#3C3C3B" points="18,146.158 18,148.161 19,148.048 19,146.046 "/>
<polygon fill="#3C3C3B" points="35,146.05 48.999,147.761 48.999,145.762 35,144.051 "/>
<polygon fill="#3C3C3B" points="35,0 35,2.006 48.999,4.076 48.999,2.068 "/>
<polygon fill="#3C3C3B" points="29,2.098 29,4.278 34,2.286 34,0.107 "/>
<polygon fill="#3C3C3B" points="34,144.016 29,144.636 29,146.639 34,146.018 "/>
<polygon fill="#3C3C3B" points="15,8.796 15,10.975 16,10.432 16,8.252 "/>
<polygon fill="#3C3C3B" points="22,149.049 22,151.052 23,150.882 23,148.88 "/>
<polygon fill="#3C3C3B" points="34,147.414 29,148.033 29,150.037 34,149.416 "/>
<polygon fill="#3C3C3B" points="20,149.331 20,151.333 21,151.163 21,149.162 "/>
<polygon fill="#3C3C3B" points="35,149.448 48.999,151.159 48.999,149.16 35,147.449 "/>
<polygon fill="#3C3C3B" points="18,149.556 18,151.56 19,151.446 19,149.443 "/>
<rect x="1" y="16.844" fill="#3C3C3B" width="1" height="137"/>
<polygon fill="#3C3C3B" points="5,12.959 5,15.139 6,14.596 6,12.416 "/>
<path fill="#3C3C3B" d="M0,153.844v-135V153.844z"/>
<polygon fill="#3C3C3B" points="9,150.854 9,152.855 10,152.743 10,150.741 "/>
<polygon fill="#3C3C3B" points="7,151.136 7,153.138 8,152.968 8,150.967 "/>
<polygon fill="#3C3C3B" points="5,151.417 5,153.419 6,153.249 6,151.248 "/>
<polygon fill="#3C3C3B" points="13,150.347 13,152.349 14,152.235 14,150.233 "/>
<polygon fill="#3C3C3B" points="15,150.12 15,152.122 16,151.952 16,149.951 "/>
<polygon fill="#3C3C3B" points="17,149.839 17,151.841 18,151.671 18,149.67 "/>
<polygon fill="#3C3C3B" points="11,150.628 11,152.63 12,152.46 12,150.459 "/>
<polygon fill="#3C3C3B" points="35,19.323 48.999,20.676 48.999,18.684 35,17.331 "/>
<polygon fill="#3C3C3B" points="35,15.762 48.999,17.472 48.999,15.473 35,13.762 "/>
<polygon fill="#3C3C3B" points="35,128.466 48.999,130.177 48.999,128.178 35,126.466 "/>
<polygon fill="#3C3C3B" points="35,12.364 48.999,14.075 48.999,12.076 35,10.364 "/>
<polygon fill="#3C3C3B" points="15,146.722 15,148.725 16,148.555 16,146.553 "/>
<polygon fill="#3C3C3B" points="35,132.225 48.999,133.578 48.999,131.586 35,130.231 "/>
<polygon fill="#3C3C3B" points="35,8.965 48.999,10.676 48.999,8.677 35,6.966 "/>
<polygon fill="#3C3C3B" points="17,143.042 17,145.045 18,144.875 18,142.873 "/>
<polygon fill="#3C3C3B" points="18,142.76 18,144.763 19,144.649 19,142.647 "/>
<polygon fill="#3C3C3B" points="35,139.254 48.999,140.965 48.999,138.966 35,137.255 "/>
<polygon fill="#3C3C3B" points="20,142.534 20,144.537 21,144.367 21,142.365 "/>
<polygon fill="#3C3C3B" points="29,7.676 34,5.685 34,3.506 29,5.497 "/>
<polygon fill="#3C3C3B" points="35,142.652 48.999,144.363 48.999,142.364 35,140.653 "/>
<polygon fill="#3C3C3B" points="34,140.617 29,141.237 29,143.24 34,142.619 "/>
<polygon fill="#3C3C3B" points="22,142.253 22,144.255 23,144.086 23,142.084 "/>
<polygon fill="#3C3C3B" points="35,5.405 48.999,7.474 48.999,5.466 35,3.398 "/>
<polygon fill="#3C3C3B" points="7,147.737 7,149.739 8,149.569 8,147.568 "/>
<polygon fill="#3C3C3B" points="7,15.453 7,17.631 8,17.088 8,14.909 "/>
<polygon fill="#3C3C3B" points="5,16.357 5,18.536 6,17.993 6,15.814 "/>
<polygon fill="#3C3C3B" points="5,148.019 5,150.021 6,149.852 6,147.851 "/>
<polygon fill="#3C3C3B" points="13,146.948 13,148.95 14,148.837 14,146.835 "/>
<polygon fill="#3C3C3B" points="9,147.455 9,149.458 10,149.345 10,147.343 "/>
<polygon fill="#3C3C3B" points="13,12.918 13,15.097 14,14.735 14,12.556 "/>
<polygon fill="#3C3C3B" points="18,10.384 18,12.564 19,12.201 19,10.022 "/>
<polygon fill="#3C3C3B" points="17,11.289 17,13.468 18,12.925 18,10.746 "/>
<polygon fill="#3C3C3B" points="20,9.66 20,11.839 21,11.296 21,9.117 "/>
<polygon fill="#3C3C3B" points="15,12.194 15,14.374 16,13.83 16,11.651 "/>
<polygon fill="#3C3C3B" points="11,13.824 11,16.002 12,15.458 12,13.28 "/>
<polygon fill="#3C3C3B" points="9,14.547 9,16.726 10,16.364 10,14.185 "/>
<polygon fill="#3C3C3B" points="22,8.755 22,10.935 23,10.391 23,8.212 "/>
<polygon fill="#3C3C3B" points="5,65.917 5,68.02 6,67.601 6,65.499 "/>
<polygon fill="#3C3C3B" points="9,124.177 9,126.197 10,126.043 10,124.023 "/>
<polygon fill="#3C3C3B" points="9,104.421 9,106.469 10,106.263 10,104.215 "/>
<polygon fill="#3C3C3B" points="9,101.148 9,103.204 10,102.987 10,100.933 "/>
<polygon fill="#3C3C3B" points="9,110.838 9,112.868 10,112.693 10,110.663 "/>
<polygon fill="#3C3C3B" points="9,117.508 9,119.532 10,119.367 10,117.343 "/>
<polygon fill="#3C3C3B" points="9,120.905 9,122.931 10,122.766 10,120.74 "/>
<polygon fill="#3C3C3B" points="9,114.109 9,116.134 10,115.969 10,113.944 "/>
<polygon fill="#3C3C3B" points="9,97.876 9,99.938 10,99.711 10,97.649 "/>
<polygon fill="#3C3C3B" points="9,107.566 9,109.603 10,109.417 10,107.382 "/>
<polygon fill="#3C3C3B" points="9,94.479 9,96.541 10,96.312 10,94.251 "/>
<polygon fill="#3C3C3B" points="9,74.341 9,76.417 10,76.17 10,74.093 "/>
<polygon fill="#3C3C3B" points="9,81.012 9,83.081 10,82.843 10,80.774 "/>
<polygon fill="#3C3C3B" points="9,77.74 9,79.815 10,79.568 10,77.492 "/>
<polygon fill="#3C3C3B" points="9,71.068 9,73.153 10,72.895 10,70.811 "/>
<polygon fill="#3C3C3B" points="9,87.808 9,89.877 10,89.639 10,87.57 "/>
<polygon fill="#3C3C3B" points="9,91.08 9,93.143 10,92.915 10,90.854 "/>
<polygon fill="#3C3C3B" points="34,133.821 29,134.441 29,136.443 34,135.823 "/>
<polygon fill="#3C3C3B" points="22,135.457 22,137.459 23,137.29 23,135.288 "/>
<polygon fill="#3C3C3B" points="20,135.738 20,137.741 21,137.571 21,135.569 "/>
<polygon fill="#3C3C3B" points="18,135.964 18,137.967 19,137.854 19,135.852 "/>
<polygon fill="#3C3C3B" points="29,130.912 29,132.918 34,132.239 34,130.234 "/>
<polygon fill="#3C3C3B" points="29,123.718 29,125.736 34,124.889 34,122.868 "/>
<polygon fill="#3C3C3B" points="17,136.246 17,138.248 18,138.079 18,136.077 "/>
<polygon fill="#3C3C3B" points="9,127.575 9,129.596 10,129.44 10,127.421 "/>
<polygon fill="#3C3C3B" points="9,130.847 9,132.861 10,132.717 10,130.703 "/>
<polygon fill="#3C3C3B" points="9,137.262 9,139.264 10,139.15 10,137.148 "/>
<polygon fill="#3C3C3B" points="9,133.99 9,135.997 10,135.874 10,133.868 "/>
<polygon fill="#3C3C3B" points="15,136.527 15,138.529 16,138.36 16,136.358 "/>
<polygon fill="#3C3C3B" points="13,136.754 13,138.756 14,138.643 14,136.641 "/>
<polygon fill="#3C3C3B" points="11,137.035 11,139.037 12,138.868 12,136.866 "/>
<polygon fill="#3C3C3B" points="22,29.27 22,31.417 23,30.921 23,28.773 "/>
<polygon fill="#3C3C3B" points="22,18.991 22,21.159 23,20.632 23,18.464 "/>
<polygon fill="#3C3C3B" points="22,25.872 22,28.019 23,27.524 23,25.375 "/>
<polygon fill="#3C3C3B" points="20,19.871 20,22.039 21,21.512 21,19.344 "/>
<polygon fill="#3C3C3B" points="17,21.453 17,23.621 18,23.094 18,20.926 "/>
<polygon fill="#3C3C3B" points="18,20.574 18,22.743 19,22.391 19,20.222 "/>
<polygon fill="#3C3C3B" points="35,110.943 48.999,112.016 48.999,110.033 35,108.961 "/>
<polygon fill="#3C3C3B" points="35,75.641 48.999,76.636 48.999,74.648 35,73.653 "/>
<polygon fill="#3C3C3B" points="29,26.292 29,28.44 34,26.62 34,24.472 "/>
<polygon fill="#3C3C3B" points="15,22.332 15,24.5 16,23.973 16,21.804 "/>
<polygon fill="#3C3C3B" points="9,67.795 9,69.888 10,69.62 10,67.528 "/>
<polygon fill="#3C3C3B" points="35,47.663 48.999,48.658 48.999,46.669 35,45.675 "/>
<polygon fill="#3C3C3B" points="35,51.259 48.999,52.255 48.999,50.267 35,49.272 "/>
<polygon fill="#3C3C3B" points="9,54.329 9,56.43 10,56.151 10,54.05 "/>
<polygon fill="#3C3C3B" points="9,51.055 9,53.166 10,52.877 10,50.766 "/>
<polygon fill="#3C3C3B" points="9,44.509 9,46.637 10,46.327 10,44.198 "/>
<polygon fill="#3C3C3B" points="9,47.781 9,49.9 10,49.602 10,47.481 "/>
<polygon fill="#3C3C3B" points="9,57.602 9,59.694 10,59.425 10,57.333 "/>
<polygon fill="#3C3C3B" points="9,64.522 9,66.624 10,66.344 10,64.243 "/>
<polygon fill="#3C3C3B" points="9,24.617 9,26.785 10,26.434 10,24.265 "/>
<polygon fill="#3C3C3B" points="13,23.035 13,25.203 14,24.852 14,22.683 "/>
<polygon fill="#3C3C3B" points="9,27.892 9,30.048 10,29.708 10,27.55 "/>
<polygon fill="#3C3C3B" points="9,41.235 9,43.373 10,43.053 10,40.915 "/>
<polygon fill="#3C3C3B" points="11,23.915 11,26.083 12,25.555 12,23.387 "/>
<polygon fill="#3C3C3B" points="9,34.563 9,36.711 10,36.38 10,34.232 "/>
<polygon fill="#3C3C3B" points="35,54.494 48.999,55.847 48.999,53.854 35,52.5 "/>
<polygon fill="#3C3C3B" points="7,61.822 7,63.924 8,63.505 8,61.404 "/>
<polygon fill="#3C3C3B" points="7,68.467 7,70.56 8,70.157 8,68.064 "/>
<polygon fill="#3C3C3B" points="7,25.497 7,27.665 8,27.138 8,24.97 "/>
<polygon fill="#3C3C3B" points="7,55.025 7,57.127 8,56.708 8,54.606 "/>
<polygon fill="#3C3C3B" points="7,71.714 7,73.798 8,73.411 8,71.326 "/>
<polygon fill="#3C3C3B" points="7,78.359 7,80.435 8,80.063 8,77.987 "/>
<polygon fill="#3C3C3B" points="7,74.96 7,77.037 8,76.666 8,74.588 "/>
<polygon fill="#3C3C3B" points="7,28.745 7,30.902 8,30.39 8,28.232 "/>
<polygon fill="#3C3C3B" points="7,35.39 7,37.538 8,37.042 8,34.894 "/>
<polygon fill="#3C3C3B" points="7,31.993 7,34.14 8,33.644 8,31.496 "/>
<polygon fill="#3C3C3B" points="7,48.531 7,50.651 8,50.201 8,48.081 "/>
<polygon fill="#3C3C3B" points="7,81.605 7,83.674 8,83.318 8,81.249 "/>
<polygon fill="#3C3C3B" points="7,38.638 7,40.775 8,40.295 8,38.157 "/>
<polygon fill="#3C3C3B" points="7,45.284 7,47.412 8,46.947 8,44.819 "/>
<polygon fill="#3C3C3B" points="7,42.037 7,44.174 8,43.694 8,41.556 "/>
<polygon fill="#3C3C3B" points="7,117.919 7,119.944 8,119.697 8,117.672 "/>
<polygon fill="#3C3C3B" points="7,114.521 7,116.546 8,116.299 8,114.274 "/>
<polygon fill="#3C3C3B" points="7,121.317 7,123.342 8,123.095 8,121.07 "/>
<polygon fill="#3C3C3B" points="7,131.206 7,133.221 8,133.005 8,130.99 "/>
<polygon fill="#3C3C3B" points="7,111.275 7,113.306 8,113.044 8,111.014 "/>
<polygon fill="#3C3C3B" points="7,85.004 7,87.072 8,86.717 8,84.647 "/>
<polygon fill="#3C3C3B" points="7,108.03 7,110.066 8,109.788 8,107.752 "/>
<polygon fill="#3C3C3B" points="7,95.046 7,97.107 8,96.768 8,94.706 "/>
<polygon fill="#3C3C3B" points="7,88.402 7,90.47 8,90.115 8,88.046 "/>
<polygon fill="#3C3C3B" points="7,91.648 7,93.709 8,93.369 8,91.308 "/>
<polygon fill="#3C3C3B" points="7,104.937 7,106.984 8,106.676 8,104.627 "/>
<polygon fill="#3C3C3B" points="7,101.69 7,103.745 8,103.421 8,101.365 "/>
<polygon fill="#3C3C3B" points="7,98.444 7,100.506 8,100.165 8,98.104 "/>
<polygon fill="#3C3C3B" points="35,79.072 48.999,80.427 48.999,78.434 35,77.08 "/>
<polygon fill="#3C3C3B" points="35,57.891 48.999,59.245 48.999,57.252 35,55.898 "/>
<polygon fill="#3C3C3B" points="35,36.909 48.999,38.262 48.999,36.269 35,34.916 "/>
<polygon fill="#3C3C3B" points="7,134.299 7,136.305 8,136.119 8,134.113 "/>
<polygon fill="#3C3C3B" points="7,22.098 7,24.267 8,23.739 8,21.571 "/>
<polygon fill="#3C3C3B" points="35,44.067 48.999,45.062 48.999,43.073 35,42.079 "/>
<polygon fill="#3C3C3B" points="35,61.453 48.999,62.449 48.999,60.46 35,59.466 "/>
<polygon fill="#3C3C3B" points="35,100.056 48.999,101.41 48.999,99.417 35,98.063 "/>
<polygon fill="#3C3C3B" points="35,103.817 48.999,104.812 48.999,102.823 35,101.828 "/>
<polygon fill="#3C3C3B" points="35,107.38 48.999,108.413 48.999,106.43 35,105.396 "/>
<polygon fill="#3C3C3B" points="35,96.46 48.999,97.812 48.999,95.819 35,94.467 "/>
<polygon fill="#3C3C3B" points="35,89.465 48.999,90.819 48.999,88.826 35,87.472 "/>
<polygon fill="#3C3C3B" points="35,92.863 48.999,94.217 48.999,92.225 35,90.87 "/>
<polygon fill="#3C3C3B" points="35,86.067 48.999,87.421 48.999,85.428 35,84.074 "/>
<polygon fill="#3C3C3B" points="35,40.505 48.999,41.858 48.999,39.865 35,38.512 "/>
<polygon fill="#3C3C3B" points="15,18.934 15,21.102 16,20.575 16,18.407 "/>
<polygon fill="#3C3C3B" points="18,17.175 18,19.344 19,18.992 19,16.824 "/>
<polygon fill="#3C3C3B" points="17,18.055 17,20.224 18,19.696 18,17.527 "/>
<polygon fill="#3C3C3B" points="13,19.637 13,21.806 14,21.454 14,19.286 "/>
<polygon fill="#3C3C3B" points="35,117.805 48.999,118.8 48.999,116.812 35,115.818 "/>
<polygon fill="#3C3C3B" points="35,26.317 48.999,27.671 48.999,25.678 35,24.324 "/>
<polygon fill="#3C3C3B" points="22,15.593 22,17.762 23,17.235 23,15.066 "/>
<polygon fill="#3C3C3B" points="35,29.914 48.999,31.268 48.999,29.275 35,27.921 "/>
<polygon fill="#3C3C3B" points="29,22.894 29,25.042 34,23.222 34,21.074 "/>
<polygon fill="#3C3C3B" points="29,19.36 29,21.518 34,19.641 34,17.483 "/>
<polygon fill="#3C3C3B" points="29,12.429 29,14.598 34,12.664 34,10.495 "/>
<polygon fill="#3C3C3B" points="29,15.827 29,17.996 34,16.062 34,13.893 "/>
</svg>
