<?xml version="1.0" encoding="utf-8"?>
<!-- Generator: Adobe Illustrator 16.0.0, SVG Export Plug-In . SVG Version: 6.00 Build 0)  -->
<!DOCTYPE svg PUBLIC "-//W3C//DTD SVG 1.1//EN" "http://www.w3.org/Graphics/SVG/1.1/DTD/svg11.dtd">
<svg version="1.1" id="Layer_1" xmlns="http://www.w3.org/2000/svg" xmlns:xlink="http://www.w3.org/1999/xlink" x="0px" y="0px"
	 width="43.001px" height="219.172px" viewBox="0 0 43.001 219.172" enable-background="new 0 0 43.001 219.172"
	 xml:space="preserve">
<polygon fill="#575756" points="12,152.56 12,150.87 5,151.903 5,153.593 "/>
<polygon fill="#575756" points="12,167.108 12,165.432 5,166.054 5,167.73 "/>
<polygon fill="#575756" points="12,163.195 12,161.517 5,162.226 5,163.904 "/>
<polygon fill="#575756" points="12,156.13 12,154.441 5,155.417 5,157.105 "/>
<polygon fill="#575756" points="12,138.28 12,136.581 5,137.843 5,139.543 "/>
<polygon fill="#575756" points="12,141.85 12,140.153 5,141.358 5,143.055 "/>
<polygon fill="#575756" points="12,145.42 12,143.726 5,144.873 5,146.567 "/>
<polygon fill="#575756" points="12,199.023 12,197.353 5,197.653 5,199.324 "/>
<polygon fill="#575756" points="12,188.587 12,186.915 5,187.217 5,188.888 "/>
<polygon fill="#575756" points="12,191.509 12,189.838 5,190.139 5,191.81 "/>
<polygon fill="#575756" points="12,173.648 12,171.974 5,172.507 5,174.183 "/>
<polygon fill="#575756" points="12,170.414 12,168.737 5,169.331 5,171.007 "/>
<polygon fill="#575756" points="12,181.442 12,179.772 5,180.015 5,181.686 "/>
<polygon fill="#575756" points="20,113.141 20,114.859 22,114.357 22,112.64 "/>
<polygon fill="#575756" points="12,91.881 12,90.137 5,92.141 5,93.885 "/>
<polygon fill="#575756" points="12,84.744 12,82.991 5,85.109 5,86.862 "/>
<polygon fill="#575756" points="12,95.45 12,93.71 5,95.657 5,97.397 "/>
<polygon fill="#575756" points="12,74.038 12,72.271 5,74.561 5,76.328 "/>
<polygon fill="#575756" points="12,131.142 12,129.437 5,130.812 5,132.518 "/>
<polygon fill="#575756" points="12,81.175 12,79.417 5,81.593 5,83.35 "/>
<polygon fill="#575756" points="12,70.469 12,68.698 5,71.045 5,72.816 "/>
<polygon fill="#575756" points="12,77.606 12,75.845 5,78.078 5,79.838 "/>
<polygon fill="#575756" points="12,99.019 12,97.283 5,99.173 5,100.909 "/>
<polygon fill="#575756" points="12,120.434 12,118.72 5,120.267 5,121.98 "/>
<polygon fill="#575756" points="12,102.588 12,100.856 5,102.689 5,104.421 "/>
<polygon fill="#575756" points="12,127.572 12,125.864 5,127.297 5,129.005 "/>
<polygon fill="#575756" points="12,116.864 12,115.146 5,116.751 5,118.469 "/>
<polygon fill="#575756" points="12,124.003 12,122.292 5,123.781 5,125.493 "/>
<polygon fill="#575756" points="12,106.157 12,104.428 5,106.204 5,107.933 "/>
<polygon fill="#575756" points="12,109.726 12,108.001 5,109.72 5,111.445 "/>
<polygon fill="#575756" points="12,134.711 12,133.009 5,134.328 5,136.03 "/>
<polygon fill="#575756" points="20,156.523 20,158.21 22,157.915 22,156.229 "/>
<polygon fill="#575756" points="20,145.936 20,147.627 22,147.286 22,145.594 "/>
<polygon fill="#575756" points="20,160.63 20,162.31 22,162.087 22,160.408 "/>
<polygon fill="#575756" points="20,149.579 20,151.268 22,150.944 22,149.256 "/>
<polygon fill="#575756" points="20,153.222 20,154.909 22,154.604 22,152.917 "/>
<polygon fill="#575756" points="20,175.205 20,176.878 22,176.739 22,175.064 "/>
<polygon fill="#575756" points="20,164.654 20,166.332 22,166.138 22,164.461 "/>
<polygon fill="#575756" points="20,167.997 20,169.674 22,169.487 22,167.812 "/>
<polygon fill="#575756" points="12,201.945 12,200.274 5,200.575 5,202.247 "/>
<polygon fill="#575756" points="20,179.469 20,181.139 22,181.062 22,179.393 "/>
<polygon fill="#575756" points="20,120.429 20,122.14 22,121.674 22,119.963 "/>
<polygon fill="#575756" points="20,127.717 20,129.422 22,128.991 22,127.286 "/>
<polygon fill="#575756" points="20,116.785 20,118.499 22,118.016 22,116.301 "/>
<polygon fill="#575756" points="20,138.648 20,140.344 22,139.968 22,138.271 "/>
<polygon fill="#575756" points="20,142.292 20,143.985 22,143.627 22,141.933 "/>
<polygon fill="#575756" points="20,135.004 20,136.704 22,136.309 22,134.61 "/>
<polygon fill="#575756" points="20,131.36 20,133.062 22,132.65 22,130.948 "/>
<polygon fill="#575756" points="20,124.073 20,125.781 22,125.333 22,123.625 "/>
<polygon fill="#575756" points="13,216.897 13,218.569 19,218.324 19,216.653 "/>
<polygon fill="#575756" points="5,217.274 5,218.945 12,218.645 12,216.974 "/>
<polygon fill="#575756" points="20,182.514 20,184.188 22,184.065 22,182.394 "/>
<polygon fill="#575756" points="20,213.675 20,215.346 22,215.252 22,213.58 "/>
<polygon fill="#575756" points="20,216.597 20,218.268 22,218.174 22,216.503 "/>
<polygon fill="#575756" points="12,212.383 12,210.712 5,211.013 5,212.684 "/>
<polygon fill="#575756" points="12,209.043 12,207.372 5,207.673 5,209.344 "/>
<polygon fill="#575756" points="12,215.723 12,214.052 5,214.353 5,216.023 "/>
<polygon fill="#575756" points="20,193.636 20,195.307 22,195.213 22,193.542 "/>
<polygon fill="#575756" points="20,189.461 20,191.132 22,191.038 22,189.367 "/>
<polygon fill="#575756" points="20,186.539 20,188.21 22,188.115 22,186.444 "/>
<polygon fill="#575756" points="20,196.976 20,198.646 22,198.553 22,196.882 "/>
<polygon fill="#575756" points="20,210.335 20,212.006 22,211.912 22,210.24 "/>
<polygon fill="#575756" points="20,199.897 20,201.568 22,201.475 22,199.804 "/>
<polygon fill="#575756" points="20,206.995 20,208.666 22,208.572 22,206.9 "/>
<polygon fill="#575756" points="20,203.237 20,204.908 22,204.814 22,203.144 "/>
<polygon fill="#575756" points="12,184.673 12,182.999 5,183.389 5,185.062 "/>
<polygon fill="#575756" points="12,63.332 12,61.551 5,64.013 5,65.793 "/>
<polygon fill="#575756" points="13,121.919 13,123.63 19,122.419 19,120.708 "/>
<polygon fill="#575756" points="13,125.506 13,127.214 19,126.05 19,124.342 "/>
<polygon fill="#575756" points="13,118.332 13,120.046 19,118.789 19,117.075 "/>
<polygon fill="#575756" points="13,114.745 13,116.464 19,115.159 19,113.441 "/>
<polygon fill="#575756" points="13,143.439 13,145.133 19,144.201 19,142.507 "/>
<polygon fill="#575756" points="13,136.266 13,137.966 19,136.939 19,135.24 "/>
<polygon fill="#575756" points="13,132.68 13,134.382 19,133.31 19,131.607 "/>
<polygon fill="#575756" points="13,86.048 13,87.796 19,86.123 19,84.374 "/>
<polygon fill="#575756" points="13,96.81 13,98.546 19,97.011 19,95.274 "/>
<polygon fill="#575756" points="13,93.223 13,94.963 19,93.381 19,91.641 "/>
<polygon fill="#575756" points="13,89.636 13,91.38 19,89.752 19,88.007 "/>
<polygon fill="#575756" points="13,111.158 13,112.88 19,111.53 19,109.808 "/>
<polygon fill="#575756" points="13,147.025 13,148.717 19,147.831 19,146.14 "/>
<polygon fill="#575756" points="13,107.572 13,109.297 19,107.9 19,106.175 "/>
<polygon fill="#575756" points="13,103.984 13,105.713 19,104.271 19,102.542 "/>
<polygon fill="#575756" points="13,161.339 13,163.019 19,162.442 19,160.763 "/>
<polygon fill="#575756" points="13,150.611 13,152.301 19,151.462 19,149.772 "/>
<polygon fill="#575756" points="13,189.762 13,191.433 19,191.189 19,189.517 "/>
<polygon fill="#575756" points="13,186.84 13,188.511 19,188.267 19,186.595 "/>
<polygon fill="#575756" points="13,193.937 13,195.607 19,195.364 19,193.691 "/>
<polygon fill="#575756" points="13,210.636 13,212.307 19,212.062 19,210.391 "/>
<polygon fill="#575756" points="19,215.402 19,213.731 13,213.976 13,215.647 "/>
<polygon fill="#575756" points="13,200.199 13,201.87 19,201.626 19,199.954 "/>
<polygon fill="#575756" points="13,207.296 13,208.967 19,208.723 19,207.051 "/>
<polygon fill="#575756" points="13,182.902 13,184.575 19,184.26 19,182.587 "/>
<polygon fill="#575756" points="13,179.711 13,181.382 19,181.185 19,179.515 "/>
<polygon fill="#575756" points="13,157.466 13,159.151 19,158.387 19,156.7 "/>
<polygon fill="#575756" points="13,154.198 13,155.886 19,155.093 19,153.404 "/>
<polygon fill="#575756" points="13,82.461 13,84.214 19,82.493 19,80.74 "/>
<polygon fill="#575756" points="13,175.651 13,177.324 19,176.962 19,175.289 "/>
<polygon fill="#575756" points="13,168.59 13,170.266 19,169.784 19,168.108 "/>
<polygon fill="#575756" points="13,129.093 13,130.798 19,129.68 19,127.975 "/>
<polygon fill="#575756" points="12,20.515 12,18.667 5,21.813 5,23.66 "/>
<polygon fill="#575756" points="12,16.948 12,15.093 5,18.296 5,20.15 "/>
<polygon fill="#575756" points="12,24.083 12,22.24 5,25.33 5,27.171 "/>
<polygon fill="#575756" points="12,27.651 12,25.814 5,28.847 5,30.682 "/>
<polygon fill="#575756" points="12,31.219 12,29.388 5,32.364 5,34.193 "/>
<polygon fill="#575756" points="13,7.115 13,8.983 19,6.289 19,4.418 "/>
<polygon fill="#575756" points="13,10.703 13,12.564 19,9.917 19,8.053 "/>
<polygon fill="#575756" points="5,13.129 12,9.812 12,7.944 5,11.263 "/>
<polygon fill="#575756" points="12,13.38 12,11.518 5,14.78 5,16.64 "/>
<polygon fill="#575756" points="12,59.764 12,57.978 5,60.497 5,62.282 "/>
<polygon fill="#575756" points="12,52.627 12,50.83 5,53.463 5,55.259 "/>
<polygon fill="#575756" points="12,56.195 12,54.404 5,56.98 5,58.771 "/>
<polygon fill="#575756" points="13,14.291 13,16.147 19,13.545 19,11.687 "/>
<polygon fill="#575756" points="12,34.787 12,32.962 5,35.881 5,37.704 "/>
<polygon fill="#575756" points="12,49.059 12,47.257 5,49.947 5,51.748 "/>
<polygon fill="#575756" points="12,45.491 12,43.683 5,46.43 5,48.237 "/>
<polygon fill="#575756" points="12,38.355 12,36.536 5,39.398 5,41.215 "/>
<polygon fill="#575756" points="12,41.923 12,40.11 5,42.914 5,44.726 "/>
<polygon fill="#575756" points="13,46.584 13,48.387 19,46.202 19,44.398 "/>
<polygon fill="#575756" points="13,57.348 13,59.134 19,57.089 19,55.302 "/>
<polygon fill="#575756" points="13,60.936 13,62.717 19,60.718 19,58.936 "/>
<polygon fill="#575756" points="13,50.172 13,51.97 19,49.831 19,48.034 "/>
<polygon fill="#575756" points="13,53.76 13,55.552 19,53.46 19,51.667 "/>
<polygon fill="#575756" points="13,64.523 13,66.299 19,64.346 19,62.569 "/>
<polygon fill="#575756" points="13,68.111 13,69.883 19,67.976 19,66.204 "/>
<polygon fill="#575756" points="13,71.698 13,73.465 19,71.605 19,69.837 "/>
<polygon fill="#575756" points="13,42.997 13,44.805 19,42.573 19,40.765 "/>
<polygon fill="#575756" points="13,78.873 13,80.631 19,78.863 19,77.105 "/>
<polygon fill="#575756" points="13,28.645 13,30.476 19,28.059 19,26.227 "/>
<polygon fill="#575756" points="13,32.232 13,34.058 19,31.688 19,29.861 "/>
<polygon fill="#575756" points="13,21.468 13,23.311 19,20.802 19,18.957 "/>
<polygon fill="#575756" points="13,25.056 13,26.893 19,24.43 19,22.592 "/>
<polygon fill="#575756" points="13,17.879 13,19.729 19,17.174 19,15.323 "/>
<polygon fill="#575756" points="13,35.82 13,37.64 19,35.315 19,33.496 "/>
<polygon fill="#575756" points="13,39.408 13,41.222 19,38.944 19,37.129 "/>
<polygon fill="#575756" points="13,203.539 13,205.21 19,204.966 19,203.294 "/>
<g>
	<defs>
		<rect id="SVGID_1_" width="43.001" height="219.172"/>
	</defs>
	<clipPath id="SVGID_2_">
		<use xlink:href="#SVGID_1_"  overflow="visible"/>
	</clipPath>
	<path clip-path="url(#SVGID_2_)" fill="#575756" d="M27.854,182.061L23,182.344v1.673l4.889-0.286L43,184.599v-1.673l-15.069-0.865
		C27.902,182.06,27.883,182.06,27.854,182.061"/>
	<path clip-path="url(#SVGID_2_)" fill="#575756" d="M27.847,174.684L23,175.009v1.674l4.89-0.329L43,177.346v-1.674l-15.062-0.988
		C27.904,174.682,27.881,174.682,27.847,174.684"/>
	<path clip-path="url(#SVGID_2_)" fill="#575756" d="M27.866,202.886L23,203.105v1.672l4.897-0.222L43,204.927v-1.67l-15.096-0.371
		C27.889,202.885,27.881,202.885,27.866,202.886"/>
	<path clip-path="url(#SVGID_2_)" fill="#575756" d="M27.866,199.546L23,199.766v1.672l4.897-0.222L43,201.587v-1.67l-15.096-0.371
		C27.889,199.545,27.881,199.545,27.866,199.546"/>
	<path clip-path="url(#SVGID_2_)" fill="#575756" d="M27.895,193.234c-0.016-0.001-0.014,0.023-0.028,0.024L23,193.504v1.672
		l4.897-0.223L43,195.324v-1.768"/>
	<path clip-path="url(#SVGID_2_)" fill="#575756" d="M27.866,186.187L23,186.406v1.672l4.897-0.222L43,188.228v-1.67l-15.096-0.371
		C27.889,186.186,27.881,186.186,27.866,186.187"/>
	<path clip-path="url(#SVGID_2_)" fill="#575756" d="M27.827,167.309L23,167.738v1.675l4.886-0.435L43,170.467v-1.679l-15.035-1.479
		C27.917,167.305,27.877,167.305,27.827,167.309"/>
	<path clip-path="url(#SVGID_2_)" fill="#575756" d="M27.754,140.97L23,141.79v1.693l4.889-0.843l15.106,2.739L43,145.299v-1.613
		l-14.967-2.714C27.937,140.954,27.849,140.954,27.754,140.97"/>
	<path clip-path="url(#SVGID_2_)" fill="#575756" d="M27.761,144.678L23,145.458v1.691l4.889-0.801l15.112,2.62L43,148.92v-1.645
		l-14.974-2.596C27.937,144.664,27.853,144.664,27.761,144.678"/>
	<path clip-path="url(#SVGID_2_)" fill="#575756" d="M27.78,155.435L23,156.111v1.687l4.882-0.691L43,159.586v-0.005v-1.687
		l-14.981-2.457C27.938,155.425,27.863,155.423,27.78,155.435"/>
	<polygon clip-path="url(#SVGID_2_)" fill="#575756" points="3,183.485 0,183.68 0,185.353 3,185.158 	"/>
	<polygon clip-path="url(#SVGID_2_)" fill="#575756" points="3,190.214 0,190.365 0,192.036 3,191.885 	"/>
	<polygon clip-path="url(#SVGID_2_)" fill="#575756" points="3,194.389 0,194.54 0,196.211 3,196.06 	"/>
	<polygon clip-path="url(#SVGID_2_)" fill="#575756" points="3,197.729 0,197.879 0,199.551 3,199.399 	"/>
	<polygon clip-path="url(#SVGID_2_)" fill="#575756" points="3,187.291 0,187.442 0,189.113 3,188.963 	"/>
	<polygon clip-path="url(#SVGID_2_)" fill="#575756" points="3,172.641 0,172.908 0,174.583 3,174.315 	"/>
	<path clip-path="url(#SVGID_2_)" fill="#575756" d="M27.746,137.262l-4.745,0.858v1.697l4.888-0.885l15.1,2.858l0.013-0.111v-1.583
		l-14.963-2.833C27.939,137.244,27.847,137.243,27.746,137.262"/>
	<polygon clip-path="url(#SVGID_2_)" fill="#575756" points="3,176.321 0,176.545 0,178.219 3,177.996 	"/>
	<polygon clip-path="url(#SVGID_2_)" fill="#575756" points="3,200.65 0,200.802 0,202.473 3,202.322 	"/>
	<polygon clip-path="url(#SVGID_2_)" fill="#575756" points="3,180.075 0,180.196 0,181.868 3,181.746 	"/>
	<path clip-path="url(#SVGID_2_)" fill="#575756" d="M27.866,206.643L23,206.862v1.673l4.897-0.223L43,208.684v-1.67l-15.096-0.371
		C27.889,206.642,27.881,206.642,27.866,206.643"/>
	<polygon clip-path="url(#SVGID_2_)" fill="#575756" points="27.847,216.557 22.999,216.465 22.999,218.136 27.896,217.915 
		42.999,218.286 42.999,216.616 27.895,216.557 	"/>
	<polygon clip-path="url(#SVGID_2_)" fill="#575756" points="3,203.99 0,204.142 0,205.812 3,205.661 	"/>
	<path clip-path="url(#SVGID_2_)" fill="#575756" d="M27.866,209.982L23,210.202v1.673l4.897-0.223L43,212.023v-1.67l-15.096-0.371
		C27.889,209.981,27.881,209.981,27.866,209.982"/>
	<polygon clip-path="url(#SVGID_2_)" fill="#575756" points="3,217.35 0,217.501 0,219.172 3,219.021 	"/>
	<polygon clip-path="url(#SVGID_2_)" fill="#575756" points="3,214.428 0,214.578 0,216.249 3,216.099 	"/>
	<polygon clip-path="url(#SVGID_2_)" fill="#575756" points="3,207.748 0,207.898 0,209.569 3,209.419 	"/>
	<polygon clip-path="url(#SVGID_2_)" fill="#575756" points="3,211.088 0,211.238 0,212.909 3,212.759 	"/>
	<path clip-path="url(#SVGID_2_)" fill="#575756" d="M27.647,85.354L23,86.755v1.744l4.896-1.474l15.007,4.526L43,91.197v-1.358
		l-14.876-4.487C27.966,85.304,27.807,85.305,27.647,85.354"/>
	<path clip-path="url(#SVGID_2_)" fill="#575756" d="M27.577,44.576L23,46.388v1.798l4.901-1.938l14.939,5.823L43,51.637v-1.292
		l-14.813-5.774C27.987,44.493,27.776,44.495,27.577,44.576"/>
	<path clip-path="url(#SVGID_2_)" fill="#575756" d="M27.564,37.162L23,39.047v1.81l4.901-2.023l14.929,6.058L43,44.449v-1.287
		l-14.803-6.006C27.991,37.073,27.77,37.075,27.564,37.162"/>
	<path clip-path="url(#SVGID_2_)" fill="#575756" d="M27.57,40.869L23,42.718v1.804l4.901-1.981l14.934,5.94L43,48.042v-1.289
		l-14.809-5.891C27.989,40.783,27.772,40.785,27.57,40.869"/>
	<path clip-path="url(#SVGID_2_)" fill="#575756" d="M27.553,29.748L23,31.707v1.821l4.902-2.108l14.916,6.293L43,37.262v-1.281
		l-14.792-6.24C27.995,29.651,27.764,29.653,27.553,29.748"/>
	<path clip-path="url(#SVGID_2_)" fill="#575756" d="M27.559,33.455L23,35.377v1.816l4.902-2.066l14.923,6.176L43,40.855v-1.283
		l-14.797-6.124C27.993,33.362,27.767,33.364,27.559,33.455"/>
	<path clip-path="url(#SVGID_2_)" fill="#575756" d="M27.596,55.696L23,57.397v1.782l4.899-1.812l14.958,5.471L43,62.421v-1.306
		l-14.829-5.423C27.981,55.623,27.783,55.625,27.596,55.696"/>
	<path clip-path="url(#SVGID_2_)" fill="#575756" d="M27.583,48.283L23,50.058v1.793l4.901-1.896l14.944,5.705L43,55.23v-1.296
		l-14.819-5.657C27.985,48.203,27.778,48.205,27.583,48.283"/>
	<path clip-path="url(#SVGID_2_)" fill="#575756" d="M27.602,59.404L23,61.066v1.778l4.898-1.77l14.965,5.353L43,66.017v-1.31
		l-14.835-5.307C27.979,59.333,27.787,59.334,27.602,59.404"/>
	<path clip-path="url(#SVGID_2_)" fill="#575756" d="M27.608,63.111L23,64.737v1.773l4.898-1.728l14.97,5.234L43,69.612v-1.315
		l-14.841-5.189C27.978,63.043,27.788,63.046,27.608,63.111"/>
	<path clip-path="url(#SVGID_2_)" fill="#575756" d="M27.589,51.99L23,53.728v1.787l4.9-1.854l14.951,5.588L43,58.826v-1.301
		l-14.824-5.54C27.982,51.913,27.781,51.915,27.589,51.99"/>
	<path clip-path="url(#SVGID_2_)" fill="#575756" d="M27.519,7.508L23,9.685v1.859l4.905-2.362l14.884,6.995L43,15.706v-1.271
		L28.239,7.499C28.007,7.39,27.747,7.394,27.519,7.508"/>
	<path clip-path="url(#SVGID_2_)" fill="#575756" d="M27.514,3.801L23,6.014v1.865l4.906-2.403l14.878,7.111L43,12.114v-1.27
		L28.243,3.791C28.008,3.68,27.745,3.683,27.514,3.801"/>
	<path clip-path="url(#SVGID_2_)" fill="#575756" d="M28.238,0.084c-0.237-0.116-0.496-0.112-0.73,0.01L23,2.345v1.871l4.906-2.446
		l14.872,7.228L43,8.522V7.253L28.238,0.084z"/>
	<path clip-path="url(#SVGID_2_)" fill="#575756" d="M27.739,133.553L23,134.452v1.699l4.89-0.927l15.093,2.979L43,138.065v-1.559
		l-14.955-2.951C27.941,133.534,27.843,133.534,27.739,133.553"/>
	<path clip-path="url(#SVGID_2_)" fill="#575756" d="M27.524,11.214L23,13.355v1.852l4.905-2.319l14.889,6.877L43,19.298v-1.272
		l-14.767-6.821C28.005,11.1,27.75,11.103,27.524,11.214"/>
	<path clip-path="url(#SVGID_2_)" fill="#575756" d="M27.53,14.921L23,17.026v1.845l4.904-2.276l14.895,6.76L43,22.891v-1.274
		l-14.772-6.705C28.003,14.81,27.753,14.813,27.53,14.921"/>
	<path clip-path="url(#SVGID_2_)" fill="#575756" d="M27.541,22.334L23,24.367V26.2l4.903-2.192l14.906,6.526L43,30.076V28.8
		l-14.781-6.473C27.999,22.23,27.759,22.233,27.541,22.334"/>
	<path clip-path="url(#SVGID_2_)" fill="#575756" d="M27.536,18.628L23,20.696v1.84l4.903-2.234l14.9,6.643L43,26.483v-1.275
		L28.224,18.62C28.001,18.521,27.756,18.524,27.536,18.628"/>
	<path clip-path="url(#SVGID_2_)" fill="#575756" d="M27.547,26.042L23,28.037v1.828l4.903-2.15l14.911,6.409L43,33.669v-1.279
		l-14.787-6.356C27.997,25.941,27.761,25.944,27.547,26.042"/>
	<path clip-path="url(#SVGID_2_)" fill="#575756" d="M27.696,111.307L23,112.439v1.718l4.893-1.18l15.053,3.694L43,116.408v-1.439
		l-14.917-3.662C27.953,111.275,27.826,111.274,27.696,111.307"/>
	<path clip-path="url(#SVGID_2_)" fill="#575756" d="M27.688,107.598L23,108.77v1.722l4.893-1.222l15.046,3.813L43,112.804v-1.425
		l-14.911-3.781C27.955,107.565,27.823,107.564,27.688,107.598"/>
	<path clip-path="url(#SVGID_2_)" fill="#575756" d="M27.682,103.891L23,105.101v1.725l4.894-1.264l15.039,3.932L43,109.2v-1.411
		l-14.905-3.898C27.956,103.854,27.82,103.854,27.682,103.891"/>
	<path clip-path="url(#SVGID_2_)" fill="#575756" d="M27.725,126.138l-4.724,0.977v1.705l4.89-1.011l15.079,3.218l0.031-0.188
		v-1.512l-14.943-3.188C27.944,126.115,27.838,126.114,27.725,126.138"/>
	<path clip-path="url(#SVGID_2_)" fill="#575756" d="M27.675,100.183L23,101.431v1.729l4.894-1.306l15.033,4.052L43,105.598v-1.399
		l-14.899-4.016C27.958,100.144,27.818,100.146,27.675,100.183"/>
	<path clip-path="url(#SVGID_2_)" fill="#575756" d="M27.614,66.817L23,68.406v1.768l4.898-1.686l14.976,5.117L43,73.208v-1.321
		l-14.847-5.073C27.976,66.754,27.792,66.755,27.614,66.817"/>
	<path clip-path="url(#SVGID_2_)" fill="#575756" d="M27.717,122.43L23,123.445v1.708l4.891-1.053l15.073,3.337L43,127.229v-1.492
		l-14.936-3.307C27.947,122.404,27.835,122.403,27.717,122.43"/>
	<path clip-path="url(#SVGID_2_)" fill="#575756" d="M27.71,118.722L23,119.776v1.711l4.892-1.095l15.065,3.457L43,123.62v-1.473
		l-14.93-3.425C27.948,118.694,27.831,118.694,27.71,118.722"/>
	<path clip-path="url(#SVGID_2_)" fill="#575756" d="M27.641,81.646L23,83.084v1.75l4.896-1.517l15,4.644L43,87.597v-1.349
		l-14.87-4.604C27.968,81.593,27.803,81.594,27.641,81.646"/>
	<path clip-path="url(#SVGID_2_)" fill="#575756" d="M27.627,74.231L23,75.746v1.758l4.897-1.601l14.988,4.881L43,80.402v-1.333
		l-14.857-4.839C27.973,74.174,27.799,74.175,27.627,74.231"/>
	<path clip-path="url(#SVGID_2_)" fill="#575756" d="M27.635,77.939L23,79.415v1.754l4.897-1.559l14.994,4.762L43,83.999v-1.341
		l-14.863-4.721C27.97,77.884,27.801,77.885,27.635,77.939"/>
	<path clip-path="url(#SVGID_2_)" fill="#575756" d="M27.621,70.525L23,72.076v1.763l4.897-1.643l14.982,4.999l0.12-0.39v-1.327
		l-14.853-4.956C27.974,70.464,27.795,70.465,27.621,70.525"/>
	<path clip-path="url(#SVGID_2_)" fill="#575756" d="M27.661,92.769L23,94.093v1.737l4.895-1.39l15.021,4.289L43,98.396v-1.377
		l-14.887-4.251C27.962,92.725,27.811,92.725,27.661,92.769"/>
	<path clip-path="url(#SVGID_2_)" fill="#575756" d="M27.654,89.062L23,90.424v1.74l4.896-1.432l15.013,4.407L43,94.795v-1.367
		l-14.882-4.368C27.964,89.016,27.81,89.016,27.654,89.062"/>
	<path clip-path="url(#SVGID_2_)" fill="#575756" d="M27.668,96.476L23,97.762v1.733l4.895-1.348l15.026,4.17l0.079-0.32v-1.388
		l-14.894-4.133C27.96,96.435,27.814,96.434,27.668,96.476"/>
	<polygon clip-path="url(#SVGID_2_)" fill="#575756" points="20,98.564 20,100.297 22,99.725 22,97.991 	"/>
	<polygon clip-path="url(#SVGID_2_)" fill="#575756" points="20,22.023 20,23.862 22,22.915 22,21.075 	"/>
	<polygon clip-path="url(#SVGID_2_)" fill="#575756" points="20,18.377 20,20.223 22,19.258 22,17.412 	"/>
	<polygon clip-path="url(#SVGID_2_)" fill="#575756" points="20,14.732 20,16.583 22,15.6 22,13.748 	"/>
	<polygon clip-path="url(#SVGID_2_)" fill="#575756" points="20,11.087 20,12.945 22,11.944 22,10.086 	"/>
	<polygon clip-path="url(#SVGID_2_)" fill="#575756" points="20,7.441 20,9.305 22,8.287 22,6.422 	"/>
	<polygon clip-path="url(#SVGID_2_)" fill="#575756" points="20,36.604 20,38.419 22,37.543 22,35.728 	"/>
	<polygon clip-path="url(#SVGID_2_)" fill="#575756" points="20,32.959 20,34.78 22,33.886 22,32.065 	"/>
	<polygon clip-path="url(#SVGID_2_)" fill="#575756" points="20,40.249 20,42.059 22,41.2 22,39.39 	"/>
	<polygon clip-path="url(#SVGID_2_)" fill="#575756" points="20,25.668 20,27.501 22,26.571 22,24.738 	"/>
	<polygon clip-path="url(#SVGID_2_)" fill="#575756" points="20,29.313 20,31.141 22,30.229 22,28.402 	"/>
	<polygon clip-path="url(#SVGID_2_)" fill="#575756" points="3,22.601 0,24.174 0,26.02 3,24.447 	"/>
	<polygon clip-path="url(#SVGID_2_)" fill="#575756" points="20,3.796 20,5.667 22,4.63 22,2.759 	"/>
	<polygon clip-path="url(#SVGID_2_)" fill="#575756" points="3,26.103 0,27.648 0,29.488 3,27.944 	"/>
	<polygon clip-path="url(#SVGID_2_)" fill="#575756" points="3,33.108 0,34.596 0,36.424 3,34.937 	"/>
	<polygon clip-path="url(#SVGID_2_)" fill="#575756" points="3,29.605 0,31.122 0,32.957 3,31.44 	"/>
	<polygon clip-path="url(#SVGID_2_)" fill="#575756" points="3,12.092 0,13.751 0,15.617 3,13.958 	"/>
	<polygon clip-path="url(#SVGID_2_)" fill="#575756" points="3,15.595 0,17.226 0,19.084 3,17.454 	"/>
	<polygon clip-path="url(#SVGID_2_)" fill="#575756" points="3,19.098 0,20.7 0,22.552 3,20.951 	"/>
	<polyline clip-path="url(#SVGID_2_)" fill="#575756" points="20,105.557 20,107.578 22.087,106.893 	"/>
	<polygon clip-path="url(#SVGID_2_)" fill="#575756" points="20,76.697 20,78.456 22,77.776 22,76.018 	"/>
	<polygon clip-path="url(#SVGID_2_)" fill="#575756" points="20,87.631 20,89.376 22,88.75 22,87.005 	"/>
	<polygon clip-path="url(#SVGID_2_)" fill="#575756" points="20,91.276 20,93.016 22,92.408 22,90.668 	"/>
	<polygon clip-path="url(#SVGID_2_)" fill="#575756" points="20,80.342 20,82.095 22,81.434 22,79.68 	"/>
	<polygon clip-path="url(#SVGID_2_)" fill="#575756" points="20,83.987 20,85.736 22,85.092 22,83.343 	"/>
	<polygon clip-path="url(#SVGID_2_)" fill="#575756" points="3,36.61 0,38.069 0,39.893 3,38.434 	"/>
	<polygon clip-path="url(#SVGID_2_)" fill="#575756" points="20,102.208 20,103.938 22,103.382 22,101.653 	"/>
	<polygon clip-path="url(#SVGID_2_)" fill="#575756" points="20,94.92 20,96.656 22,96.066 22,94.329 	"/>
	<polygon clip-path="url(#SVGID_2_)" fill="#575756" points="20,109.497 20,111.219 22,110.699 22,108.978 	"/>
	<polygon clip-path="url(#SVGID_2_)" fill="#575756" points="20,62.119 20,63.896 22,63.145 22,61.368 	"/>
	<polygon clip-path="url(#SVGID_2_)" fill="#575756" points="20,54.83 20,56.616 22,55.83 22,54.042 	"/>
	<polygon clip-path="url(#SVGID_2_)" fill="#575756" points="20,51.185 20,52.978 22,52.172 22,50.379 	"/>
	<polygon clip-path="url(#SVGID_2_)" fill="#575756" points="20,58.474 20,60.256 22,59.487 22,57.705 	"/>
	<polygon clip-path="url(#SVGID_2_)" fill="#575756" points="20,47.54 20,49.337 22,48.516 22,46.716 	"/>
	<polygon clip-path="url(#SVGID_2_)" fill="#575756" points="20,69.408 20,71.176 22,70.46 22,68.692 	"/>
	<polygon clip-path="url(#SVGID_2_)" fill="#575756" points="20,73.053 20,74.816 22,74.118 22,72.355 	"/>
	<polygon clip-path="url(#SVGID_2_)" fill="#575756" points="20,65.764 20,67.536 22,66.803 22,65.03 	"/>
	<polygon clip-path="url(#SVGID_2_)" fill="#575756" points="20,43.894 20,45.698 22,44.857 22,43.053 	"/>
	<polygon clip-path="url(#SVGID_2_)" fill="#575756" points="3,131.156 0,131.845 0,133.549 3,132.861 	"/>
	<polygon clip-path="url(#SVGID_2_)" fill="#575756" points="3,134.657 0,135.316 0,137.019 3,136.359 	"/>
	<polygon clip-path="url(#SVGID_2_)" fill="#575756" points="3,124.154 0,124.899 0,126.61 3,125.865 	"/>
	<polygon clip-path="url(#SVGID_2_)" fill="#575756" points="3,120.653 0,121.428 0,123.142 3,122.367 	"/>
	<polygon clip-path="url(#SVGID_2_)" fill="#575756" points="3,166.209 0,166.52 0,168.196 3,167.886 	"/>
	<polygon clip-path="url(#SVGID_2_)" fill="#575756" points="3,127.655 0,128.372 0,130.079 3,129.363 	"/>
	<polygon clip-path="url(#SVGID_2_)" fill="#575756" points="3,110.15 0,111.009 0,112.733 3,111.874 	"/>
	<polygon clip-path="url(#SVGID_2_)" fill="#575756" points="3,106.648 0,107.536 0,109.264 3,108.376 	"/>
	<polygon clip-path="url(#SVGID_2_)" fill="#575756" points="3,113.65 0,114.481 0,116.203 3,115.372 	"/>
	<polygon clip-path="url(#SVGID_2_)" fill="#575756" points="3,152.161 0,152.679 0,154.367 3,153.852 	"/>
	<polygon clip-path="url(#SVGID_2_)" fill="#575756" points="3,40.113 0,41.544 0,43.36 3,41.93 	"/>
	<polygon clip-path="url(#SVGID_2_)" fill="#575756" points="3,138.158 0,138.789 0,140.488 3,139.858 	"/>
	<polygon clip-path="url(#SVGID_2_)" fill="#575756" points="3,103.147 0,104.064 0,105.795 3,104.879 	"/>
	<polygon clip-path="url(#SVGID_2_)" fill="#575756" points="3,162.402 0,162.757 0,164.437 3,164.082 	"/>
	<polygon clip-path="url(#SVGID_2_)" fill="#575756" points="3,158.879 0,159.35 0,161.036 3,160.564 	"/>
	<polygon clip-path="url(#SVGID_2_)" fill="#575756" points="3,141.659 0,142.261 0,143.958 3,143.356 	"/>
	<polygon clip-path="url(#SVGID_2_)" fill="#575756" points="3,145.16 0,145.734 0,147.428 3,146.854 	"/>
	<polygon clip-path="url(#SVGID_2_)" fill="#575756" points="3,148.661 0,149.206 0,150.897 3,150.353 	"/>
	<polygon clip-path="url(#SVGID_2_)" fill="#575756" points="3,155.662 0,156.149 0,157.838 3,157.35 	"/>
	<polygon clip-path="url(#SVGID_2_)" fill="#575756" points="3,99.646 0,100.591 0,102.327 3,101.382 	"/>
	<polygon clip-path="url(#SVGID_2_)" fill="#575756" points="3,57.624 0,58.912 0,60.701 3,59.414 	"/>
	<polygon clip-path="url(#SVGID_2_)" fill="#575756" points="3,64.628 0,65.859 0,67.638 3,66.408 	"/>
	<polygon clip-path="url(#SVGID_2_)" fill="#575756" points="3,68.13 0,69.332 0,71.107 3,69.905 	"/>
	<polygon clip-path="url(#SVGID_2_)" fill="#575756" points="3,54.122 0,55.438 0,57.233 3,55.917 	"/>
	<polygon clip-path="url(#SVGID_2_)" fill="#575756" points="3,50.62 0,51.965 0,53.765 3,52.421 	"/>
	<polygon clip-path="url(#SVGID_2_)" fill="#575756" points="3,43.615 0,45.017 0,46.828 3,45.427 	"/>
	<polygon clip-path="url(#SVGID_2_)" fill="#575756" points="3,47.117 0,48.491 0,50.296 3,48.923 	"/>
	<polygon clip-path="url(#SVGID_2_)" fill="#575756" points="3,61.126 0,62.385 0,64.17 3,62.911 	"/>
	<polygon clip-path="url(#SVGID_2_)" fill="#575756" points="3,89.141 0,90.172 0,91.919 3,90.889 	"/>
	<polygon clip-path="url(#SVGID_2_)" fill="#575756" points="3,92.643 0,93.645 0,95.389 3,94.387 	"/>
	<polygon clip-path="url(#SVGID_2_)" fill="#575756" points="3,96.144 0,97.118 0,98.857 3,97.883 	"/>
	<polygon clip-path="url(#SVGID_2_)" fill="#575756" points="3,85.639 0,86.698 0,88.45 3,87.391 	"/>
	<polygon clip-path="url(#SVGID_2_)" fill="#575756" points="3,82.137 0,83.225 0,84.982 3,83.894 	"/>
	<polygon clip-path="url(#SVGID_2_)" fill="#575756" points="3,71.632 0,72.806 0,74.576 3,73.402 	"/>
	<polygon clip-path="url(#SVGID_2_)" fill="#575756" points="3,75.134 0,76.279 0,78.044 3,76.899 	"/>
	<polygon clip-path="url(#SVGID_2_)" fill="#575756" points="3,78.636 0,79.753 0,81.513 3,80.397 	"/>
</g>
</svg>
