<?xml version="1.0" encoding="utf-8"?>
<!-- Generator: Adobe Illustrator 16.0.0, SVG Export Plug-In . SVG Version: 6.00 Build 0)  -->
<!DOCTYPE svg PUBLIC "-//W3C//DTD SVG 1.1//EN" "http://www.w3.org/Graphics/SVG/1.1/DTD/svg11.dtd">
<svg version="1.1" id="Layer_1" xmlns="http://www.w3.org/2000/svg" xmlns:xlink="http://www.w3.org/1999/xlink" x="0px" y="0px"
	 width="36px" height="94.559px" viewBox="0 0 36 94.559" enable-background="new 0 0 36 94.559" xml:space="preserve">
<g>
	<defs>
		<rect id="SVGID_1_" width="36" height="94.559"/>
	</defs>
	<clipPath id="SVGID_2_">
		<use xlink:href="#SVGID_1_"  overflow="visible"/>
	</clipPath>
	<path clip-path="url(#SVGID_2_)" fill="#5D5D60" d="M0,57.181v1.415c1-0.163,2.481-0.356,4.611-0.356
		C6.013,58.24,9,58.279,13,58.33v-1.394c-4-0.049-6.984-0.089-8.389-0.089C2.607,56.847,1,57.015,0,57.181"/>
	<path clip-path="url(#SVGID_2_)" fill="#5D5D60" d="M0,59.336v1.415c1-0.162,2.481-0.355,4.611-0.355
		c1.402,0,4.389,0.039,8.389,0.089v-1.393c-4-0.05-6.984-0.09-8.389-0.09C2.607,59.002,1,59.17,0,59.336"/>
	<path clip-path="url(#SVGID_2_)" fill="#5D5D60" d="M0,61.493v1.415c1-0.163,2.481-0.356,4.611-0.356
		C6.013,62.551,9,62.59,13,62.64v-1.393c-4-0.049-6.984-0.089-8.389-0.089C2.607,61.159,1,61.327,0,61.493"/>
	<path clip-path="url(#SVGID_2_)" fill="#5D5D60" d="M0,46.081v1.415c1-0.163,2.481-0.356,4.611-0.356
		C6.013,47.14,9,47.179,13,47.229v-1.393c-4-0.049-6.984-0.089-8.389-0.089C2.607,45.747,1,45.915,0,46.081"/>
	<path clip-path="url(#SVGID_2_)" fill="#5D5D60" d="M0,63.972v1.426c2-0.28,3.078-0.521,4.611-0.521
		c1.402,0,4.389,0.038,8.389,0.089v-1.394c-4-0.049-6.984-0.089-8.389-0.089C3.073,63.484,2,63.703,0,63.972"/>
	<path clip-path="url(#SVGID_2_)" fill="#5D5D60" d="M0,50.562v1.415c1-0.163,2.481-0.356,4.611-0.356
		C6.013,51.621,9,51.66,13,51.71v-1.394c-4-0.05-6.984-0.089-8.389-0.089C2.607,50.228,1,50.396,0,50.562"/>
	<path clip-path="url(#SVGID_2_)" fill="#5D5D60" d="M0,77.013v1.42c1-0.241,3.023-0.452,4.611-0.452C6.013,77.981,9,78.02,13,78.07
		v-1.393c-4-0.05-6.984-0.089-8.389-0.089C3.025,76.588,1,76.782,0,77.013"/>
	<path clip-path="url(#SVGID_2_)" fill="#5D5D60" d="M0,43.925v1.415c1-0.163,2.481-0.356,4.611-0.356
		c1.402,0,4.389,0.039,8.389,0.089V43.68c-4-0.05-6.984-0.089-8.389-0.089C2.607,43.591,1,43.759,0,43.925"/>
	<path clip-path="url(#SVGID_2_)" fill="#5D5D60" d="M0,81.823v1.42c1-0.241,3.023-0.452,4.611-0.452
		C6.013,82.791,9,82.83,13,82.879v-1.393c-4-0.051-6.984-0.089-8.389-0.089C3.025,81.398,1,81.59,0,81.823"/>
	<path clip-path="url(#SVGID_2_)" fill="#5D5D60" d="M0,66.238v1.421c1-0.239,2.969-0.457,4.611-0.457
		c1.402,0,4.389,0.04,8.389,0.09v-1.393c-4-0.05-6.984-0.089-8.389-0.089C2.979,65.81,1,66.007,0,66.238"/>
	<path clip-path="url(#SVGID_2_)" fill="#5D5D60" d="M0,83.925v1.42c1-0.24,3.023-0.451,4.611-0.451
		c1.402,0,4.389,0.038,8.389,0.089v-1.394C9,83.54,6.016,83.5,4.611,83.5C3.025,83.5,1,83.694,0,83.925"/>
	<path clip-path="url(#SVGID_2_)" fill="#5D5D60" d="M0,70.546v1.42c1-0.241,3.023-0.452,4.611-0.452
		c1.402,0,4.389,0.039,8.389,0.089V70.21c-4-0.05-6.984-0.089-8.389-0.089C3.025,70.122,1,70.314,0,70.546"/>
	<path clip-path="url(#SVGID_2_)" fill="#5D5D60" d="M0,74.858v1.42c1-0.241,3.023-0.452,4.611-0.452
		c1.402,0,4.389,0.039,8.389,0.089v-1.393c-4-0.051-6.984-0.09-8.389-0.09C3.025,74.432,1,74.625,0,74.858"/>
	<path clip-path="url(#SVGID_2_)" fill="#5D5D60" d="M0,55.026v1.415c1-0.163,2.481-0.356,4.611-0.356
		c1.402,0,4.389,0.039,8.389,0.089v-1.393c-4-0.049-6.984-0.089-8.389-0.089C2.607,54.692,1,54.86,0,55.026"/>
	<path clip-path="url(#SVGID_2_)" fill="#5D5D60" d="M0,20.024v1.47c1-0.299,2.539-0.69,4.732-0.69c1.392,0,4.268,0.017,8.268,0.04
		v-1.393c-4-0.022-6.875-0.04-8.268-0.04C2.713,19.411,1,19.717,0,20.024"/>
	<path clip-path="url(#SVGID_2_)" fill="#5D5D60" d="M0,13.615v1.525c1-0.388,2.51-0.921,4.732-0.921
		c1.391,0,4.268,0.017,8.268,0.039v-1.392c-4-0.023-6.875-0.04-8.268-0.04C2.727,12.826,1,13.216,0,13.615"/>
	<path clip-path="url(#SVGID_2_)" fill="#5D5D60" d="M0,11.658v1.448c1-0.389,2.51-0.922,4.732-0.922c1.4,0,4.268,0.004,8.268,0.009
		v-1.191c-4-0.031-6.868-0.056-8.268-0.056C2.727,10.946,1,11.298,0,11.658"/>
	<path clip-path="url(#SVGID_2_)" fill="#5D5D60" d="M0,17.75v1.47c1-0.299,2.539-0.69,4.732-0.69C6.123,18.53,9,18.547,13,18.569
		v-1.392c-4-0.022-6.875-0.04-8.268-0.04C2.713,17.137,1,17.443,0,17.75"/>
	<path clip-path="url(#SVGID_2_)" fill="#5D5D60" d="M0,9.335v1.486C1,10.433,2.51,9.9,4.732,9.9C6.132,9.9,9,9.904,13,9.909v-1.29
		C9,8.6,6.132,8.585,4.732,8.585C2.727,8.585,1,8.957,0,9.335"/>
	<path clip-path="url(#SVGID_2_)" fill="#5D5D60" d="M0,0.949V2.22l0.242,0.218C0.251,2.43,1.41,1.549,4.73,1.549
		C6.123,1.549,9,1.528,13,1.501V0.108C9,0.135,6.123,0.157,4.732,0.157C2.347,0.157,1,0.572,0,0.949"/>
	<path clip-path="url(#SVGID_2_)" fill="#5D5D60" d="M0,3.038v1.271l0.242,0.218C0.251,4.519,1.41,3.638,4.73,3.638
		C6.123,3.638,9,3.617,13,3.59V2.197C9,2.224,6.123,2.246,4.732,2.246C2.347,2.246,1,2.661,0,3.038"/>
	<path clip-path="url(#SVGID_2_)" fill="#5D5D60" d="M0,4.972v1.271L0.242,6.46C0.251,6.453,1.41,5.571,4.73,5.571
		c1.394,0,4.27-0.018,8.27-0.04V4.139C9,4.162,6.125,4.18,4.732,4.18C2.347,4.18,1,4.594,0,4.972"/>
	<path clip-path="url(#SVGID_2_)" fill="#5D5D60" d="M0,7.327v1.271l0.242,0.218C0.251,8.808,1.41,7.927,4.73,7.927
		C6.124,7.927,9,7.891,13,7.846V6.453C9,6.499,6.123,6.535,4.732,6.535C2.347,6.535,1,6.95,0,7.327"/>
	<path clip-path="url(#SVGID_2_)" fill="#5D5D60" d="M4.729,34.751C2.757,34.742,1,34.896,0,35.162v1.331
		c1-0.294,2.356-0.563,4.407-0.563h0.079C5.877,35.93,9,35.897,13,35.957V34.93"/>
	<path clip-path="url(#SVGID_2_)" fill="#5D5D60" d="M0,32.831v1.445c1-0.244,2.551-0.555,4.727-0.555
		c1.392,0,4.273,0.032,8.273,0.073v-1.393c-4-0.041-6.879-0.073-8.273-0.073C2.699,32.328,1,32.581,0,32.831"/>
	<path clip-path="url(#SVGID_2_)" fill="#5D5D60" d="M0,37.542v1.444c1-0.243,2.551-0.554,4.727-0.554
		C6.12,38.432,9,38.417,13,38.398v-1.393c-4,0.019-6.881,0.034-8.273,0.034C2.699,37.039,1,37.292,0,37.542"/>
	<path clip-path="url(#SVGID_2_)" fill="#5D5D60" d="M0,41.77v1.415c1-0.163,2.481-0.356,4.611-0.356
		c1.402,0,4.389,0.039,8.389,0.089v-1.393c-4-0.049-6.984-0.089-8.389-0.089C2.607,41.436,1,41.604,0,41.77"/>
	<path clip-path="url(#SVGID_2_)" fill="#5D5D60" d="M0,39.614v1.415c1-0.163,2.481-0.356,4.611-0.356
		c1.402,0,4.389,0.039,8.389,0.089v-1.393C9,39.32,6.016,39.28,4.611,39.28C2.607,39.28,1,39.448,0,39.614"/>
	<path clip-path="url(#SVGID_2_)" fill="#5D5D60" d="M0,24.208v1.444c1-0.243,2.551-0.554,4.727-0.554
		C6.119,25.099,9,25.13,13,25.171v-1.393c-4-0.041-6.879-0.073-8.273-0.073C2.699,23.706,1,23.958,0,24.208"/>
	<path clip-path="url(#SVGID_2_)" fill="#5D5D60" d="M0,30.677v1.444c1-0.243,2.551-0.554,4.727-0.554
		C6.12,31.567,9,31.579,13,31.595v-1.392c-4-0.016-6.879-0.029-8.273-0.029C2.699,30.174,1,30.427,0,30.677"/>
	<path clip-path="url(#SVGID_2_)" fill="#5D5D60" d="M0,26.364v1.445c1-0.244,2.551-0.555,4.727-0.555
		c1.392,0,4.273,0.032,8.273,0.073v-1.393c-4-0.041-6.879-0.073-8.273-0.073C2.699,25.861,1,26.114,0,26.364"/>
	<path clip-path="url(#SVGID_2_)" fill="#5D5D60" d="M0,28.52v1.444c1-0.243,2.551-0.554,4.727-0.554
		C6.119,29.41,9,29.442,13,29.483V28.09c-4-0.041-6.879-0.073-8.273-0.073C2.699,28.017,1,28.27,0,28.52"/>
	<polygon clip-path="url(#SVGID_2_)" fill="#5D5D60" points="36,59.139 32,56.864 32,58.484 36,60.758 	"/>
	<polygon clip-path="url(#SVGID_2_)" fill="#5D5D60" points="36,33.938 32,31.071 32,32.811 36,35.679 	"/>
	<polygon clip-path="url(#SVGID_2_)" fill="#5D5D60" points="36,38.24 32,35.327 32,37.077 36,39.99 	"/>
	<polygon clip-path="url(#SVGID_2_)" fill="#5D5D60" points="36,36.094 32,33.227 32,34.966 36,37.834 	"/>
	<polygon clip-path="url(#SVGID_2_)" fill="#5D5D60" points="36,29.281 36,27.554 32,24.618 32,26.373 35.902,29.297 	"/>
	<polygon clip-path="url(#SVGID_2_)" fill="#5D5D60" points="36,29.732 32,26.864 32,28.604 36,31.473 	"/>
	<polygon clip-path="url(#SVGID_2_)" fill="#5D5D60" points="36,44.451 32,41.707 32,43.42 36,46.165 	"/>
	<polygon clip-path="url(#SVGID_2_)" fill="#5D5D60" points="36,46.454 32,43.957 32,45.62 36,48.117 	"/>
	<polygon clip-path="url(#SVGID_2_)" fill="#5D5D60" points="36,48.61 32,46.113 32,47.776 36,50.273 	"/>
	<polygon clip-path="url(#SVGID_2_)" fill="#5D5D60" points="36,42.414 32,39.67 32,41.346 36,44.127 	"/>
	<polygon clip-path="url(#SVGID_2_)" fill="#5D5D60" points="36,12.446 32,9.367 32,11.154 36,14.233 	"/>
	<polygon clip-path="url(#SVGID_2_)" fill="#5D5D60" points="36,16.096 36,14.585 32,11.53 32,13.312 35.783,16.261 	"/>
	<polygon clip-path="url(#SVGID_2_)" fill="#5D5D60" points="36,8.102 32,5.131 32,6.893 36,9.864 	"/>
	<polygon clip-path="url(#SVGID_2_)" fill="#5D5D60" points="36,21.085 32,18.104 32,19.869 36,22.85 	"/>
	<polygon clip-path="url(#SVGID_2_)" fill="#5D5D60" points="36,16.842 32,13.852 32,15.512 36,18.53 	"/>
	<polygon clip-path="url(#SVGID_2_)" fill="#5D5D60" points="36,25.396 32,22.415 32,24.18 36,27.161 	"/>
	<polygon clip-path="url(#SVGID_2_)" fill="#5D5D60" points="36,23.241 32,20.259 32,22.024 36,25.005 	"/>
	<polygon clip-path="url(#SVGID_2_)" fill="#5D5D60" points="36,18.893 32,16.053 32,17.577 36,20.47 	"/>
	<path clip-path="url(#SVGID_2_)" fill="#5D5D60" d="M15,89.219c4,0.069,9,0.147,10,0.163v-1.392c-1-0.018-6-0.095-10-0.165V89.219z
		"/>
	<polygon clip-path="url(#SVGID_2_)" fill="#5D5D60" points="36,80.393 32,78.367 32,79.943 36,81.969 	"/>
	<polygon clip-path="url(#SVGID_2_)" fill="#5D5D60" points="36,73.926 32,71.9 32,73.475 36,75.502 	"/>
	<polygon clip-path="url(#SVGID_2_)" fill="#5D5D60" points="36,82.549 32,80.522 32,82.098 36,84.125 	"/>
	<polygon clip-path="url(#SVGID_2_)" fill="#5D5D60" points="36,76.083 32,74.055 32,75.631 36,77.658 	"/>
	<polygon clip-path="url(#SVGID_2_)" fill="#5D5D60" points="36,78.238 32,76.21 32,77.787 36,79.814 	"/>
	<polygon clip-path="url(#SVGID_2_)" fill="#5D5D60" points="36,50.765 32,48.269 32,49.931 36,52.428 	"/>
	<polygon clip-path="url(#SVGID_2_)" fill="#5D5D60" points="36,84.401 32,82.623 32,84.158 36,85.937 	"/>
	<polygon clip-path="url(#SVGID_2_)" fill="#5D5D60" points="36,88.817 32,87.04 32,88.575 36,90.353 	"/>
	<path clip-path="url(#SVGID_2_)" fill="#5D5D60" d="M0,88.131v1.421C1,89.311,3.023,89.1,4.611,89.1C6.013,89.1,9,89.139,13,89.189
		v-1.394c-4-0.05-6.984-0.089-8.389-0.089C3.025,87.707,1,87.9,0,88.131"/>
	<polygon clip-path="url(#SVGID_2_)" fill="#5D5D60" points="36,55.008 32,52.583 32,54.232 36,56.657 	"/>
	<polygon clip-path="url(#SVGID_2_)" fill="#5D5D60" points="36,52.921 32,50.424 32,52.087 36,54.584 	"/>
	<polygon clip-path="url(#SVGID_2_)" fill="#5D5D60" points="36,61.294 32,59.019 32,60.639 36,62.915 	"/>
	<polygon clip-path="url(#SVGID_2_)" fill="#5D5D60" points="36,69.766 32,67.615 32,69.212 36,71.364 	"/>
	<polygon clip-path="url(#SVGID_2_)" fill="#5D5D60" points="36,63.45 32,61.175 32,62.795 36,65.07 	"/>
	<polygon clip-path="url(#SVGID_2_)" fill="#5D5D60" points="36,71.771 32,69.744 32,71.32 36,73.347 	"/>
	<polygon clip-path="url(#SVGID_2_)" fill="#5D5D60" points="36,65.606 32,63.331 32,64.951 36,67.226 	"/>
	<polygon clip-path="url(#SVGID_2_)" fill="#5D5D60" points="27,44.476 31,46.398 31,44.735 27,42.813 	"/>
	<polygon clip-path="url(#SVGID_2_)" fill="#5D5D60" points="27,88.242 31,89.511 31,87.975 27,86.707 	"/>
	<polygon clip-path="url(#SVGID_2_)" fill="#5D5D60" points="27,55.446 31,57.167 31,55.546 27,53.827 	"/>
	<polygon clip-path="url(#SVGID_2_)" fill="#5D5D60" points="27,64.069 31,65.789 31,64.169 27,62.449 	"/>
	<polygon clip-path="url(#SVGID_2_)" fill="#5D5D60" points="27,46.632 31,48.554 31,46.891 27,44.969 	"/>
	<polygon clip-path="url(#SVGID_2_)" fill="#5D5D60" points="27,66.322 31,67.929 31,66.333 27,64.725 	"/>
	<polygon clip-path="url(#SVGID_2_)" fill="#5D5D60" points="27,53.196 31,55.005 31,53.367 27,51.558 	"/>
	<polygon clip-path="url(#SVGID_2_)" fill="#5D5D60" points="27,48.788 31,50.709 31,49.046 27,47.125 	"/>
	<polygon clip-path="url(#SVGID_2_)" fill="#5D5D60" points="27,51.018 31,52.875 31,51.226 27,49.37 	"/>
	<polygon clip-path="url(#SVGID_2_)" fill="#5D5D60" points="27,57.602 31,59.322 31,57.702 27,55.982 	"/>
	<polygon clip-path="url(#SVGID_2_)" fill="#5D5D60" points="27,79.355 31,80.848 31,79.274 27,77.779 	"/>
	<polygon clip-path="url(#SVGID_2_)" fill="#5D5D60" points="27,84.021 31,85.291 31,83.754 27,82.487 	"/>
	<polygon clip-path="url(#SVGID_2_)" fill="#5D5D60" points="27,81.708 31,82.977 31,81.441 27,80.173 	"/>
	<polygon clip-path="url(#SVGID_2_)" fill="#5D5D60" points="27,86.125 31,87.394 31,85.858 27,84.589 	"/>
	<polygon clip-path="url(#SVGID_2_)" fill="#5D5D60" points="27,72.887 31,74.381 31,72.806 27,71.311 	"/>
	<polygon clip-path="url(#SVGID_2_)" fill="#5D5D60" points="27,77.199 31,78.693 31,77.118 27,75.623 	"/>
	<polygon clip-path="url(#SVGID_2_)" fill="#5D5D60" points="27,70.732 31,72.226 31,70.651 27,69.156 	"/>
	<polygon clip-path="url(#SVGID_2_)" fill="#5D5D60" points="27,68.577 31,70.07 31,68.496 27,67 	"/>
	<polygon clip-path="url(#SVGID_2_)" fill="#5D5D60" points="27,61.914 31,63.633 31,62.013 27,60.293 	"/>
	<polygon clip-path="url(#SVGID_2_)" fill="#5D5D60" points="27,13.809 31,16.091 31,14.583 27,12.35 	"/>
	<polygon clip-path="url(#SVGID_2_)" fill="#5D5D60" points="27,11.599 31,13.994 31,12.341 27,9.971 	"/>
	<polygon clip-path="url(#SVGID_2_)" fill="#5D5D60" points="27,42.32 31,44.242 31,42.58 27,40.657 	"/>
	<polygon clip-path="url(#SVGID_2_)" fill="#5D5D60" points="27,18.154 31,20.516 31,18.75 27,16.389 	"/>
	<polygon clip-path="url(#SVGID_2_)" fill="#5D5D60" points="27,20.309 31,22.671 31,20.906 27,18.544 	"/>
	<polygon clip-path="url(#SVGID_2_)" fill="#5D5D60" points="27,9.354 31,11.782 31,10.001 27,7.573 	"/>
	<polygon clip-path="url(#SVGID_2_)" fill="#5D5D60" points="27,3.034 31,5.387 31,3.624 27,1.271 	"/>
	<polygon clip-path="url(#SVGID_2_)" fill="#5D5D60" points="27,7.167 31,9.618 31,7.831 27,5.379 	"/>
	<polygon clip-path="url(#SVGID_2_)" fill="#5D5D60" points="36,93.024 32,91.246 32,92.781 36,94.559 	"/>
	<polygon clip-path="url(#SVGID_2_)" fill="#5D5D60" points="27,5.198 31,7.664 31,5.873 27,3.407 	"/>
	<polygon clip-path="url(#SVGID_2_)" fill="#5D5D60" points="27,15.998 31,18.36 31,16.595 27,14.233 	"/>
	<polygon clip-path="url(#SVGID_2_)" fill="#5D5D60" points="27,35.541 31,37.799 31,36.059 27,33.8 	"/>
	<polygon clip-path="url(#SVGID_2_)" fill="#5D5D60" points="27,37.713 31,39.892 31,38.225 27,36.079 	"/>
	<polygon clip-path="url(#SVGID_2_)" fill="#5D5D60" points="27,39.829 31,41.976 31,40.262 27,38.116 	"/>
	<polygon clip-path="url(#SVGID_2_)" fill="#5D5D60" points="27,33.287 31,35.586 31,33.836 27,31.538 	"/>
	<polygon clip-path="url(#SVGID_2_)" fill="#5D5D60" points="27,26.917 31,29.177 31,27.437 27,25.178 	"/>
	<polygon clip-path="url(#SVGID_2_)" fill="#5D5D60" points="27,24.867 31,27.126 31,25.386 27,23.127 	"/>
	<polygon clip-path="url(#SVGID_2_)" fill="#5D5D60" points="27,31.229 31,33.488 31,31.748 27,29.489 	"/>
	<polygon clip-path="url(#SVGID_2_)" fill="#5D5D60" points="27,22.555 31,24.875 31,23.121 27,20.8 	"/>
	<polygon clip-path="url(#SVGID_2_)" fill="#5D5D60" points="27,29.073 31,31.333 31,29.592 27,27.333 	"/>
	<path clip-path="url(#SVGID_2_)" fill="#5D5D60" d="M15,60.515c4,0.07,9,0.147,10,0.165v-1.394c-1-0.018-6-0.095-10-0.165V60.515z"
		/>
	<path clip-path="url(#SVGID_2_)" fill="#5D5D60" d="M15,54.048c4,0.069,9,0.147,10,0.165V52.82c-1-0.018-6-0.095-10-0.165V54.048z"
		/>
	<path clip-path="url(#SVGID_2_)" fill="#5D5D60" d="M15,87.129c4,0.07,9,0.148,10,0.164v-1.392c-1-0.018-6-0.095-10-0.165V87.129z"
		/>
	<path clip-path="url(#SVGID_2_)" fill="#5D5D60" d="M15,62.67c4,0.07,9,0.148,10,0.165v-1.393c-1-0.019-6-0.095-10-0.165V62.67z"/>
	<path clip-path="url(#SVGID_2_)" fill="#5D5D60" d="M15,58.36c4,0.069,9,0.147,10,0.164v-1.393c-1-0.018-6-0.095-10-0.165V58.36z"
		/>
	<path clip-path="url(#SVGID_2_)" fill="#5D5D60" d="M15,51.74c4,0.07,9,0.148,10,0.164v-1.392c-1-0.018-6-0.095-10-0.165V51.74z"/>
	<path clip-path="url(#SVGID_2_)" fill="#5D5D60" d="M15,47.259c4,0.07,9.204,0.147,10.22,0.164L25,47.425V46.03
		c-1-0.017-6-0.094-10-0.164V47.259z"/>
	<path clip-path="url(#SVGID_2_)" fill="#5D5D60" d="M15,45.104c4,0.07,9.204,0.147,10.22,0.164L25,45.269v-1.394
		c-1-0.018-6-0.095-10-0.165V45.104z"/>
	<path clip-path="url(#SVGID_2_)" fill="#5D5D60" d="M15,49.533c4,0.069,9,0.147,10,0.164v-1.393c-1-0.017-6-0.094-10-0.164V49.533z
		"/>
	<path clip-path="url(#SVGID_2_)" fill="#5D5D60" d="M15,69.477c4,0.07,9,0.148,10,0.165V68.25c-1-0.018-6-0.095-10-0.165V69.477z"
		/>
	<path clip-path="url(#SVGID_2_)" fill="#5D5D60" d="M15,78.1c4,0.07,9,0.148,10,0.165v-1.393c-1-0.019-6-0.096-10-0.165V78.1z"/>
	<path clip-path="url(#SVGID_2_)" fill="#5D5D60" d="M15,67.322c4,0.07,9,0.148,10,0.165v-1.394c-1-0.018-6-0.095-10-0.164V67.322z"
		/>
	<path clip-path="url(#SVGID_2_)" fill="#5D5D60" d="M15,85.012c4,0.07,9,0.148,10,0.164v-1.392c-1-0.019-6-0.095-10-0.165V85.012z"
		/>
	<path clip-path="url(#SVGID_2_)" fill="#5D5D60" d="M15,80.596c4,0.07,9,0.147,10,0.164v-1.394c-1-0.017-6-0.094-10-0.164V80.596z"
		/>
	<path clip-path="url(#SVGID_2_)" fill="#5D5D60" d="M15,42.948c4,0.07,9.204,0.147,10.22,0.164L25,43.114V41.72
		c-1-0.018-6-0.095-10-0.165V42.948z"/>
	<path clip-path="url(#SVGID_2_)" fill="#5D5D60" d="M15,73.789c4,0.07,9,0.148,10,0.165V72.56c-1-0.017-6-0.094-10-0.164V73.789z"
		/>
	<path clip-path="url(#SVGID_2_)" fill="#5D5D60" d="M15,12.196c4,0.007,9.12,0.014,10.198,0.016L25,12.231v-1.104
		c-1-0.011-6-0.061-10-0.105V12.196z"/>
	<path clip-path="url(#SVGID_2_)" fill="#5D5D60" d="M15,14.272c4,0.031,9.103,0.066,10.19,0.075L25,14.372v-1.418
		c-1-0.008-6-0.043-10-0.075V14.272z"/>
	<path clip-path="url(#SVGID_2_)" fill="#5D5D60" d="M15,9.912c4,0.007,9.097,0.014,10.19,0.016L25,9.952V8.69
		c-1-0.006-6-0.035-10-0.061V9.912z"/>
	<path clip-path="url(#SVGID_2_)" fill="#5D5D60" d="M15,16.428c4,0.031,9.103,0.067,10.19,0.075L25,16.528V15.11
		c-1-0.008-6-0.043-10-0.075V16.428z"/>
	<path clip-path="url(#SVGID_2_)" fill="#5D5D60" d="M15,5.517c4-0.032,9.058-0.067,10.166-0.076L25,5.487V4.048
		c-1,0.007-6,0.044-10,0.076V5.517z"/>
	<path clip-path="url(#SVGID_2_)" fill="#5D5D60" d="M15,7.817c4-0.064,9.08-0.136,10.193-0.153L25,7.688V6.271
		c-1,0.015-6,0.088-10,0.153V7.817z"/>
	<path clip-path="url(#SVGID_2_)" fill="#5D5D60" d="M15,3.573c4-0.038,9.076-0.081,10.188-0.091L25,3.509v-1.42
		c-1,0.009-6,0.053-10,0.091V3.573z"/>
	<path clip-path="url(#SVGID_2_)" fill="#5D5D60" d="M15,1.484c4-0.038,9.098-0.081,10.196-0.091L25,1.413V0
		c-1,0.009-6,0.053-10,0.091V1.484z"/>
	<path clip-path="url(#SVGID_2_)" fill="#5D5D60" d="M15,18.583c4,0.031,9.103,0.067,10.19,0.075L25,18.684v-1.418
		c-1-0.008-6-0.043-10-0.075V18.583z"/>
	<path clip-path="url(#SVGID_2_)" fill="#5D5D60" d="M15,31.605c4,0.023,9.094,0.048,10.172,0.054L25,31.697v-1.43
		c-1-0.006-6-0.032-10-0.055V31.605z"/>
	<path clip-path="url(#SVGID_2_)" fill="#5D5D60" d="M15,20.857c4,0.031,9.112,0.067,10.193,0.075L25,20.954v-1.415
		c-1-0.008-6-0.043-10-0.075V20.857z"/>
	<path clip-path="url(#SVGID_2_)" fill="#5D5D60" d="M15,40.792c4,0.07,9.204,0.147,10.22,0.164L25,40.958v-1.394
		c-1-0.018-6-0.095-10-0.165V40.792z"/>
	<path clip-path="url(#SVGID_2_)" fill="#5D5D60" d="M15,38.386c4-0.027,9.141-0.056,10.21-0.063L25,38.332V36.93
		c-1,0.007-6,0.037-10,0.063V38.386z"/>
	<path clip-path="url(#SVGID_2_)" fill="#5D5D60" d="M15,33.819c4,0.058,9.128,0.122,10.196,0.137L25,33.976v-1.413
		c-1-0.014-6-0.079-10-0.137V33.819z"/>
	<path clip-path="url(#SVGID_2_)" fill="#5D5D60" d="M15,23.022c4,0.109,9.134,0.23,10.192,0.258L25,23.302v-1.415
		c-1-0.028-6-0.149-10-0.258V23.022z"/>
	<path clip-path="url(#SVGID_2_)" fill="#5D5D60" d="M15,25.196c4,0.058,9.128,0.122,10.196,0.137L25,25.354V23.94
		c-1-0.014-6-0.079-10-0.137V25.196z"/>
	<path clip-path="url(#SVGID_2_)" fill="#5D5D60" d="M15,27.352c4,0.058,9.128,0.122,10.196,0.137L25,27.509v-1.413
		c-1-0.014-6-0.079-10-0.137V27.352z"/>
	<path clip-path="url(#SVGID_2_)" fill="#5D5D60" d="M15,29.508c4,0.058,9.128,0.122,10.196,0.137L25,29.665v-1.413
		c-1-0.014-6-0.079-10-0.137V29.508z"/>
</g>
</svg>
